<svg width="251" height="56" viewBox="0 0 251 56" fill="none" xmlns="http://www.w3.org/2000/svg">
<path fill-rule="evenodd" clip-rule="evenodd" d="M56 0V56H0V0H56ZM22 6H6V22H22V6ZM6 28H28V6H36V36H6V28ZM6 50V42H42V6H50V50H6Z" fill="black"/>
<path d="M123.452 34.8617C123.452 44.0752 128.413 52 140.075 52C150.512 52 154.7 45.0416 155.731 40.0805H149.482C148.386 44.4617 145.036 46.7812 140.075 46.7812C132.601 46.7812 129.766 42.0779 129.508 36.5369H154.636V34.2174C154.636 24.3597 148.515 18.6255 139.237 18.6255C129.959 18.6255 123.452 24.553 123.452 34.8617ZM129.508 32.1557C129.508 27.5812 133.052 23.7799 139.237 23.7799C145.551 23.7799 148.58 27.5812 148.58 32.1557H129.508Z" fill="black"/>
<path d="M173.514 9.41208H184.596V4C178.798 4 172.999 4 167.2 4V19.2698H160.371V24.6819H167.2V45.9436H160.371V51.3557H182.792V45.9436H173.514V24.6819H182.792V19.2698H173.514C173.514 15.9839 173.514 12.698 173.514 9.41208Z" fill="black"/>
<path d="M188.007 34.8617C188.007 44.0752 192.968 52 204.63 52C215.068 52 219.256 45.0416 220.287 40.0805H214.037C212.942 44.4617 209.591 46.7812 204.63 46.7812C197.156 46.7812 194.322 42.0779 194.064 36.5369H219.191V34.2174C219.191 24.3597 213.07 18.6255 203.793 18.6255C194.515 18.6255 188.007 24.553 188.007 34.8617ZM194.064 32.1557C194.064 27.5812 197.607 23.7799 203.793 23.7799C210.107 23.7799 213.135 27.5812 213.135 32.1557H194.064Z" fill="black"/>
<path d="M227.048 51.3557H233.297V24.102H250.178V18.6255H227.048C227.048 29.5356 227.048 40.4456 227.048 51.3557Z" fill="black"/>
<path d="M94.8283 5.89148H79.995V51.3587H94.8283C106.114 51.3587 118.046 48.1985 118.046 28.5928C118.046 9.05161 106.114 5.89148 94.8283 5.89148ZM94.8283 45.9413H86.2508V11.3088H94.8283C102.89 11.3088 111.725 12.5342 111.725 28.5928C111.725 44.7159 102.89 45.9413 94.8283 45.9413Z" fill="black"/>
</svg>
