<svg width="2140" height="557" viewBox="0 0 2140 557" fill="none" xmlns="http://www.w3.org/2000/svg">
<path d="M643.118 125.545H734.545L812.102 314.665H815.682L893.239 125.545H984.666V431H912.777V243.372H910.241L836.861 429.061H790.923L717.543 242.328H715.007V431H643.118V125.545ZM1013.92 431V201.909H1086.85V431H1013.92ZM1050.46 175.212C1040.22 175.212 1031.42 171.831 1024.06 165.07C1016.7 158.209 1013.02 149.956 1013.02 140.311C1013.02 130.766 1016.7 122.612 1024.06 115.851C1031.42 108.99 1040.22 105.56 1050.46 105.56C1060.8 105.56 1069.6 108.99 1076.86 115.851C1084.21 122.612 1087.89 130.766 1087.89 140.311C1087.89 149.956 1084.21 158.209 1076.86 165.07C1069.6 171.831 1060.8 175.212 1050.46 175.212ZM1189.4 300.347V431H1116.47V201.909H1185.82V243.969H1188.36C1193.43 229.949 1202.08 218.962 1214.31 211.007C1226.54 202.953 1241.11 198.926 1258.01 198.926C1274.12 198.926 1288.09 202.555 1299.92 209.814C1311.85 216.973 1321.1 227.016 1327.66 239.942C1334.33 252.768 1337.61 267.783 1337.51 284.984V431H1264.57V299.303C1264.67 286.575 1261.44 276.632 1254.88 269.473C1248.42 262.314 1239.42 258.734 1227.88 258.734C1220.23 258.734 1213.47 260.425 1207.6 263.805C1201.83 267.087 1197.36 271.81 1194.18 277.974C1191.09 284.139 1189.5 291.597 1189.4 300.347ZM1495.17 201.909V255.602H1350.65V201.909H1495.17ZM1380.93 147.023H1453.86V358.962C1453.86 363.436 1454.56 367.065 1455.95 369.849C1457.44 372.534 1459.58 374.473 1462.36 375.666C1465.15 376.76 1468.48 377.307 1472.35 377.307C1475.14 377.307 1478.07 377.058 1481.15 376.561C1484.34 375.964 1486.72 375.467 1488.31 375.07L1499.35 427.719C1495.87 428.713 1490.95 429.956 1484.58 431.447C1478.32 432.939 1470.81 433.884 1462.06 434.281C1444.96 435.077 1430.29 433.088 1418.06 428.315C1405.93 423.443 1396.64 415.886 1390.17 405.645C1383.81 395.403 1380.73 382.527 1380.93 367.016V147.023ZM1593.44 125.545V431H1520.51V125.545H1593.44ZM1623.06 431V201.909H1696V431H1623.06ZM1659.6 175.212C1649.36 175.212 1640.56 171.831 1633.21 165.07C1625.85 158.209 1622.17 149.956 1622.17 140.311C1622.17 130.766 1625.85 122.612 1633.21 115.851C1640.56 108.99 1649.36 105.56 1659.6 105.56C1669.95 105.56 1678.75 108.99 1686 115.851C1693.36 122.612 1697.04 130.766 1697.04 140.311C1697.04 149.956 1693.36 158.209 1686 165.07C1678.75 171.831 1669.95 175.212 1659.6 175.212ZM1855.82 201.909V255.602H1708.47V201.909H1855.82ZM1739.19 431V190.276C1739.19 172.577 1742.52 157.911 1749.18 146.277C1755.85 134.544 1765.09 125.794 1776.93 120.027C1788.76 114.16 1802.43 111.227 1817.94 111.227C1828.08 111.227 1837.63 112.023 1846.58 113.614C1855.63 115.105 1862.34 116.447 1866.71 117.641L1855.08 171.036C1852.39 170.141 1849.11 169.395 1845.24 168.798C1841.46 168.202 1837.88 167.903 1834.5 167.903C1825.95 167.903 1820.08 169.793 1816.9 173.571C1813.72 177.349 1812.12 182.52 1812.12 189.082V431H1739.19ZM1918.71 516.909C1909.96 516.909 1901.7 516.213 1893.95 514.821C1886.19 513.528 1879.53 511.788 1873.96 509.601L1890.07 456.653C1897.23 459.04 1903.69 460.432 1909.46 460.83C1915.33 461.227 1920.35 460.283 1924.52 457.996C1928.8 455.808 1932.08 451.881 1934.37 446.213L1937.2 439.352L1855.77 201.909H1932.13L1974.34 365.375H1976.73L2019.53 201.909H2096.34L2009.99 452.925C2005.81 465.453 1999.89 476.49 1992.24 486.036C1984.68 495.68 1974.89 503.237 1962.85 508.706C1950.92 514.175 1936.21 516.909 1918.71 516.909Z" fill="#161616"/>
<g clip-path="url(#clip0_1656_31)">
<path d="M152.833 215.492C153.161 170.734 170.911 127.864 202.318 95.9744H202.26L81.0063 217.228H81.0641C80.6128 217.583 80.1872 217.97 79.7908 218.386C50.3021 247.836 32.4234 286.933 29.4359 328.502C26.4485 370.071 38.5527 411.323 63.5272 444.688L185.996 322.218L187.27 321.003C164.444 290.606 152.334 253.502 152.833 215.492Z" fill="#0C8C5E"/>
<path d="M447.257 340.971C424.05 363.714 394.919 379.479 363.185 386.469C331.452 393.458 298.393 391.39 267.778 380.501C251.455 374.707 236.114 366.451 222.286 356.019L221.013 357.292L98.5439 479.704C131.922 504.616 173.151 516.682 214.694 513.695C256.237 510.709 295.316 492.87 324.788 463.44L326.003 462.225L447.257 340.971Z" fill="#0C8C5E"/>
<path d="M499.232 217.228V52.0001C499.232 47.5818 495.65 44.0001 491.232 44.0001H326.004C303.253 43.9773 280.722 48.4497 259.705 57.1605C238.688 65.8713 219.599 78.6488 203.534 94.7589L202.319 95.9743C181.144 117.471 165.995 144.157 158.39 173.357C172.157 169.792 186.305 167.907 200.525 167.743C238.536 167.295 275.63 179.422 306.036 202.238C333.363 222.617 354.045 250.63 365.476 282.746C377.126 315.571 378.658 351.137 369.875 384.842C399.08 377.25 425.769 362.098 447.257 340.913L448.473 339.755C464.59 323.684 477.371 304.586 486.082 283.558C494.793 262.531 499.262 239.989 499.232 217.228Z" fill="#18E299"/>
</g>
<defs>
<clipPath id="clip0_1656_31">
<rect width="470" height="470" fill="white" transform="translate(29 44)"/>
</clipPath>
</defs>
</svg>
