<svg width="2315" height="557" viewBox="0 0 2315 557" fill="none" xmlns="http://www.w3.org/2000/svg">
<path d="M659.077 111.455H746.307L838.438 336.227H842.358L934.489 111.455H1021.72V446H953.111V228.251H950.334L863.757 444.366H817.038L730.462 227.435H727.685V446H659.077V111.455ZM1060.29 446V195.091H1129.88V446H1060.29ZM1095.25 162.747C1084.9 162.747 1076.02 159.317 1068.62 152.456C1061.32 145.486 1057.67 137.155 1057.67 127.463C1057.67 117.88 1061.32 109.658 1068.62 102.797C1076.02 95.8272 1084.9 92.3423 1095.25 92.3423C1105.59 92.3423 1114.41 95.8272 1121.71 102.797C1129.11 109.658 1132.82 117.88 1132.82 127.463C1132.82 137.155 1129.11 145.486 1121.71 152.456C1114.41 159.317 1105.59 162.747 1095.25 162.747ZM1236.81 300.943V446H1167.22V195.091H1233.54V239.359H1236.48C1242.04 224.767 1251.35 213.223 1264.41 204.729C1277.48 196.125 1293.33 191.824 1311.95 191.824C1329.37 191.824 1344.57 195.635 1357.53 203.259C1370.48 210.882 1380.56 221.772 1387.75 235.929C1394.93 249.977 1398.53 266.748 1398.53 286.241V446H1328.94V298.656C1329.05 283.301 1325.13 271.322 1317.18 262.719C1309.23 254.007 1298.28 249.651 1284.34 249.651C1274.98 249.651 1266.7 251.665 1259.51 255.695C1252.44 259.724 1246.88 265.605 1242.85 273.337C1238.93 280.96 1236.92 290.162 1236.81 300.943ZM1568.43 195.091V247.364H1417.33V195.091H1568.43ZM1451.63 134.977H1521.22V368.898C1521.22 375.323 1522.2 380.332 1524.16 383.926C1526.12 387.411 1528.85 389.861 1532.33 391.277C1535.92 392.693 1540.06 393.401 1544.74 393.401C1548.01 393.401 1551.28 393.128 1554.55 392.584C1557.81 391.93 1560.32 391.44 1562.06 391.114L1573 442.896C1569.52 443.985 1564.62 445.238 1558.3 446.653C1551.99 448.178 1544.31 449.104 1535.27 449.43C1518.5 450.084 1503.8 447.851 1491.17 442.733C1478.64 437.615 1468.9 429.665 1461.93 418.884C1454.96 408.102 1451.53 394.49 1451.63 378.045V134.977ZM1670.34 111.455V446H1600.75V111.455H1670.34ZM1707.68 446V195.091H1777.27V446H1707.68ZM1742.64 162.747C1732.3 162.747 1723.42 159.317 1716.01 152.456C1708.72 145.486 1705.07 137.155 1705.07 127.463C1705.07 117.88 1708.72 109.658 1716.01 102.797C1723.42 95.8272 1732.3 92.3423 1742.64 92.3423C1752.99 92.3423 1761.81 95.8272 1769.1 102.797C1776.51 109.658 1780.21 117.88 1780.21 127.463C1780.21 137.155 1776.51 145.486 1769.1 152.456C1761.81 159.317 1752.99 162.747 1742.64 162.747ZM1949.54 195.091V247.364H1794.69V195.091H1949.54ZM1830.13 446V176.959C1830.13 158.772 1833.67 143.689 1840.75 131.71C1847.94 119.731 1857.74 110.747 1870.16 104.757C1882.57 98.7675 1896.67 95.7727 1912.46 95.7727C1923.14 95.7727 1932.88 96.5895 1941.7 98.223C1950.63 99.8565 1957.28 101.327 1961.63 102.634L1949.22 154.906C1946.5 154.035 1943.12 153.218 1939.09 152.456C1935.17 151.694 1931.14 151.312 1927 151.312C1916.77 151.312 1909.63 153.708 1905.6 158.5C1901.57 163.183 1899.56 169.771 1899.56 178.266V446H1830.13ZM2016.62 540.091C2007.8 540.091 1999.52 539.383 1991.79 537.967C1984.17 536.661 1977.85 534.973 1972.84 532.903L1988.52 480.957C1996.69 483.462 2004.04 484.823 2010.57 485.041C2017.22 485.259 2022.94 483.734 2027.73 480.467C2032.63 477.2 2036.6 471.646 2039.65 463.805L2043.74 453.188L1953.73 195.091H2026.91L2078.86 379.352H2081.47L2133.91 195.091H2207.58L2110.06 473.116C2105.37 486.62 2099 498.382 2090.94 508.401C2082.99 518.528 2072.92 526.315 2060.72 531.76C2048.53 537.314 2033.83 540.091 2016.62 540.091Z" fill="#041811"/>
<g clip-path="url(#clip0_1142_19)">
<path d="M152.833 215.492C153.162 170.734 170.911 127.865 202.318 95.9746H202.261L81.0067 217.228H81.0646C80.6132 217.584 80.1877 217.97 79.7913 218.386C50.3025 247.836 32.4238 286.934 29.4364 328.503C26.449 370.071 38.5532 411.324 63.5276 444.688L185.997 322.219L187.27 321.003C164.444 290.606 152.334 253.502 152.833 215.492V215.492Z" fill="#0C8C5E"/>
<path d="M447.257 340.971C424.05 363.714 394.919 379.479 363.185 386.469C331.452 393.458 298.393 391.39 267.778 380.501C251.455 374.707 236.114 366.451 222.286 356.019L221.013 357.292L98.5437 479.704C131.922 504.616 173.151 516.682 214.694 513.695C256.236 510.709 295.316 492.87 324.788 463.44L326.003 462.225L447.257 340.971Z" fill="#0C8C5E"/>
<path d="M499.231 217.228V52.0001C499.231 47.5818 495.65 44.0001 491.231 44.0001H326.003C303.252 43.9773 280.721 48.4497 259.704 57.1605C238.687 65.8713 219.598 78.6487 203.534 94.7589L202.318 95.9743C181.144 117.471 165.994 144.157 158.389 173.357C172.156 169.792 186.304 167.907 200.524 167.743C238.536 167.295 275.629 179.422 306.035 202.238C333.362 222.617 354.045 250.63 365.476 282.746C377.126 315.571 378.658 351.137 369.875 384.842C399.079 377.25 425.769 362.098 447.257 340.913L448.472 339.755C464.589 323.684 477.371 304.586 486.082 283.558C494.793 262.531 499.262 239.989 499.231 217.228Z" fill="#18E299"/>
</g>
<defs>
<clipPath id="clip0_1142_19">
<rect width="470" height="470" fill="white" transform="translate(29 44)"/>
</clipPath>
</defs>
</svg>
