<svg width="1200" height="630" viewBox="0 0 1200 630" fill="none" xmlns="http://www.w3.org/2000/svg">
<g clip-path="url(#clip0_4024_204)">
<rect width="1200" height="630" fill="url(#paint0_linear_4024_204)"/>
<g style="mix-blend-mode:hard-light" filter="url(#filter0_f_4024_204)">
<path d="M80.0908 167.15C81.4875 144.664 84.6579 119.023 92.2237 92.0687C116.665 69.2529 377.399 -222.234 399.134 -230.101C417.623 -236.793 443.622 -245.13 453.475 -237.25L463.928 -228.89C472.139 -222.324 479.243 -214.282 484.875 -204.673C495.582 -186.406 503.318 -163.787 500.646 -132.662C499.582 -120.263 498.96 -106.006 489.279 -88.4931C463.563 -41.9773 420.66 5.75494 385.842 49.294C360.979 80.3852 334.888 110.147 307.413 136.896C297.159 146.879 285.39 158.723 275.039 166.257C244.117 188.763 213.329 200.976 186.223 212.701C154.219 226.545 120.945 243.161 104.5 230.306C88.1993 217.565 78.1197 198.883 80.0908 167.15Z" fill="#FDA880"/>
</g>
<g opacity="0.3" filter="url(#filter1_f_4024_204)">
<path d="M963.517 -74.1415C859.063 115.971 752.613 195.563 750.109 192.788C747.604 190.013 698.889 164.517 814.247 14.3214C929.605 -135.874 1252.28 -436.056 1254.79 -433.281C1257.29 -430.506 1078.87 -224.337 963.517 -74.1415Z" fill="url(#paint1_radial_4024_204)"/>
</g>
<g filter="url(#filter2_f_4024_204)">
<path d="M307.839 734.019C203.386 924.131 96.9348 1003.72 94.4308 1000.95C91.9268 998.173 43.2115 972.677 158.569 822.482C273.927 672.286 596.604 372.104 599.108 374.879C601.612 377.654 423.197 583.823 307.839 734.019Z" fill="url(#paint2_radial_4024_204)"/>
</g>
<g filter="url(#filter3_f_4024_204)">
<path d="M-304.08 694.019C-408.533 884.131 -514.984 963.723 -517.488 960.948C-519.992 958.173 -568.707 932.677 -453.35 782.482C-337.992 632.286 -15.3152 332.104 -12.8111 334.879C-10.3071 337.654 -188.722 543.823 -304.08 694.019Z" fill="url(#paint3_radial_4024_204)"/>
</g>
<g opacity="0.4" filter="url(#filter4_f_4024_204)">
<path d="M1182.04 -127.106C1057.3 44.7521 943.277 106.256 941.128 103.077C938.98 99.8973 893.904 66.4036 1024.81 -63.9019C1155.71 -194.207 1508.1 -439.295 1510.25 -436.115C1512.4 -432.936 1312.94 -257.412 1182.04 -127.106Z" fill="url(#paint4_radial_4024_204)"/>
</g>
<g filter="url(#filter5_f_4024_204)">
<path d="M526.36 681.054C401.623 852.912 287.6 914.416 285.451 911.237C283.302 908.057 238.226 874.564 369.128 744.258C500.029 613.953 852.421 368.865 854.57 372.045C856.719 375.224 657.262 550.749 526.36 681.054Z" fill="url(#paint5_radial_4024_204)"/>
</g>
<g opacity="0.5" filter="url(#filter6_f_4024_204)">
<path d="M-100.807 671.55C-225.544 843.408 -339.567 904.912 -341.716 901.733C-343.865 898.554 -388.941 865.06 -258.039 734.754C-127.138 604.449 225.254 359.362 227.403 362.541C229.552 365.72 30.0949 541.245 -100.807 671.55Z" fill="url(#paint6_radial_4024_204)"/>
</g>
<g filter="url(#filter7_f_4024_204)">
<path d="M1240.37 333.859C1112.68 473.071 1021.71 550.425 1021.17 549.618C1020.62 548.811 1000.24 549.214 1120.75 429.247C1241.27 309.28 1537.22 41.5008 1537.77 42.3076C1538.31 43.1145 1360.88 213.892 1240.37 333.859Z" fill="url(#paint7_radial_4024_204)"/>
</g>
<g opacity="0.4" filter="url(#filter8_f_4024_204)">
<path d="M1240.37 363.859C1112.68 503.071 1021.71 580.425 1021.17 579.618C1020.62 578.811 1000.24 579.214 1120.75 459.247C1241.27 339.28 1537.22 71.5008 1537.77 72.3076C1538.31 73.1145 1360.88 243.892 1240.37 363.859Z" fill="url(#paint8_radial_4024_204)"/>
</g>
<g opacity="0.3" filter="url(#filter9_f_4024_204)">
<path d="M491.123 -42.4835C374.347 92.6348 282.998 163.983 281.976 162.96C280.953 161.938 254.153 158.598 368.639 44.112C483.125 -70.3743 774.3 -320.896 775.323 -319.873C776.346 -318.851 605.61 -156.97 491.123 -42.4835Z" fill="url(#paint9_radial_4024_204)"/>
</g>
<g opacity="0.5" filter="url(#filter10_f_4024_204)">
<path d="M274.953 -65.0461C154.971 69.6467 64.7041 143.873 63.8839 143.052C63.0636 142.232 39.1173 142.006 154.867 26.2558C270.617 -89.4942 560.758 -347.03 561.578 -346.209C562.398 -345.389 390.703 -180.796 274.953 -65.0461Z" fill="url(#paint10_radial_4024_204)"/>
</g>
<mask id="mask0_4024_204" style="mask-type:alpha" maskUnits="userSpaceOnUse" x="0" y="0" width="1200" height="630">
<rect width="1200" height="630" fill="url(#paint11_radial_4024_204)"/>
<rect width="1200" height="630" fill="url(#paint12_radial_4024_204)"/>
<rect width="1200" height="630" fill="url(#paint13_radial_4024_204)"/>
<rect width="1200" height="630" fill="url(#paint14_radial_4024_204)"/>
<rect width="1200" height="630" fill="url(#paint15_radial_4024_204)"/>
</mask>
<g mask="url(#mask0_4024_204)">
<rect x="-27.5" y="-27.5" width="57" height="57" stroke="white" stroke-opacity="0.06"/>
<rect x="29.5" y="-27.5" width="57" height="57" stroke="white" stroke-opacity="0.06"/>
<rect x="86.5" y="-27.5" width="57" height="57" stroke="white" stroke-opacity="0.06"/>
<rect x="143.5" y="-27.5" width="57" height="57" stroke="white" stroke-opacity="0.06"/>
<rect x="200.5" y="-27.5" width="57" height="57" stroke="white" stroke-opacity="0.06"/>
<rect x="257.5" y="-27.5" width="57" height="57" stroke="white" stroke-opacity="0.06"/>
<rect x="314.5" y="-27.5" width="57" height="57" stroke="white" stroke-opacity="0.06"/>
<rect x="371.5" y="-27.5" width="57" height="57" stroke="white" stroke-opacity="0.06"/>
<rect x="428.5" y="-27.5" width="57" height="57" stroke="white" stroke-opacity="0.06"/>
<rect x="485.5" y="-27.5" width="57" height="57" stroke="white" stroke-opacity="0.06"/>
<rect x="543" y="-27" width="56" height="56" fill="white" fill-opacity="0.03"/>
<rect x="542.5" y="-27.5" width="57" height="57" stroke="white" stroke-opacity="0.06"/>
<rect x="599.5" y="-27.5" width="57" height="57" stroke="white" stroke-opacity="0.06"/>
<rect x="656.5" y="-27.5" width="57" height="57" stroke="white" stroke-opacity="0.06"/>
<rect x="713.5" y="-27.5" width="57" height="57" stroke="white" stroke-opacity="0.06"/>
<rect x="771" y="-27" width="56" height="56" fill="white" fill-opacity="0.03"/>
<rect x="770.5" y="-27.5" width="57" height="57" stroke="white" stroke-opacity="0.06"/>
<rect x="827.5" y="-27.5" width="57" height="57" stroke="white" stroke-opacity="0.06"/>
<rect x="884.5" y="-27.5" width="57" height="57" stroke="white" stroke-opacity="0.06"/>
<rect x="941.5" y="-27.5" width="57" height="57" stroke="white" stroke-opacity="0.06"/>
<rect x="998.5" y="-27.5" width="57" height="57" stroke="white" stroke-opacity="0.06"/>
<rect x="1055.5" y="-27.5" width="57" height="57" stroke="white" stroke-opacity="0.06"/>
<rect x="1112.5" y="-27.5" width="57" height="57" stroke="white" stroke-opacity="0.06"/>
<rect x="1169.5" y="-27.5" width="57" height="57" stroke="white" stroke-opacity="0.06"/>
<rect x="-27.5" y="29.5" width="57" height="57" stroke="white" stroke-opacity="0.06"/>
<rect x="29.5" y="29.5" width="57" height="57" stroke="white" stroke-opacity="0.06"/>
<rect x="87" y="30" width="56" height="56" fill="white" fill-opacity="0.1"/>
<rect x="86.5" y="29.5" width="57" height="57" stroke="white" stroke-opacity="0.06"/>
<rect x="143.5" y="29.5" width="57" height="57" stroke="white" stroke-opacity="0.06"/>
<rect x="200.5" y="29.5" width="57" height="57" stroke="white" stroke-opacity="0.06"/>
<rect x="257.5" y="29.5" width="57" height="57" stroke="white" stroke-opacity="0.06"/>
<rect x="314.5" y="29.5" width="57" height="57" stroke="white" stroke-opacity="0.06"/>
<rect x="371.5" y="29.5" width="57" height="57" stroke="white" stroke-opacity="0.06"/>
<rect x="429" y="30" width="56" height="56" fill="white" fill-opacity="0.03"/>
<rect x="428.5" y="29.5" width="57" height="57" stroke="white" stroke-opacity="0.06"/>
<rect x="485.5" y="29.5" width="57" height="57" stroke="white" stroke-opacity="0.06"/>
<rect x="542.5" y="29.5" width="57" height="57" stroke="white" stroke-opacity="0.06"/>
<rect x="599.5" y="29.5" width="57" height="57" stroke="white" stroke-opacity="0.06"/>
<rect x="656.5" y="29.5" width="57" height="57" stroke="white" stroke-opacity="0.06"/>
<rect x="714" y="30" width="56" height="56" fill="white" fill-opacity="0.03"/>
<rect x="713.5" y="29.5" width="57" height="57" stroke="white" stroke-opacity="0.06"/>
<rect x="770.5" y="29.5" width="57" height="57" stroke="white" stroke-opacity="0.06"/>
<rect x="827.5" y="29.5" width="57" height="57" stroke="white" stroke-opacity="0.06"/>
<rect x="885" y="30" width="56" height="56" fill="white" fill-opacity="0.03"/>
<rect x="884.5" y="29.5" width="57" height="57" stroke="white" stroke-opacity="0.06"/>
<rect x="941.5" y="29.5" width="57" height="57" stroke="white" stroke-opacity="0.06"/>
<rect x="998.5" y="29.5" width="57" height="57" stroke="white" stroke-opacity="0.06"/>
<rect x="1055.5" y="29.5" width="57" height="57" stroke="white" stroke-opacity="0.06"/>
<rect x="1113" y="30" width="56" height="56" fill="white" fill-opacity="0.1"/>
<rect x="1112.5" y="29.5" width="57" height="57" stroke="white" stroke-opacity="0.06"/>
<rect x="1169.5" y="29.5" width="57" height="57" stroke="white" stroke-opacity="0.06"/>
<rect x="-27" y="87" width="56" height="56" fill="white" fill-opacity="0.07"/>
<rect x="-27.5" y="86.5" width="57" height="57" stroke="white" stroke-opacity="0.06"/>
<rect x="29.5" y="86.5" width="57" height="57" stroke="white" stroke-opacity="0.06"/>
<rect x="86.5" y="86.5" width="57" height="57" stroke="white" stroke-opacity="0.06"/>
<rect x="143.5" y="86.5" width="57" height="57" stroke="white" stroke-opacity="0.06"/>
<rect x="200.5" y="86.5" width="57" height="57" stroke="white" stroke-opacity="0.06"/>
<rect x="258" y="87" width="56" height="56" fill="white" fill-opacity="0.05"/>
<rect x="257.5" y="86.5" width="57" height="57" stroke="white" stroke-opacity="0.06"/>
<rect x="314.5" y="86.5" width="57" height="57" stroke="white" stroke-opacity="0.06"/>
<rect x="372" y="87" width="56" height="56" fill="white" fill-opacity="0.03"/>
<rect x="371.5" y="86.5" width="57" height="57" stroke="white" stroke-opacity="0.06"/>
<rect x="428.5" y="86.5" width="57" height="57" stroke="white" stroke-opacity="0.06"/>
<rect x="485.5" y="86.5" width="57" height="57" stroke="white" stroke-opacity="0.06"/>
<rect x="542.5" y="86.5" width="57" height="57" stroke="white" stroke-opacity="0.06"/>
<rect x="599.5" y="86.5" width="57" height="57" stroke="white" stroke-opacity="0.06"/>
<rect x="657" y="87" width="56" height="56" fill="white" fill-opacity="0.03"/>
<rect x="656.5" y="86.5" width="57" height="57" stroke="white" stroke-opacity="0.06"/>
<rect x="713.5" y="86.5" width="57" height="57" stroke="white" stroke-opacity="0.06"/>
<rect x="770.5" y="86.5" width="57" height="57" stroke="white" stroke-opacity="0.06"/>
<rect x="827.5" y="86.5" width="57" height="57" stroke="white" stroke-opacity="0.06"/>
<rect x="884.5" y="86.5" width="57" height="57" stroke="white" stroke-opacity="0.06"/>
<rect x="941.5" y="86.5" width="57" height="57" stroke="white" stroke-opacity="0.06"/>
<rect x="998.5" y="86.5" width="57" height="57" stroke="white" stroke-opacity="0.06"/>
<rect x="1055.5" y="86.5" width="57" height="57" stroke="white" stroke-opacity="0.06"/>
<rect x="1112.5" y="86.5" width="57" height="57" stroke="white" stroke-opacity="0.06"/>
<rect x="1169.5" y="86.5" width="57" height="57" stroke="white" stroke-opacity="0.06"/>
<rect x="-27.5" y="143.5" width="57" height="57" stroke="white" stroke-opacity="0.06"/>
<rect x="29.5" y="143.5" width="57" height="57" stroke="white" stroke-opacity="0.06"/>
<rect x="87" y="144" width="56" height="56" fill="white" fill-opacity="0.1"/>
<rect x="86.5" y="143.5" width="57" height="57" stroke="white" stroke-opacity="0.06"/>
<rect x="143.5" y="143.5" width="57" height="57" stroke="white" stroke-opacity="0.06"/>
<rect x="200.5" y="143.5" width="57" height="57" stroke="white" stroke-opacity="0.06"/>
<rect x="257.5" y="143.5" width="57" height="57" stroke="white" stroke-opacity="0.06"/>
<rect x="314.5" y="143.5" width="57" height="57" stroke="white" stroke-opacity="0.06"/>
<rect x="371.5" y="143.5" width="57" height="57" stroke="white" stroke-opacity="0.06"/>
<rect x="429" y="144" width="56" height="56" fill="white" fill-opacity="0.03"/>
<rect x="428.5" y="143.5" width="57" height="57" stroke="white" stroke-opacity="0.06"/>
<rect x="485.5" y="143.5" width="57" height="57" stroke="white" stroke-opacity="0.06"/>
<rect x="542.5" y="143.5" width="57" height="57" stroke="white" stroke-opacity="0.06"/>
<rect x="599.5" y="143.5" width="57" height="57" stroke="white" stroke-opacity="0.06"/>
<rect x="656.5" y="143.5" width="57" height="57" stroke="white" stroke-opacity="0.06"/>
<rect x="714" y="144" width="56" height="56" fill="white" fill-opacity="0.03"/>
<rect x="713.5" y="143.5" width="57" height="57" stroke="white" stroke-opacity="0.06"/>
<rect x="770.5" y="143.5" width="57" height="57" stroke="white" stroke-opacity="0.06"/>
<rect x="827.5" y="143.5" width="57" height="57" stroke="white" stroke-opacity="0.06"/>
<rect x="885" y="144" width="56" height="56" fill="white" fill-opacity="0.03"/>
<rect x="884.5" y="143.5" width="57" height="57" stroke="white" stroke-opacity="0.06"/>
<rect x="941.5" y="143.5" width="57" height="57" stroke="white" stroke-opacity="0.06"/>
<rect x="998.5" y="143.5" width="57" height="57" stroke="white" stroke-opacity="0.06"/>
<rect x="1055.5" y="143.5" width="57" height="57" stroke="white" stroke-opacity="0.06"/>
<rect x="1113" y="144" width="56" height="56" fill="white" fill-opacity="0.1"/>
<rect x="1112.5" y="143.5" width="57" height="57" stroke="white" stroke-opacity="0.06"/>
<rect x="1169.5" y="143.5" width="57" height="57" stroke="white" stroke-opacity="0.06"/>
<rect x="-27.5" y="200.5" width="57" height="57" stroke="white" stroke-opacity="0.06"/>
<rect x="29.5" y="200.5" width="57" height="57" stroke="white" stroke-opacity="0.06"/>
<rect x="87" y="201" width="56" height="56" fill="white" fill-opacity="0.1"/>
<rect x="86.5" y="200.5" width="57" height="57" stroke="white" stroke-opacity="0.06"/>
<rect x="143.5" y="200.5" width="57" height="57" stroke="white" stroke-opacity="0.06"/>
<rect x="200.5" y="200.5" width="57" height="57" stroke="white" stroke-opacity="0.06"/>
<rect x="257.5" y="200.5" width="57" height="57" stroke="white" stroke-opacity="0.06"/>
<rect x="314.5" y="200.5" width="57" height="57" stroke="white" stroke-opacity="0.06"/>
<rect x="371.5" y="200.5" width="57" height="57" stroke="white" stroke-opacity="0.06"/>
<rect x="429" y="201" width="56" height="56" fill="white" fill-opacity="0.03"/>
<rect x="428.5" y="200.5" width="57" height="57" stroke="white" stroke-opacity="0.06"/>
<rect x="485.5" y="200.5" width="57" height="57" stroke="white" stroke-opacity="0.06"/>
<rect x="542.5" y="200.5" width="57" height="57" stroke="white" stroke-opacity="0.06"/>
<rect x="599.5" y="200.5" width="57" height="57" stroke="white" stroke-opacity="0.06"/>
<rect x="656.5" y="200.5" width="57" height="57" stroke="white" stroke-opacity="0.06"/>
<rect x="714" y="201" width="56" height="56" fill="white" fill-opacity="0.03"/>
<rect x="713.5" y="200.5" width="57" height="57" stroke="white" stroke-opacity="0.06"/>
<rect x="770.5" y="200.5" width="57" height="57" stroke="white" stroke-opacity="0.06"/>
<rect x="827.5" y="200.5" width="57" height="57" stroke="white" stroke-opacity="0.06"/>
<rect x="885" y="201" width="56" height="56" fill="white" fill-opacity="0.07"/>
<rect x="884.5" y="200.5" width="57" height="57" stroke="white" stroke-opacity="0.06"/>
<rect x="941.5" y="200.5" width="57" height="57" stroke="white" stroke-opacity="0.06"/>
<rect x="998.5" y="200.5" width="57" height="57" stroke="white" stroke-opacity="0.06"/>
<rect x="1055.5" y="200.5" width="57" height="57" stroke="white" stroke-opacity="0.06"/>
<rect x="1112.5" y="200.5" width="57" height="57" stroke="white" stroke-opacity="0.06"/>
<rect x="1169.5" y="200.5" width="57" height="57" stroke="white" stroke-opacity="0.06"/>
<rect x="-27.5" y="257.5" width="57" height="57" stroke="white" stroke-opacity="0.06"/>
<rect x="29.5" y="257.5" width="57" height="57" stroke="white" stroke-opacity="0.06"/>
<rect x="86.5" y="257.5" width="57" height="57" stroke="white" stroke-opacity="0.06"/>
<rect x="143.5" y="257.5" width="57" height="57" stroke="white" stroke-opacity="0.06"/>
<rect x="200.5" y="257.5" width="57" height="57" stroke="white" stroke-opacity="0.06"/>
<rect x="257.5" y="257.5" width="57" height="57" stroke="white" stroke-opacity="0.06"/>
<rect x="314.5" y="257.5" width="57" height="57" stroke="white" stroke-opacity="0.06"/>
<rect x="371.5" y="257.5" width="57" height="57" stroke="white" stroke-opacity="0.06"/>
<rect x="428.5" y="257.5" width="57" height="57" stroke="white" stroke-opacity="0.06"/>
<rect x="485.5" y="257.5" width="57" height="57" stroke="white" stroke-opacity="0.06"/>
<rect x="543" y="258" width="56" height="56" fill="white" fill-opacity="0.03"/>
<rect x="542.5" y="257.5" width="57" height="57" stroke="white" stroke-opacity="0.06"/>
<rect x="599.5" y="257.5" width="57" height="57" stroke="white" stroke-opacity="0.06"/>
<rect x="656.5" y="257.5" width="57" height="57" stroke="white" stroke-opacity="0.06"/>
<rect x="713.5" y="257.5" width="57" height="57" stroke="white" stroke-opacity="0.06"/>
<rect x="771" y="258" width="56" height="56" fill="white" fill-opacity="0.03"/>
<rect x="770.5" y="257.5" width="57" height="57" stroke="white" stroke-opacity="0.06"/>
<rect x="827.5" y="257.5" width="57" height="57" stroke="white" stroke-opacity="0.06"/>
<rect x="884.5" y="257.5" width="57" height="57" stroke="white" stroke-opacity="0.06"/>
<rect x="941.5" y="257.5" width="57" height="57" stroke="white" stroke-opacity="0.06"/>
<rect x="998.5" y="257.5" width="57" height="57" stroke="white" stroke-opacity="0.06"/>
<rect x="1055.5" y="257.5" width="57" height="57" stroke="white" stroke-opacity="0.06"/>
<rect x="1112.5" y="257.5" width="57" height="57" stroke="white" stroke-opacity="0.06"/>
<rect x="1169.5" y="257.5" width="57" height="57" stroke="white" stroke-opacity="0.06"/>
<rect x="-27.5" y="314.5" width="57" height="57" stroke="white" stroke-opacity="0.06"/>
<rect x="29.5" y="314.5" width="57" height="57" stroke="white" stroke-opacity="0.06"/>
<rect x="87" y="315" width="56" height="56" fill="white" fill-opacity="0.1"/>
<rect x="86.5" y="314.5" width="57" height="57" stroke="white" stroke-opacity="0.06"/>
<rect x="143.5" y="314.5" width="57" height="57" stroke="white" stroke-opacity="0.06"/>
<rect x="200.5" y="314.5" width="57" height="57" stroke="white" stroke-opacity="0.06"/>
<rect x="257.5" y="314.5" width="57" height="57" stroke="white" stroke-opacity="0.06"/>
<rect x="314.5" y="314.5" width="57" height="57" stroke="white" stroke-opacity="0.06"/>
<rect x="371.5" y="314.5" width="57" height="57" stroke="white" stroke-opacity="0.06"/>
<rect x="429" y="315" width="56" height="56" fill="white" fill-opacity="0.03"/>
<rect x="428.5" y="314.5" width="57" height="57" stroke="white" stroke-opacity="0.06"/>
<rect x="485.5" y="314.5" width="57" height="57" stroke="white" stroke-opacity="0.06"/>
<rect x="542.5" y="314.5" width="57" height="57" stroke="white" stroke-opacity="0.06"/>
<rect x="599.5" y="314.5" width="57" height="57" stroke="white" stroke-opacity="0.06"/>
<rect x="656.5" y="314.5" width="57" height="57" stroke="white" stroke-opacity="0.06"/>
<rect x="714" y="315" width="56" height="56" fill="white" fill-opacity="0.03"/>
<rect x="713.5" y="314.5" width="57" height="57" stroke="white" stroke-opacity="0.06"/>
<rect x="770.5" y="314.5" width="57" height="57" stroke="white" stroke-opacity="0.06"/>
<rect x="827.5" y="314.5" width="57" height="57" stroke="white" stroke-opacity="0.06"/>
<rect x="885" y="315" width="56" height="56" fill="white" fill-opacity="0.07"/>
<rect x="884.5" y="314.5" width="57" height="57" stroke="white" stroke-opacity="0.06"/>
<rect x="941.5" y="314.5" width="57" height="57" stroke="white" stroke-opacity="0.06"/>
<rect x="998.5" y="314.5" width="57" height="57" stroke="white" stroke-opacity="0.06"/>
<rect x="1055.5" y="314.5" width="57" height="57" stroke="white" stroke-opacity="0.06"/>
<rect x="1113" y="315" width="56" height="56" fill="white" fill-opacity="0.1"/>
<rect x="1112.5" y="314.5" width="57" height="57" stroke="white" stroke-opacity="0.06"/>
<rect x="1169.5" y="314.5" width="57" height="57" stroke="white" stroke-opacity="0.06"/>
<rect x="-27" y="372" width="56" height="56" fill="white" fill-opacity="0.07"/>
<rect x="-27.5" y="371.5" width="57" height="57" stroke="white" stroke-opacity="0.06"/>
<rect x="29.5" y="371.5" width="57" height="57" stroke="white" stroke-opacity="0.06"/>
<rect x="86.5" y="371.5" width="57" height="57" stroke="white" stroke-opacity="0.06"/>
<rect x="143.5" y="371.5" width="57" height="57" stroke="white" stroke-opacity="0.06"/>
<rect x="200.5" y="371.5" width="57" height="57" stroke="white" stroke-opacity="0.06"/>
<rect x="258" y="372" width="56" height="56" fill="white" fill-opacity="0.1"/>
<rect x="257.5" y="371.5" width="57" height="57" stroke="white" stroke-opacity="0.06"/>
<rect x="314.5" y="371.5" width="57" height="57" stroke="white" stroke-opacity="0.06"/>
<rect x="372" y="372" width="56" height="56" fill="white" fill-opacity="0.03"/>
<rect x="371.5" y="371.5" width="57" height="57" stroke="white" stroke-opacity="0.06"/>
<rect x="428.5" y="371.5" width="57" height="57" stroke="white" stroke-opacity="0.06"/>
<rect x="485.5" y="371.5" width="57" height="57" stroke="white" stroke-opacity="0.06"/>
<rect x="542.5" y="371.5" width="57" height="57" stroke="white" stroke-opacity="0.06"/>
<rect x="599.5" y="371.5" width="57" height="57" stroke="white" stroke-opacity="0.06"/>
<rect x="657" y="372" width="56" height="56" fill="white" fill-opacity="0.03"/>
<rect x="656.5" y="371.5" width="57" height="57" stroke="white" stroke-opacity="0.06"/>
<rect x="713.5" y="371.5" width="57" height="57" stroke="white" stroke-opacity="0.06"/>
<rect x="770.5" y="371.5" width="57" height="57" stroke="white" stroke-opacity="0.06"/>
<rect x="827.5" y="371.5" width="57" height="57" stroke="white" stroke-opacity="0.06"/>
<rect x="884.5" y="371.5" width="57" height="57" stroke="white" stroke-opacity="0.06"/>
<rect x="941.5" y="371.5" width="57" height="57" stroke="white" stroke-opacity="0.06"/>
<rect x="999" y="372" width="56" height="56" fill="white" fill-opacity="0.07"/>
<rect x="998.5" y="371.5" width="57" height="57" stroke="white" stroke-opacity="0.06"/>
<rect x="1055.5" y="371.5" width="57" height="57" stroke="white" stroke-opacity="0.06"/>
<rect x="1112.5" y="371.5" width="57" height="57" stroke="white" stroke-opacity="0.06"/>
<rect x="1169.5" y="371.5" width="57" height="57" stroke="white" stroke-opacity="0.06"/>
<rect x="-27.5" y="428.5" width="57" height="57" stroke="white" stroke-opacity="0.06"/>
<rect x="29.5" y="428.5" width="57" height="57" stroke="white" stroke-opacity="0.06"/>
<rect x="86.5" y="428.5" width="57" height="57" stroke="white" stroke-opacity="0.06"/>
<rect x="143.5" y="428.5" width="57" height="57" stroke="white" stroke-opacity="0.06"/>
<rect x="200.5" y="428.5" width="57" height="57" stroke="white" stroke-opacity="0.06"/>
<rect x="257.5" y="428.5" width="57" height="57" stroke="white" stroke-opacity="0.06"/>
<rect x="314.5" y="428.5" width="57" height="57" stroke="white" stroke-opacity="0.06"/>
<rect x="371.5" y="428.5" width="57" height="57" stroke="white" stroke-opacity="0.06"/>
<rect x="428.5" y="428.5" width="57" height="57" stroke="white" stroke-opacity="0.06"/>
<rect x="485.5" y="428.5" width="57" height="57" stroke="white" stroke-opacity="0.06"/>
<rect x="543" y="429" width="56" height="56" fill="white" fill-opacity="0.03"/>
<rect x="542.5" y="428.5" width="57" height="57" stroke="white" stroke-opacity="0.06"/>
<rect x="599.5" y="428.5" width="57" height="57" stroke="white" stroke-opacity="0.06"/>
<rect x="656.5" y="428.5" width="57" height="57" stroke="white" stroke-opacity="0.06"/>
<rect x="713.5" y="428.5" width="57" height="57" stroke="white" stroke-opacity="0.06"/>
<rect x="771" y="429" width="56" height="56" fill="white" fill-opacity="0.03"/>
<rect x="770.5" y="428.5" width="57" height="57" stroke="white" stroke-opacity="0.06"/>
<rect x="827.5" y="428.5" width="57" height="57" stroke="white" stroke-opacity="0.06"/>
<rect x="884.5" y="428.5" width="57" height="57" stroke="white" stroke-opacity="0.06"/>
<rect x="941.5" y="428.5" width="57" height="57" stroke="white" stroke-opacity="0.06"/>
<rect x="998.5" y="428.5" width="57" height="57" stroke="white" stroke-opacity="0.06"/>
<rect x="1055.5" y="428.5" width="57" height="57" stroke="white" stroke-opacity="0.06"/>
<rect x="1112.5" y="428.5" width="57" height="57" stroke="white" stroke-opacity="0.06"/>
<rect x="1169.5" y="428.5" width="57" height="57" stroke="white" stroke-opacity="0.06"/>
<rect x="-27" y="486" width="56" height="56" fill="white" fill-opacity="0.07"/>
<rect x="-27.5" y="485.5" width="57" height="57" stroke="white" stroke-opacity="0.06"/>
<rect x="29.5" y="485.5" width="57" height="57" stroke="white" stroke-opacity="0.06"/>
<rect x="86.5" y="485.5" width="57" height="57" stroke="white" stroke-opacity="0.06"/>
<rect x="143.5" y="485.5" width="57" height="57" stroke="white" stroke-opacity="0.06"/>
<rect x="200.5" y="485.5" width="57" height="57" stroke="white" stroke-opacity="0.06"/>
<rect x="258" y="486" width="56" height="56" fill="white" fill-opacity="0.1"/>
<rect x="257.5" y="485.5" width="57" height="57" stroke="white" stroke-opacity="0.06"/>
<rect x="314.5" y="485.5" width="57" height="57" stroke="white" stroke-opacity="0.06"/>
<rect x="372" y="486" width="56" height="56" fill="white" fill-opacity="0.03"/>
<rect x="371.5" y="485.5" width="57" height="57" stroke="white" stroke-opacity="0.06"/>
<rect x="428.5" y="485.5" width="57" height="57" stroke="white" stroke-opacity="0.06"/>
<rect x="485.5" y="485.5" width="57" height="57" stroke="white" stroke-opacity="0.06"/>
<rect x="542.5" y="485.5" width="57" height="57" stroke="white" stroke-opacity="0.06"/>
<rect x="599.5" y="485.5" width="57" height="57" stroke="white" stroke-opacity="0.06"/>
<rect x="657" y="486" width="56" height="56" fill="white" fill-opacity="0.03"/>
<rect x="656.5" y="485.5" width="57" height="57" stroke="white" stroke-opacity="0.06"/>
<rect x="713.5" y="485.5" width="57" height="57" stroke="white" stroke-opacity="0.06"/>
<rect x="770.5" y="485.5" width="57" height="57" stroke="white" stroke-opacity="0.06"/>
<rect x="827.5" y="485.5" width="57" height="57" stroke="white" stroke-opacity="0.06"/>
<rect x="884.5" y="485.5" width="57" height="57" stroke="white" stroke-opacity="0.06"/>
<rect x="941.5" y="485.5" width="57" height="57" stroke="white" stroke-opacity="0.06"/>
<rect x="999" y="486" width="56" height="56" fill="white" fill-opacity="0.07"/>
<rect x="998.5" y="485.5" width="57" height="57" stroke="white" stroke-opacity="0.06"/>
<rect x="1055.5" y="485.5" width="57" height="57" stroke="white" stroke-opacity="0.06"/>
<rect x="1112.5" y="485.5" width="57" height="57" stroke="white" stroke-opacity="0.06"/>
<rect x="1169.5" y="485.5" width="57" height="57" stroke="white" stroke-opacity="0.06"/>
<rect x="-27.5" y="542.5" width="57" height="57" stroke="white" stroke-opacity="0.06"/>
<rect x="29.5" y="542.5" width="57" height="57" stroke="white" stroke-opacity="0.06"/>
<rect x="86.5" y="542.5" width="57" height="57" stroke="white" stroke-opacity="0.06"/>
<rect x="143.5" y="542.5" width="57" height="57" stroke="white" stroke-opacity="0.06"/>
<rect x="200.5" y="542.5" width="57" height="57" stroke="white" stroke-opacity="0.06"/>
<rect x="257.5" y="542.5" width="57" height="57" stroke="white" stroke-opacity="0.06"/>
<rect x="314.5" y="542.5" width="57" height="57" stroke="white" stroke-opacity="0.06"/>
<rect x="371.5" y="542.5" width="57" height="57" stroke="white" stroke-opacity="0.06"/>
<rect x="428.5" y="542.5" width="57" height="57" stroke="white" stroke-opacity="0.06"/>
<rect x="485.5" y="542.5" width="57" height="57" stroke="white" stroke-opacity="0.06"/>
<rect x="543" y="543" width="56" height="56" fill="white" fill-opacity="0.03"/>
<rect x="542.5" y="542.5" width="57" height="57" stroke="white" stroke-opacity="0.06"/>
<rect x="599.5" y="542.5" width="57" height="57" stroke="white" stroke-opacity="0.06"/>
<rect x="656.5" y="542.5" width="57" height="57" stroke="white" stroke-opacity="0.06"/>
<rect x="713.5" y="542.5" width="57" height="57" stroke="white" stroke-opacity="0.06"/>
<rect x="771" y="543" width="56" height="56" fill="white" fill-opacity="0.03"/>
<rect x="770.5" y="542.5" width="57" height="57" stroke="white" stroke-opacity="0.06"/>
<rect x="827.5" y="542.5" width="57" height="57" stroke="white" stroke-opacity="0.06"/>
<rect x="884.5" y="542.5" width="57" height="57" stroke="white" stroke-opacity="0.06"/>
<rect x="941.5" y="542.5" width="57" height="57" stroke="white" stroke-opacity="0.06"/>
<rect x="998.5" y="542.5" width="57" height="57" stroke="white" stroke-opacity="0.06"/>
<rect x="1055.5" y="542.5" width="57" height="57" stroke="white" stroke-opacity="0.06"/>
<rect x="1112.5" y="542.5" width="57" height="57" stroke="white" stroke-opacity="0.06"/>
<rect x="1169.5" y="542.5" width="57" height="57" stroke="white" stroke-opacity="0.06"/>
<rect x="-27.5" y="599.5" width="57" height="57" stroke="white" stroke-opacity="0.06"/>
<rect x="29.5" y="599.5" width="57" height="57" stroke="white" stroke-opacity="0.06"/>
<rect x="87" y="600" width="56" height="56" fill="white" fill-opacity="0.1"/>
<rect x="86.5" y="599.5" width="57" height="57" stroke="white" stroke-opacity="0.06"/>
<rect x="143.5" y="599.5" width="57" height="57" stroke="white" stroke-opacity="0.06"/>
<rect x="200.5" y="599.5" width="57" height="57" stroke="white" stroke-opacity="0.06"/>
<rect x="257.5" y="599.5" width="57" height="57" stroke="white" stroke-opacity="0.06"/>
<rect x="314.5" y="599.5" width="57" height="57" stroke="white" stroke-opacity="0.06"/>
<rect x="371.5" y="599.5" width="57" height="57" stroke="white" stroke-opacity="0.06"/>
<rect x="429" y="600" width="56" height="56" fill="white" fill-opacity="0.03"/>
<rect x="428.5" y="599.5" width="57" height="57" stroke="white" stroke-opacity="0.06"/>
<rect x="485.5" y="599.5" width="57" height="57" stroke="white" stroke-opacity="0.06"/>
<rect x="542.5" y="599.5" width="57" height="57" stroke="white" stroke-opacity="0.06"/>
<rect x="599.5" y="599.5" width="57" height="57" stroke="white" stroke-opacity="0.06"/>
<rect x="656.5" y="599.5" width="57" height="57" stroke="white" stroke-opacity="0.06"/>
<rect x="714" y="600" width="56" height="56" fill="white" fill-opacity="0.03"/>
<rect x="713.5" y="599.5" width="57" height="57" stroke="white" stroke-opacity="0.06"/>
<rect x="770.5" y="599.5" width="57" height="57" stroke="white" stroke-opacity="0.06"/>
<rect x="827.5" y="599.5" width="57" height="57" stroke="white" stroke-opacity="0.06"/>
<rect x="885" y="600" width="56" height="56" fill="white" fill-opacity="0.07"/>
<rect x="884.5" y="599.5" width="57" height="57" stroke="white" stroke-opacity="0.06"/>
<rect x="941.5" y="599.5" width="57" height="57" stroke="white" stroke-opacity="0.06"/>
<rect x="998.5" y="599.5" width="57" height="57" stroke="white" stroke-opacity="0.06"/>
<rect x="1055.5" y="599.5" width="57" height="57" stroke="white" stroke-opacity="0.06"/>
<rect x="1113" y="600" width="56" height="56" fill="white" fill-opacity="0.1"/>
<rect x="1112.5" y="599.5" width="57" height="57" stroke="white" stroke-opacity="0.06"/>
<rect x="1169.5" y="599.5" width="57" height="57" stroke="white" stroke-opacity="0.06"/>
</g>
<rect x="432" y="145" width="340" height="340" rx="60" fill="white"/>
<rect x="432" y="145" width="340" height="340" rx="60" fill="url(#paint16_radial_4024_204)"/>
<rect x="432" y="145" width="340" height="340" rx="60" fill="url(#paint17_radial_4024_204)"/>
<path d="M591.882 331.099L540.477 234.855H563.97L594.208 295.763C594.673 296.848 595.216 297.972 595.836 299.134C596.457 300.297 596.999 301.498 597.465 302.737C597.775 303.202 598.007 303.629 598.162 304.016C598.317 304.404 598.473 304.752 598.628 305.062C599.403 306.612 600.101 308.123 600.721 309.595C601.341 311.068 601.884 312.424 602.349 313.664C603.59 311.029 604.947 308.201 606.42 305.178C607.893 302.156 609.405 299.018 610.956 295.763L641.659 234.855H663.524L611.653 332.261V394.332H591.882V331.099Z" fill="white"/>
<rect x="440" y="153" width="324" height="324" rx="52" stroke="white" stroke-opacity="0.3" stroke-width="16"/>
</g>
<defs>
<filter id="filter0_f_4024_204" x="-320.154" y="-640.449" width="1221.33" height="1275.38" filterUnits="userSpaceOnUse" color-interpolation-filters="sRGB">
<feFlood flood-opacity="0" result="BackgroundImageFix"/>
<feBlend mode="normal" in="SourceGraphic" in2="BackgroundImageFix" result="shape"/>
<feGaussianBlur stdDeviation="200" result="effect1_foregroundBlur_4024_204"/>
</filter>
<filter id="filter1_f_4024_204" x="615.796" y="-555.287" width="761.003" height="870.133" filterUnits="userSpaceOnUse" color-interpolation-filters="sRGB">
<feFlood flood-opacity="0" result="BackgroundImageFix"/>
<feBlend mode="normal" in="SourceGraphic" in2="BackgroundImageFix" result="shape"/>
<feGaussianBlur stdDeviation="60.9932" result="effect1_foregroundBlur_4024_204"/>
</filter>
<filter id="filter2_f_4024_204" x="-39.882" y="252.873" width="761.002" height="870.133" filterUnits="userSpaceOnUse" color-interpolation-filters="sRGB">
<feFlood flood-opacity="0" result="BackgroundImageFix"/>
<feBlend mode="normal" in="SourceGraphic" in2="BackgroundImageFix" result="shape"/>
<feGaussianBlur stdDeviation="60.9932" result="effect1_foregroundBlur_4024_204"/>
</filter>
<filter id="filter3_f_4024_204" x="-651.801" y="212.873" width="761.002" height="870.133" filterUnits="userSpaceOnUse" color-interpolation-filters="sRGB">
<feFlood flood-opacity="0" result="BackgroundImageFix"/>
<feBlend mode="normal" in="SourceGraphic" in2="BackgroundImageFix" result="shape"/>
<feGaussianBlur stdDeviation="60.9932" result="effect1_foregroundBlur_4024_204"/>
</filter>
<filter id="filter4_f_4024_204" x="809.933" y="-558.131" width="822.319" height="783.309" filterUnits="userSpaceOnUse" color-interpolation-filters="sRGB">
<feFlood flood-opacity="0" result="BackgroundImageFix"/>
<feBlend mode="normal" in="SourceGraphic" in2="BackgroundImageFix" result="shape"/>
<feGaussianBlur stdDeviation="60.9932" result="effect1_foregroundBlur_4024_204"/>
</filter>
<filter id="filter5_f_4024_204" x="154.256" y="250.029" width="822.319" height="783.309" filterUnits="userSpaceOnUse" color-interpolation-filters="sRGB">
<feFlood flood-opacity="0" result="BackgroundImageFix"/>
<feBlend mode="normal" in="SourceGraphic" in2="BackgroundImageFix" result="shape"/>
<feGaussianBlur stdDeviation="60.9932" result="effect1_foregroundBlur_4024_204"/>
</filter>
<filter id="filter6_f_4024_204" x="-472.911" y="240.525" width="822.319" height="783.309" filterUnits="userSpaceOnUse" color-interpolation-filters="sRGB">
<feFlood flood-opacity="0" result="BackgroundImageFix"/>
<feBlend mode="normal" in="SourceGraphic" in2="BackgroundImageFix" result="shape"/>
<feGaussianBlur stdDeviation="60.9932" result="effect1_foregroundBlur_4024_204"/>
</filter>
<filter id="filter7_f_4024_204" x="897.557" y="-79.6818" width="762.198" height="751.293" filterUnits="userSpaceOnUse" color-interpolation-filters="sRGB">
<feFlood flood-opacity="0" result="BackgroundImageFix"/>
<feBlend mode="normal" in="SourceGraphic" in2="BackgroundImageFix" result="shape"/>
<feGaussianBlur stdDeviation="60.9932" result="effect1_foregroundBlur_4024_204"/>
</filter>
<filter id="filter8_f_4024_204" x="897.557" y="-49.6818" width="762.198" height="751.293" filterUnits="userSpaceOnUse" color-interpolation-filters="sRGB">
<feFlood flood-opacity="0" result="BackgroundImageFix"/>
<feBlend mode="normal" in="SourceGraphic" in2="BackgroundImageFix" result="shape"/>
<feGaussianBlur stdDeviation="60.9932" result="effect1_foregroundBlur_4024_204"/>
</filter>
<filter id="filter9_f_4024_204" x="156.558" y="-441.861" width="740.756" height="726.821" filterUnits="userSpaceOnUse" color-interpolation-filters="sRGB">
<feFlood flood-opacity="0" result="BackgroundImageFix"/>
<feBlend mode="normal" in="SourceGraphic" in2="BackgroundImageFix" result="shape"/>
<feGaussianBlur stdDeviation="60.9932" result="effect1_foregroundBlur_4024_204"/>
</filter>
<filter id="filter10_f_4024_204" x="-60.6886" y="-468.197" width="744.256" height="733.242" filterUnits="userSpaceOnUse" color-interpolation-filters="sRGB">
<feFlood flood-opacity="0" result="BackgroundImageFix"/>
<feBlend mode="normal" in="SourceGraphic" in2="BackgroundImageFix" result="shape"/>
<feGaussianBlur stdDeviation="60.9932" result="effect1_foregroundBlur_4024_204"/>
</filter>
<linearGradient id="paint0_linear_4024_204" x1="600" y1="0" x2="600" y2="630" gradientUnits="userSpaceOnUse">
<stop/>
</linearGradient>
<radialGradient id="paint1_radial_4024_204" cx="0" cy="0" r="1" gradientUnits="userSpaceOnUse" gradientTransform="translate(818.248 81.0315) rotate(-49.4993) scale(329.873 329.873)">
<stop stop-color="#FDA880"/>
<stop offset="0.607381" stop-color="#FB651E"/>
<stop offset="1" stop-color="#FB651E"/>
</radialGradient>
<radialGradient id="paint2_radial_4024_204" cx="0" cy="0" r="1" gradientUnits="userSpaceOnUse" gradientTransform="translate(310.479 674.953) rotate(-42.0303) scale(301.767 301.767)">
<stop stop-color="#FB651E"/>
<stop offset="0.607381" stop-color="#FC7D41"/>
<stop offset="1" stop-color="#FC9767"/>
</radialGradient>
<radialGradient id="paint3_radial_4024_204" cx="0" cy="0" r="1" gradientUnits="userSpaceOnUse" gradientTransform="translate(-449.348 849.192) rotate(-29.5713) scale(312.069 312.069)">
<stop stop-color="#FB651E"/>
<stop offset="0.5625" stop-color="#FC7C3F"/>
<stop offset="1" stop-color="#FC9C6D"/>
</radialGradient>
<radialGradient id="paint4_radial_4024_204" cx="0" cy="0" r="1" gradientUnits="userSpaceOnUse" gradientTransform="translate(1179.23 -129.539) rotate(139.73) scale(124.035 56.5282)">
<stop stop-color="#FB651E"/>
<stop offset="1" stop-color="#FC793B"/>
</radialGradient>
<radialGradient id="paint5_radial_4024_204" cx="0" cy="0" r="1" gradientUnits="userSpaceOnUse" gradientTransform="translate(523.553 678.621) rotate(139.73) scale(124.035 56.5282)">
<stop stop-color="#FB651E"/>
<stop offset="1" stop-color="#FC793B"/>
</radialGradient>
<radialGradient id="paint6_radial_4024_204" cx="0" cy="0" r="1" gradientUnits="userSpaceOnUse" gradientTransform="translate(-103.614 669.117) rotate(139.73) scale(124.035 56.5282)">
<stop stop-color="#FB651E"/>
<stop offset="1" stop-color="#FC793B"/>
</radialGradient>
<radialGradient id="paint7_radial_4024_204" cx="0" cy="0" r="1" gradientUnits="userSpaceOnUse" gradientTransform="translate(1239.19 333.703) rotate(136.387) scale(115.121 14.2308)">
<stop stop-color="#FB651E"/>
<stop offset="1" stop-color="#FC793B"/>
</radialGradient>
<radialGradient id="paint8_radial_4024_204" cx="0" cy="0" r="1" gradientUnits="userSpaceOnUse" gradientTransform="translate(1239.19 363.703) rotate(136.387) scale(115.121 14.2308)">
<stop stop-color="#FB651E"/>
<stop offset="1" stop-color="#FC793B"/>
</radialGradient>
<radialGradient id="paint9_radial_4024_204" cx="0" cy="0" r="1" gradientUnits="userSpaceOnUse" gradientTransform="translate(489.51 -42.8807) rotate(136.986) scale(110.109 21.4198)">
<stop stop-color="#FB651E"/>
<stop offset="1" stop-color="#FC793B"/>
</radialGradient>
<radialGradient id="paint10_radial_4024_204" cx="0" cy="0" r="1" gradientUnits="userSpaceOnUse" gradientTransform="translate(273.532 -65.2376) rotate(136.576) scale(111.299 17.183)">
<stop stop-color="#FB651E"/>
<stop offset="1" stop-color="#FC793B"/>
</radialGradient>
<radialGradient id="paint11_radial_4024_204" cx="0" cy="0" r="1" gradientUnits="userSpaceOnUse" gradientTransform="translate(455 579) rotate(-29.0291) scale(218.442 114.682)">
<stop/>
<stop offset="1" stop-opacity="0"/>
</radialGradient>
<radialGradient id="paint12_radial_4024_204" cx="0" cy="0" r="1" gradientUnits="userSpaceOnUse" gradientTransform="translate(1098 471) rotate(-46.3705) scale(147.828 77.6095)">
<stop/>
<stop offset="1" stop-opacity="0"/>
</radialGradient>
<radialGradient id="paint13_radial_4024_204" cx="0" cy="0" r="1" gradientUnits="userSpaceOnUse" gradientTransform="translate(909 77) rotate(0.83435) scale(206.022 108.161)">
<stop/>
<stop offset="1" stop-opacity="0"/>
</radialGradient>
<radialGradient id="paint14_radial_4024_204" cx="0" cy="0" r="1" gradientUnits="userSpaceOnUse" gradientTransform="translate(109 526) rotate(33.3985) scale(109 57.225)">
<stop/>
<stop offset="1" stop-opacity="0"/>
</radialGradient>
<radialGradient id="paint15_radial_4024_204" cx="0" cy="0" r="1" gradientUnits="userSpaceOnUse" gradientTransform="translate(380 83) rotate(167.681) scale(178.101 93.5031)">
<stop/>
<stop offset="1" stop-opacity="0"/>
</radialGradient>
<radialGradient id="paint16_radial_4024_204" cx="0" cy="0" r="1" gradientUnits="userSpaceOnUse" gradientTransform="translate(432 485) rotate(-45) scale(480.833 691.305)">
<stop stop-color="#FB651E"/>
<stop offset="0.333333" stop-color="#FB651E"/>
<stop offset="0.666667" stop-color="#FB651E"/>
<stop offset="0.923809" stop-color="#FB651E"/>
</radialGradient>
<radialGradient id="paint17_radial_4024_204" cx="0" cy="0" r="1" gradientUnits="userSpaceOnUse" gradientTransform="translate(772 485) rotate(-135.242) scale(271.329)">
<stop stop-color="white" stop-opacity="0.24"/>
<stop offset="1" stop-color="white" stop-opacity="0"/>
</radialGradient>
<clipPath id="clip0_4024_204">
<rect width="1200" height="630" fill="white"/>
</clipPath>
</defs>
</svg>
