<svg width="240" height="240" viewBox="0 0 240 240" fill="none" xmlns="http://www.w3.org/2000/svg">
<mask id="mask0_1015_2177" style="mask-type:luminance" maskUnits="userSpaceOnUse" x="0" y="0" width="240" height="240">
<path d="M53.3333 0H186.667C216 0 240 24 240 53.3333V186.667C240 216 216 240 186.667 240H53.3333C24 240 0 216 0 186.667V53.3333C0 24 24 0 53.3333 0Z" fill="white"/>
</mask>
<g mask="url(#mask0_1015_2177)">
<path d="M53.3333 0H186.667C216 0 240 24 240 53.3333V186.667C240 216 216 240 186.667 240H53.3333C24 240 0 216 0 186.667V53.3333C0 24 24 0 53.3333 0Z" fill="white"/>
<path d="M53.3333 0H186.667C216 0 240 24 240 53.3333V186.667C240 216 216 240 186.667 240H53.3333C24 240 0 216 0 186.667V53.3333C0 24 24 0 53.3333 0Z" fill="white"/>
<g opacity="0.4">
<path d="M186.667 240H53.3333C24 240 0 216 0 186.667V53.3333C0 24 24 0 53.3333 0H186.667C216 0 240 24 240 53.3333V186.667C240 216 216 240 186.667 240ZM53.3333 6.85714C27.4286 6.85714 6.85714 27.4286 6.85714 53.3333V186.667C6.85714 212.571 27.8095 233.143 53.3333 233.143H186.667C212.571 233.143 233.143 212.19 233.143 186.667V53.3333C233.143 27.4286 212.19 6.85714 186.667 6.85714H53.3333Z" fill="url(#paint0_linear_1015_2177)"/>
</g>
<path d="M123.429 59.4286C123.429 57.5238 121.905 56 120 56C118.095 56 116.571 57.5238 116.571 59.4286V79.2381C116.571 81.1428 118.095 82.6667 120 82.6667C121.905 82.6667 123.429 81.1428 123.429 79.2381V59.4286Z" fill="white"/>
<path d="M123.429 59.4286C123.429 57.5238 121.905 56 120 56C118.095 56 116.571 57.5238 116.571 59.4286V79.2381C116.571 81.1428 118.095 82.6667 120 82.6667C121.905 82.6667 123.429 81.1428 123.429 79.2381V59.4286Z" fill="url(#paint1_linear_1015_2177)"/>
<path d="M72.381 115.048C73.1429 113.524 72.7619 111.619 71.2381 110.476L54.0952 100.571C52.5714 99.8095 50.6667 100.19 49.5238 101.714C48.7619 103.238 49.1429 105.143 50.6667 106.286L67.8095 116.19C69.3333 116.952 71.2381 116.571 72.381 115.048Z" fill="white"/>
<path d="M72.381 115.048C73.1429 113.524 72.7619 111.619 71.2381 110.476L54.0952 100.571C52.5714 99.8095 50.6667 100.19 49.5238 101.714C48.7619 103.238 49.1429 105.143 50.6667 106.286L67.8095 116.19C69.3333 116.952 71.2381 116.571 72.381 115.048Z" fill="url(#paint2_linear_1015_2177)"/>
<path d="M163.429 71.2381C164.19 69.7143 163.81 67.8095 162.286 66.6667C160.762 65.9048 158.857 66.2857 157.714 67.8095L147.81 84.9524C147.048 86.4762 147.429 88.381 148.952 89.5238C150.476 90.2857 152.381 89.9048 153.524 88.381L163.429 71.2381Z" fill="white"/>
<path d="M163.429 71.2381C164.19 69.7143 163.81 67.8095 162.286 66.6667C160.762 65.9048 158.857 66.2857 157.714 67.8095L147.81 84.9524C147.048 86.4762 147.429 88.381 148.952 89.5238C150.476 90.2857 152.381 89.9048 153.524 88.381L163.429 71.2381Z" fill="url(#paint3_linear_1015_2177)"/>
<path d="M91.0476 89.5238C92.5714 88.7619 93.3333 86.4762 92.1905 84.9524L82.2857 67.8095C81.5238 66.2857 79.2381 65.5238 77.7143 66.6667C76.1905 67.4286 75.4286 69.7143 76.5714 71.2381L86.4762 88.3809C87.2381 89.9048 89.5238 90.2857 91.0476 89.5238Z" fill="white"/>
<path d="M91.0476 89.5238C92.5714 88.7619 93.3333 86.4762 92.1905 84.9524L82.2857 67.8095C81.5238 66.2857 79.2381 65.5238 77.7143 66.6667C76.1905 67.4286 75.4286 69.7143 76.5714 71.2381L86.4762 88.3809C87.2381 89.9048 89.5238 90.2857 91.0476 89.5238Z" fill="url(#paint4_linear_1015_2177)"/>
<path d="M188.952 106.286C190.476 105.524 191.238 103.238 190.095 101.714C189.333 100.19 187.048 99.4286 185.524 100.571L168.762 110.476C167.238 111.238 166.476 113.524 167.619 115.048C168.762 116.571 170.667 117.333 172.19 116.19L188.952 106.286Z" fill="white"/>
<path d="M188.952 106.286C190.476 105.524 191.238 103.238 190.095 101.714C189.333 100.19 187.048 99.4286 185.524 100.571L168.762 110.476C167.238 111.238 166.476 113.524 167.619 115.048C168.762 116.571 170.667 117.333 172.19 116.19L188.952 106.286Z" fill="url(#paint5_linear_1015_2177)"/>
<path d="M150.476 153.524V180.571C150.476 182.476 148.952 184 147.048 184H92.9524C91.0476 184 89.5238 182.476 89.5238 180.571V153.524H116.571V184H123.429V153.524H150.476ZM116.571 130.286H86.0952C84.1905 130.286 82.6667 131.81 82.6667 133.714V144C82.6667 145.905 84.1905 147.429 86.0952 147.429H116.571V130.286ZM153.524 130.286H123.048V147.048H153.524C155.429 147.048 156.952 145.524 156.952 143.619V133.333C156.952 131.429 155.81 130.286 153.524 130.286ZM144 126.476L144.381 124.952C145.905 121.524 145.524 117.714 143.238 114.667C141.333 111.619 137.524 110.095 133.714 110.095C129.143 110.095 124.952 112.762 123.429 117.333L116.571 133.333H133.333C137.905 133.333 142.095 130.667 144 126.476ZM129.905 119.238C130.667 117.714 132.19 116.571 134.095 116.571C135.619 116.571 136.762 117.333 137.905 118.476C138.667 120 139.048 121.143 138.286 122.667L137.905 124.19C137.143 125.714 135.619 126.857 133.714 126.857H126.857L129.905 119.238ZM116.571 116.952C115.048 112.762 110.476 109.714 106.286 109.714C102.476 109.714 99.0476 111.238 96.7619 114.667C94.8571 117.714 94.4762 121.524 95.619 124.952L96 126.476C97.5238 130.667 102.095 133.333 106.286 133.333H122.667L116.571 116.952ZM110.095 119.238L113.143 126.476H106.667C105.143 126.476 103.238 125.333 102.476 123.81L101.714 122.286C101.333 120.762 101.333 119.238 102.476 118.095C103.238 116.571 104.381 116.19 106.286 116.19C107.81 116.571 109.714 117.714 110.095 119.238Z" fill="url(#paint6_linear_1015_2177)"/>
<path d="M150.476 153.524V180.571C150.476 182.476 148.952 184 147.048 184H92.9524C91.0476 184 89.5238 182.476 89.5238 180.571V153.524H116.571V184H123.429V153.524H150.476ZM116.571 130.286H86.0952C84.1905 130.286 82.6667 131.81 82.6667 133.714V144C82.6667 145.905 84.1905 147.429 86.0952 147.429H116.571V130.286ZM153.524 130.286H123.048V147.048H153.524C155.429 147.048 156.952 145.524 156.952 143.619V133.333C156.952 131.429 155.81 130.286 153.524 130.286ZM144 126.476L144.381 124.952C145.905 121.524 145.524 117.714 143.238 114.667C141.333 111.619 137.524 110.095 133.714 110.095C129.143 110.095 124.952 112.762 123.429 117.333L116.571 133.333H133.333C137.905 133.333 142.095 130.667 144 126.476ZM129.905 119.238C130.667 117.714 132.19 116.571 134.095 116.571C135.619 116.571 136.762 117.333 137.905 118.476C138.667 120 139.048 121.143 138.286 122.667L137.905 124.19C137.143 125.714 135.619 126.857 133.714 126.857H126.857L129.905 119.238ZM116.571 116.952C115.048 112.762 110.476 109.714 106.286 109.714C102.476 109.714 99.0476 111.238 96.7619 114.667C94.8571 117.714 94.4762 121.524 95.619 124.952L96 126.476C97.5238 130.667 102.095 133.333 106.286 133.333H122.667L116.571 116.952ZM110.095 119.238L113.143 126.476H106.667C105.143 126.476 103.238 125.333 102.476 123.81L101.714 122.286C101.333 120.762 101.333 119.238 102.476 118.095C103.238 116.571 104.381 116.19 106.286 116.19C107.81 116.571 109.714 117.714 110.095 119.238Z" fill="url(#paint7_linear_1015_2177)"/>
<path d="M150.476 153.524V180.571C150.476 182.476 148.952 184 147.048 184H92.9524C91.0476 184 89.5238 182.476 89.5238 180.571V153.524H116.571V184H123.429V153.524H150.476ZM116.571 130.286H86.0952C84.1905 130.286 82.6667 131.81 82.6667 133.714V144C82.6667 145.905 84.1905 147.429 86.0952 147.429H116.571V130.286ZM153.524 130.286H123.048V147.048H153.524C155.429 147.048 156.952 145.524 156.952 143.619V133.333C156.952 131.429 155.81 130.286 153.524 130.286ZM144 126.476L144.381 124.952C145.905 121.524 145.524 117.714 143.238 114.667C141.333 111.619 137.524 110.095 133.714 110.095C129.143 110.095 124.952 112.762 123.429 117.333L116.571 133.333H133.333C137.905 133.333 142.095 130.667 144 126.476ZM129.905 119.238C130.667 117.714 132.19 116.571 134.095 116.571C135.619 116.571 136.762 117.333 137.905 118.476C138.667 120 139.048 121.143 138.286 122.667L137.905 124.19C137.143 125.714 135.619 126.857 133.714 126.857H126.857L129.905 119.238ZM116.571 116.952C115.048 112.762 110.476 109.714 106.286 109.714C102.476 109.714 99.0476 111.238 96.7619 114.667C94.8571 117.714 94.4762 121.524 95.619 124.952L96 126.476C97.5238 130.667 102.095 133.333 106.286 133.333H122.667L116.571 116.952ZM110.095 119.238L113.143 126.476H106.667C105.143 126.476 103.238 125.333 102.476 123.81L101.714 122.286C101.333 120.762 101.333 119.238 102.476 118.095C103.238 116.571 104.381 116.19 106.286 116.19C107.81 116.571 109.714 117.714 110.095 119.238Z" fill="url(#paint8_linear_1015_2177)"/>
</g>
<defs>
<linearGradient id="paint0_linear_1015_2177" x1="209.648" y1="-9.27963" x2="19.6762" y2="264.679" gradientUnits="userSpaceOnUse">
<stop stop-color="#80D7FF"/>
<stop offset="1" stop-color="#E980FC"/>
</linearGradient>
<linearGradient id="paint1_linear_1015_2177" x1="128.522" y1="40.4754" x2="100.531" y2="134.663" gradientUnits="userSpaceOnUse">
<stop stop-color="#80D7FF"/>
<stop offset="1" stop-color="#E980FC"/>
</linearGradient>
<linearGradient id="paint2_linear_1015_2177" x1="85.0473" y1="27.5554" x2="57.056" y2="121.743" gradientUnits="userSpaceOnUse">
<stop stop-color="#80D7FF"/>
<stop offset="1" stop-color="#E980FC"/>
</linearGradient>
<linearGradient id="paint3_linear_1015_2177" x1="163.696" y1="50.9288" x2="135.705" y2="145.116" gradientUnits="userSpaceOnUse">
<stop stop-color="#80D7FF"/>
<stop offset="1" stop-color="#E980FC"/>
</linearGradient>
<linearGradient id="paint4_linear_1015_2177" x1="98.2404" y1="31.4762" x2="70.2491" y2="125.664" gradientUnits="userSpaceOnUse">
<stop stop-color="#80D7FF"/>
<stop offset="1" stop-color="#E980FC"/>
</linearGradient>
<linearGradient id="paint5_linear_1015_2177" x1="193.443" y1="59.7695" x2="165.452" y2="153.957" gradientUnits="userSpaceOnUse">
<stop stop-color="#80D7FF"/>
<stop offset="1" stop-color="#E980FC"/>
</linearGradient>
<linearGradient id="paint6_linear_1015_2177" x1="120.002" y1="109.895" x2="120.002" y2="252" gradientUnits="userSpaceOnUse">
<stop stop-color="white"/>
<stop offset="1" stop-color="white" stop-opacity="0"/>
</linearGradient>
<linearGradient id="paint7_linear_1015_2177" x1="120.002" y1="109.895" x2="120.002" y2="184" gradientUnits="userSpaceOnUse">
<stop offset="0.5048" stop-color="white"/>
<stop offset="1" stop-color="white" stop-opacity="0"/>
</linearGradient>
<linearGradient id="paint8_linear_1015_2177" x1="150.144" y1="108.727" x2="91.4769" y2="193.331" gradientUnits="userSpaceOnUse">
<stop stop-color="#80D7FF"/>
<stop offset="1" stop-color="#E980FC"/>
</linearGradient>
</defs>
</svg>
