<svg width="240" height="240" viewBox="0 0 240 240" fill="none" xmlns="http://www.w3.org/2000/svg">
<path d="M46 229V205.503H72.4188C76.2849 205.503 78.218 203.327 78.218 198.976V41.024C78.218 36.6727 76.2849 34.497 72.4188 34.497H46V11H82.5137C88.9573 11 94.1838 13.1031 98.1932 17.3094C102.346 21.3706 104.422 26.6647 104.422 33.1916V206.808C104.422 213.335 102.346 218.629 98.1932 222.691C94.1838 226.897 88.9573 229 82.5137 229H46ZM156.486 229C150.042 229 144.744 226.897 140.592 222.691C136.582 218.629 134.578 213.335 134.578 206.808V33.1916C134.578 26.6647 136.582 21.3706 140.592 17.3094C144.744 13.1031 150.042 11 156.486 11H193V34.497H166.581C162.715 34.497 160.782 36.6727 160.782 41.024V198.976C160.782 203.327 162.715 205.503 166.581 205.503H193V229H156.486Z" fill="black"/>
</svg>
