<svg width="240" height="240" viewBox="0 0 240 240" fill="none" xmlns="http://www.w3.org/2000/svg">
<g filter="url(#filter0_i_1444_242)">
<path d="M231.106 114.079L178.775 58.636C175.663 55.2415 170.288 54.9588 166.894 58.3532C163.499 61.4646 163.216 66.8395 166.611 70.2339L213.285 120.019L166.328 169.522C163.216 172.917 163.216 178.291 166.611 181.403C168.308 182.817 170.288 183.666 172.551 183.666C174.814 183.666 177.077 182.817 178.775 181.12L231.106 125.677C234.218 122.565 234.218 117.473 231.106 114.079Z" fill="url(#paint0_linear_1444_242)"/>
</g>
<g filter="url(#filter1_i_1444_242)">
<path d="M73.8288 58.3543C70.4343 55.2426 65.0594 55.2426 61.9481 58.637L9.3337 114.08C6.2221 117.475 6.2221 122.566 9.3337 125.678L61.665 181.121C63.3622 182.818 65.6253 183.667 67.8885 183.667C69.8684 183.667 72.1316 182.818 73.8288 181.404C77.2233 178.292 77.506 172.918 74.1115 169.523L27.1547 120.02L74.1115 70.5177C77.2233 67.1232 77.2233 61.7488 73.8288 58.3543Z" fill="url(#paint1_linear_1444_242)"/>
</g>
<g filter="url(#filter2_i_1444_242)">
<path d="M134.08 30.0664C129.555 29.5006 125.029 32.6122 124.463 37.1382L99.5702 200.073C99.0043 204.599 102.116 209.125 106.642 209.69C107.208 209.69 107.49 209.69 108.056 209.69C112.299 209.69 115.694 206.579 116.543 202.619L141.435 39.684C141.718 35.158 138.607 30.915 134.08 30.0664Z" fill="url(#paint2_linear_1444_242)"/>
</g>
<defs>
<filter id="filter0_i_1444_242" x="164.028" y="55.9443" width="79.4114" height="137.722" filterUnits="userSpaceOnUse" color-interpolation-filters="sRGB">
<feFlood flood-opacity="0" result="BackgroundImageFix"/>
<feBlend mode="normal" in="SourceGraphic" in2="BackgroundImageFix" result="shape"/>
<feColorMatrix in="SourceAlpha" type="matrix" values="0 0 0 0 0 0 0 0 0 0 0 0 0 0 0 0 0 0 127 0" result="hardAlpha"/>
<feOffset dx="10" dy="10"/>
<feGaussianBlur stdDeviation="5"/>
<feComposite in2="hardAlpha" operator="arithmetic" k2="-1" k3="1"/>
<feColorMatrix type="matrix" values="0 0 0 0 0.101961 0 0 0 0 0.12549 0 0 0 0 0.172549 0 0 0 0.1 0"/>
<feBlend mode="normal" in2="shape" result="effect1_innerShadow_1444_242"/>
</filter>
<filter id="filter1_i_1444_242" x="7" y="56.0547" width="79.5204" height="137.612" filterUnits="userSpaceOnUse" color-interpolation-filters="sRGB">
<feFlood flood-opacity="0" result="BackgroundImageFix"/>
<feBlend mode="normal" in="SourceGraphic" in2="BackgroundImageFix" result="shape"/>
<feColorMatrix in="SourceAlpha" type="matrix" values="0 0 0 0 0 0 0 0 0 0 0 0 0 0 0 0 0 0 127 0" result="hardAlpha"/>
<feOffset dx="10" dy="10"/>
<feGaussianBlur stdDeviation="5"/>
<feComposite in2="hardAlpha" operator="arithmetic" k2="-1" k3="1"/>
<feColorMatrix type="matrix" values="0 0 0 0 0.101961 0 0 0 0 0.12549 0 0 0 0 0.172549 0 0 0 0.1 0"/>
<feBlend mode="normal" in2="shape" result="effect1_innerShadow_1444_242"/>
</filter>
<filter id="filter2_i_1444_242" x="99.5038" y="30" width="51.9493" height="189.69" filterUnits="userSpaceOnUse" color-interpolation-filters="sRGB">
<feFlood flood-opacity="0" result="BackgroundImageFix"/>
<feBlend mode="normal" in="SourceGraphic" in2="BackgroundImageFix" result="shape"/>
<feColorMatrix in="SourceAlpha" type="matrix" values="0 0 0 0 0 0 0 0 0 0 0 0 0 0 0 0 0 0 127 0" result="hardAlpha"/>
<feOffset dx="10" dy="10"/>
<feGaussianBlur stdDeviation="5"/>
<feComposite in2="hardAlpha" operator="arithmetic" k2="-1" k3="1"/>
<feColorMatrix type="matrix" values="0 0 0 0 0.101961 0 0 0 0 0.12549 0 0 0 0 0.172549 0 0 0 0.1 0"/>
<feBlend mode="normal" in2="shape" result="effect1_innerShadow_1444_242"/>
</filter>
<linearGradient id="paint0_linear_1444_242" x1="198.734" y1="7.81306" x2="198.734" y2="208.11" gradientUnits="userSpaceOnUse">
<stop stop-color="#00EFD1"/>
<stop offset="1" stop-color="#00ACEA"/>
</linearGradient>
<linearGradient id="paint1_linear_1444_242" x1="41.7602" y1="7.81413" x2="41.7602" y2="208.111" gradientUnits="userSpaceOnUse">
<stop stop-color="#00EFD1"/>
<stop offset="1" stop-color="#00ACEA"/>
</linearGradient>
<linearGradient id="paint2_linear_1444_242" x1="120.479" y1="7.81359" x2="120.479" y2="208.11" gradientUnits="userSpaceOnUse">
<stop stop-color="#00EFD1"/>
<stop offset="1" stop-color="#00ACEA"/>
</linearGradient>
</defs>
</svg>
