<svg width="240" height="240" viewBox="0 0 240 240" fill="none" xmlns="http://www.w3.org/2000/svg">
<path d="M221 199.85C211.711 208.916 200.857 216.314 188.938 221.706C174.825 228.31 159.505 232.101 143.874 232.858C128.243 233.617 112.613 231.326 97.8998 226.12C83.143 220.945 69.5838 212.968 58.0048 202.649C46.4257 192.33 37.0567 179.873 30.439 165.999C2.6814 108.374 27.0707 39.2722 85.9544 8.70927L86.3286 8.55706L88.8859 10.5966L104.044 27.3088C106.469 29.6794 109.354 31.5566 112.529 32.8316C115.703 34.1066 119.105 34.754 122.538 34.7365C129.293 34.7615 135.793 32.2174 140.659 27.6437L163.613 6L164.019 6.18265C166.392 7.69674 168.543 9.51971 170.413 11.6012L171.099 12.3317L171.66 12.971C176.276 18.2982 190.966 38.4503 186.038 73.3967L207.87 100.611L207.215 104.507C204.096 120.185 187.972 133.457 167.481 137.536C163.05 138.444 158.535 138.903 154.007 138.906C132.487 138.906 111.373 127.582 97.4628 108.678L97.2446 108.343L97.4006 107.856L109.034 96.6535L109.439 97.0495L109.657 97.3541C110.375 98.3586 111.123 99.3019 111.841 100.398C123.131 114.523 138.195 122.315 154.257 122.315C157.6 122.313 160.934 121.977 164.206 121.311C176.276 118.906 186.35 112.179 189.843 104.203L168.417 77.7802L168.884 74.0359C172.939 50.7789 166.857 35.8628 162.896 29.044L162.615 29.2875L161.617 30.3529L152.261 39.4853C144.275 47.0021 133.601 51.1845 122.507 51.1442C116.869 51.1856 111.279 50.1301 106.063 48.0395C100.847 45.9488 96.1106 42.8649 92.1294 38.9678L83.4593 28.496C39.7955 55.3147 23.2969 112.605 45.6277 158.936C53.9338 176.077 67.0402 190.573 83.4318 200.749C99.8234 210.924 118.831 216.364 138.257 216.44C153.369 216.457 168.291 213.16 181.921 206.79C192.629 201.825 202.37 195.077 210.708 186.851L221 199.85ZM157.781 67.3693C157.769 65.4996 157.19 63.6753 156.116 62.1264C155.043 60.5775 153.524 59.3736 151.751 58.6664C149.977 57.9591 148.029 57.7803 146.151 58.1525C144.274 58.5246 142.551 59.4311 141.201 60.7575C139.851 62.0838 138.934 63.7708 138.564 65.6053C138.195 67.4402 138.391 69.3406 139.127 71.0673C139.863 72.7934 141.106 74.2684 142.7 75.306C144.293 76.3436 146.166 76.8976 148.081 76.8976C149.359 76.8934 150.624 76.644 151.803 76.1628C152.982 75.6821 154.053 74.9792 154.953 74.0942C155.854 73.2092 156.567 72.1602 157.052 71.006C157.538 69.8525 157.785 68.6166 157.781 67.3693Z" fill="url(#paint0_linear_1351_87)"/>
<defs>
<linearGradient id="paint0_linear_1351_87" x1="239.138" y1="75.58" x2="53.3602" y2="205.061" gradientUnits="userSpaceOnUse">
<stop stop-color="#08F2B6"/>
<stop offset="1" stop-color="#371BB1"/>
</linearGradient>
</defs>
</svg>
