<svg width="240" height="240" viewBox="0 0 240 240" fill="none" xmlns="http://www.w3.org/2000/svg">
<path d="M81.2236 70.52C81.2236 56.5908 86.7952 43.2321 96.7129 33.3827C106.63 23.5333 120.081 18 134.108 18H235.512C235.512 31.9292 229.94 45.2879 220.022 55.1373C210.104 64.9866 196.654 70.52 182.628 70.52H81.2236Z" fill="url(#paint0_linear_1351_80)"/>
<path d="M47.1747 221.525C47.1747 207.596 52.7463 194.238 62.6639 184.388C72.5816 174.539 86.0327 169.005 100.058 169.005H201.341C201.341 182.935 195.769 196.293 185.851 206.143C175.933 215.992 162.483 221.525 148.457 221.525H47.1646H47.1747Z" fill="url(#paint1_linear_1351_80)"/>
<path d="M51.2732 148.129H5C5 134.199 10.5717 120.841 20.4893 110.991C30.4068 101.142 43.8581 95.6084 57.8836 95.6084H193.673C193.673 109.538 188.101 122.896 178.183 132.745C168.265 142.595 154.815 148.129 140.789 148.129H51.2732Z" fill="url(#paint2_linear_1351_80)"/>
<defs>
<linearGradient id="paint0_linear_1351_80" x1="81.4372" y1="47.0678" x2="236.854" y2="47.0678" gradientUnits="userSpaceOnUse">
<stop stop-color="#FE8913"/>
<stop offset="1" stop-color="#FE10B0"/>
</linearGradient>
<linearGradient id="paint1_linear_1351_80" x1="47.3883" y1="198.073" x2="202.673" y2="198.073" gradientUnits="userSpaceOnUse">
<stop stop-color="#FE8913"/>
<stop offset="1" stop-color="#FE10B0"/>
</linearGradient>
<linearGradient id="paint2_linear_1351_80" x1="5.26442" y1="124.677" x2="195.3" y2="124.677" gradientUnits="userSpaceOnUse">
<stop stop-color="#FE8913"/>
<stop offset="1" stop-color="#FE10B0"/>
</linearGradient>
</defs>
</svg>
