<svg width="240" height="240" viewBox="0 0 240 240" fill="none" xmlns="http://www.w3.org/2000/svg">
<path fill-rule="evenodd" clip-rule="evenodd" d="M220.09 43.2538C220.429 44.3297 220.759 45.3733 221.08 46.3674C230.619 75.6272 231.183 101.064 230.966 114.596C230.942 116.148 230.919 117.681 230.897 119.195C230.454 149.646 230.122 172.451 213.144 191.786C204.471 201.672 194.151 208.305 190.422 210.458C176.849 218.322 164.664 220.563 153.867 222.54C140.424 225 130.06 225 120 225C109.94 225 99.576 225 86.1333 222.54C75.336 220.563 63.1942 218.322 49.5781 210.458C45.849 208.305 35.5284 201.672 26.8558 191.786C9.94417 172.526 9.58776 149.785 9.11381 119.546C9.08831 117.918 9.06246 116.268 9.03365 114.596C8.81682 101.064 9.38054 75.6272 18.9204 46.3674C19.2511 45.3465 19.5909 44.2723 19.9417 43.1635C23.409 32.2026 27.9477 17.8549 35.3116 17.8549C43.7676 17.8549 51.1827 38.6792 53.9146 46.675C55.503 51.1198 59.829 62.5487 61.1394 66.0105C61.3313 66.5179 61.4586 66.8542 61.503 66.9721C61.5468 66.95 61.5969 66.9242 61.6527 66.8956C62.039 66.6973 62.7023 66.3567 63.4977 66.0497C64.2119 65.7732 64.8912 65.5127 65.5017 65.2787C66.9298 64.7309 67.9813 64.3276 68.2244 64.2045C69.5562 63.7598 70.4867 63.4703 71.2182 63.2426C72.5832 62.8179 73.2568 62.6085 74.5555 62.0077C74.6789 61.949 74.8073 61.89 74.9397 61.8294C75.5975 61.5275 76.3556 61.1796 77.1139 60.558C77.1962 60.4809 77.3007 60.387 77.4244 60.2759C78.1473 59.6269 79.5229 58.3917 80.9299 56.516C82.8632 53.578 84.1686 50.0034 85.2172 47.1327C85.6268 46.0115 85.9969 44.9976 86.3502 44.1709C87.781 41.0516 90.6865 37.0099 97.4077 33.4951C97.0609 34.5934 96.6705 36.7902 97.2344 39.3823C97.9716 43.0726 100.313 45.445 101.224 46.1919C102.308 43.424 104.302 39.6019 107.208 35.3403C115.143 24.4889 124.943 19.7 127.675 18.4259C127.772 18.384 127.872 18.341 127.973 18.2971C132.204 16.4631 139.88 13.1358 149.79 14.2083C155.731 14.9552 160.284 16.7566 163.19 18.2503C160.458 18.6456 155.384 19.7441 151.395 23.7859C143.763 31.3424 143.416 44.786 148.836 52.1229C152.99 57.8212 161.115 60.5894 166.018 62.2601L166.052 62.2714C166.365 62.4394 167.031 62.6631 167.973 62.9794C169.247 63.4073 171.026 64.0046 173.12 64.8635C174.724 65.3907 176.546 66.1376 178.54 67.0601C178.93 66.1376 184.351 51.8591 186.129 46.7629C188.817 38.6792 196.232 17.8549 204.688 17.8549C212.075 17.8549 216.619 32.2537 220.09 43.2538ZM92.5984 162.03C96.1975 158.339 96.7612 153.595 97.1082 149.026C97.4984 146.434 99.103 129.827 86.6144 118.36C84.0993 115.944 75.2532 107.728 63.1983 109.925C52.5743 111.726 43.7281 120.864 42.2973 131.672C40.9661 142.216 47.4019 150.212 50.0518 153.505C50.2508 153.752 50.4282 153.973 50.5795 154.166C56.6683 161.053 64.0403 162.983 68.2986 164.097C68.4681 164.141 68.6327 164.184 68.7922 164.227C69.0068 164.277 69.2313 164.33 69.4649 164.386C75.1322 165.733 86.185 168.359 92.5984 162.03ZM171.605 164.069C175.856 162.954 183.309 161 189.385 154.122C189.537 153.928 189.716 153.704 189.917 153.453C192.546 150.18 198.993 142.151 197.624 131.584C196.193 120.82 187.347 111.682 176.723 109.837C164.668 107.64 155.822 115.9 153.307 118.272C140.862 129.783 142.509 146.434 142.856 148.982C143.203 153.551 143.767 158.339 147.366 161.986C153.779 168.315 164.833 165.688 170.5 164.342C170.733 164.286 170.958 164.233 171.173 164.183C171.313 164.146 171.457 164.108 171.605 164.069Z" fill="#A888FF"/>
</svg>
