<svg width="240" height="240" viewBox="0 0 240 240" fill="none" xmlns="http://www.w3.org/2000/svg">
<path fill-rule="evenodd" clip-rule="evenodd" d="M103.027 229V195.562C115.693 192.831 127.2 186.963 136.702 178.807V228.935C189.166 220.71 229.308 175.127 229.308 120.129C229.308 59.3065 180.215 10 119.654 10C59.0939 10 10 59.3065 10 120.129C10 175.275 50.3573 220.953 103.027 229ZM163.221 120.34C163.221 144.389 143.809 163.884 119.864 163.884C95.9191 163.884 76.5077 144.389 76.5077 120.34C76.5077 96.2913 95.9191 76.7961 119.864 76.7961C143.809 76.7961 163.221 96.2913 163.221 120.34Z" fill="url(#paint0_linear_1444_257)"/>
<path opacity="0.8" fill-rule="evenodd" clip-rule="evenodd" d="M86.8211 196.213C129.248 196.213 163.642 161.868 163.642 119.5C163.642 77.1329 129.248 42.7871 86.8211 42.7871C44.394 42.7871 10 77.1329 10 119.5C10 161.868 44.394 196.213 86.8211 196.213ZM119.864 163.006C143.809 163.006 163.221 143.622 163.221 119.71C163.221 95.7991 143.809 76.4149 119.864 76.4149C95.9191 76.4149 76.5077 95.7991 76.5077 119.71C76.5077 143.622 95.9191 163.006 119.864 163.006Z" fill="url(#paint1_linear_1444_257)"/>
<path opacity="0.6" fill-rule="evenodd" clip-rule="evenodd" d="M99.0277 184.023C134.713 184.023 163.642 155.135 163.642 119.5C163.642 83.8646 134.713 54.9766 99.0277 54.9766C63.3422 54.9766 34.4137 83.8646 34.4137 119.5C34.4137 155.135 63.3422 184.023 99.0277 184.023ZM119.864 163.005C143.809 163.005 163.221 143.621 163.221 119.71C163.221 95.7982 143.809 76.4144 119.864 76.4144C95.9188 76.4144 76.5073 95.7982 76.5073 119.71C76.5073 143.621 95.9188 163.005 119.864 163.005Z" fill="url(#paint2_linear_1444_257)"/>
<path fill-rule="evenodd" clip-rule="evenodd" d="M111.025 172.254C140.085 172.254 163.642 148.73 163.642 119.711C163.642 90.6924 140.085 67.168 111.025 67.168C81.965 67.168 58.4077 90.6924 58.4077 119.711C58.4077 148.73 81.965 172.254 111.025 172.254ZM119.865 163.007C143.81 163.007 163.221 143.622 163.221 119.711C163.221 95.7995 143.81 76.4154 119.865 76.4154C95.9193 76.4154 76.5079 95.7995 76.5079 119.711C76.5079 143.622 95.9193 163.007 119.865 163.007Z" fill="url(#paint3_linear_1444_257)"/>
<defs>
<linearGradient id="paint0_linear_1444_257" x1="119.654" y1="10" x2="119.867" y2="233.64" gradientUnits="userSpaceOnUse">
<stop stop-color="#08C5EE"/>
<stop offset="0.755208" stop-color="#B84EAA"/>
<stop offset="0.921875" stop-color="#EE017E"/>
</linearGradient>
<linearGradient id="paint1_linear_1444_257" x1="86.8211" y1="42.7871" x2="86.8211" y2="196.213" gradientUnits="userSpaceOnUse">
<stop offset="0.0104167" stop-color="#3368B8"/>
<stop offset="0.65625" stop-color="#AF4FA7"/>
<stop offset="1" stop-color="#FF3FBF"/>
</linearGradient>
<linearGradient id="paint2_linear_1444_257" x1="99.0277" y1="54.9766" x2="99.0277" y2="184.023" gradientUnits="userSpaceOnUse">
<stop offset="0.0104167" stop-color="#3368B8"/>
<stop offset="0.65625" stop-color="#AF4FA7"/>
<stop offset="1" stop-color="#FF3FBF"/>
</linearGradient>
<linearGradient id="paint3_linear_1444_257" x1="111.025" y1="67.168" x2="111.025" y2="172.254" gradientUnits="userSpaceOnUse">
<stop offset="0.0104167" stop-color="#3368B8"/>
<stop offset="0.65625" stop-color="#AF4FA7"/>
<stop offset="1" stop-color="#FF3FBF"/>
</linearGradient>
</defs>
</svg>
