<svg width="240" height="240" viewBox="0 0 240 240" fill="none" xmlns="http://www.w3.org/2000/svg">
<path fill-rule="evenodd" clip-rule="evenodd" d="M28 17.6002C28 12.8505 31.8495 9 36.5981 9H157.98C187.814 9 212 33.2333 212 63.1265C212 93.0198 187.814 117.252 157.98 117.252H55.0841L40.8229 64.7807H147.29V73.6376L167.55 58.1117L147.29 42.5859V50.5991H36.9686L28 17.6002Z" fill="#0458F2"/>
<path d="M117.641 96.4541L160.102 109.218L212 167.834H117.641V96.4541Z" fill="#0458F2"/>
<path d="M28 17.5088L151.571 83.4027C161.177 88.5251 167.18 98.5391 167.18 109.443V215.604C167.18 226.732 155.348 233.851 145.544 228.622L43.6088 174.267C34.0026 169.145 28 159.13 28 148.226V17.5088Z" fill="url(#paint0_linear_1444_240)"/>
<path d="M28 64.8915V49.0303L141.846 112.95V128.599L28 64.8915Z" fill="white"/>
<path d="M125.189 182.961L142.174 192.415V209.432L125.189 199.978V182.961Z" fill="white"/>
<defs>
<linearGradient id="paint0_linear_1444_240" x1="167.651" y1="145.616" x2="27.9104" y2="83.8924" gradientUnits="userSpaceOnUse">
<stop stop-color="#38B4FF"/>
<stop offset="1" stop-color="#55DAFF"/>
</linearGradient>
</defs>
</svg>
