<svg width="630" height="630" viewBox="0 0 630 630" fill="none" xmlns="http://www.w3.org/2000/svg">
<rect width="630" height="630" fill="#EB3A6F"/>
<path d="M426.545 426H219.455C202.634 426 189 439.43 189 455.998C189 472.57 202.634 486 219.455 486H426.545C443.362 486 457 472.57 457 455.998C457 439.43 443.362 426 426.545 426Z" fill="white"/>
<path d="M426.545 144H219.455C202.634 144 189 157.432 189 174.001C189 190.57 202.634 204 219.455 204H426.545C443.362 204 457 190.57 457 174.001C457 157.432 443.362 144 426.545 144Z" fill="white"/>
<path d="M264.835 284H140.163C123.504 284 110 297.431 110 313.998C110 330.569 123.504 344 140.163 344H264.835C281.494 344 295 330.569 295 313.998C295 297.431 281.494 284 264.835 284Z" fill="white"/>
<path d="M366.002 344C382.569 344 396 330.569 396 313.998C396 297.431 382.569 284 366.002 284C349.431 284 336 297.431 336 313.998C336 330.569 349.431 344 366.002 344Z" fill="white"/>
</svg>
