<svg width="630" height="630" viewBox="0 0 630 630" fill="none" xmlns="http://www.w3.org/2000/svg">
<rect width="630" height="630" fill="white"/>
<path d="M242.111 299.724C239.542 290.829 234.752 282.44 227.742 275.431C205.611 253.299 169.73 253.299 147.598 275.431C125.467 297.561 125.467 333.443 147.598 355.575C154.608 362.584 162.997 367.373 171.892 369.943C176.518 371.417 181.841 372.563 187.647 373.812C206.854 377.949 231.348 383.223 253.389 405.263C253.389 405.263 256.594 398.051 263.407 391.239C270.219 384.426 277.432 381.22 277.432 381.22C255.391 359.18 250.117 334.686 245.981 315.478C244.731 309.673 243.585 304.35 242.111 299.724Z" fill="url(#paint0_linear_4412_515)"/>
<path d="M388.889 331.279C391.458 340.173 396.248 348.562 403.258 355.572C425.388 377.702 461.27 377.702 483.402 355.572C505.532 333.44 505.532 297.559 483.402 275.428C476.392 268.418 468.002 263.629 459.108 261.059C454.483 259.585 449.16 258.439 443.353 257.189C424.147 253.053 399.651 247.779 377.611 225.738C377.611 225.738 374.405 232.951 367.594 239.763C360.781 246.576 353.568 249.782 353.568 249.782C375.609 271.821 380.884 296.317 385.019 315.523C386.269 321.33 387.415 326.653 388.889 331.279Z" fill="url(#paint1_linear_4412_515)"/>
<path d="M261.06 171.892C263.629 162.997 268.419 154.608 275.429 147.598C297.559 125.467 333.441 125.467 355.573 147.598C377.703 169.73 377.703 205.611 355.573 227.742C348.563 234.752 340.173 239.542 331.279 242.111C326.654 243.585 321.331 244.731 315.524 245.981C296.318 250.117 271.822 255.391 249.783 277.432C249.783 277.432 246.577 270.219 239.764 263.407C232.952 256.594 225.739 253.389 225.739 253.389C247.78 231.348 253.054 206.854 257.19 187.647C258.44 181.841 259.586 176.518 261.06 171.892Z" fill="url(#paint2_linear_4412_515)"/>
<path d="M369.94 459.106C367.371 468.001 362.581 476.389 355.572 483.399C333.441 505.531 297.559 505.531 275.428 483.399C253.297 461.269 253.297 425.387 275.428 403.255C282.437 396.246 290.827 391.456 299.722 388.886C304.347 387.413 309.67 386.267 315.477 385.016C334.683 380.881 359.178 375.607 381.218 353.566C381.218 353.566 384.424 360.779 391.236 367.591C398.048 374.404 405.262 377.61 405.262 377.61C383.22 399.65 377.946 424.144 373.811 443.35C372.561 449.157 371.415 454.48 369.94 459.106Z" fill="url(#paint3_linear_4412_515)"/>
<defs>
<linearGradient id="paint0_linear_4412_515" x1="296.427" y1="514.41" x2="287.56" y2="92.1146" gradientUnits="userSpaceOnUse">
<stop stop-color="#FF004F"/>
<stop offset="1" stop-color="#FF0581"/>
</linearGradient>
<linearGradient id="paint1_linear_4412_515" x1="296.427" y1="514.407" x2="287.56" y2="92.112" gradientUnits="userSpaceOnUse">
<stop stop-color="#FF004F"/>
<stop offset="1" stop-color="#FF0581"/>
</linearGradient>
<linearGradient id="paint2_linear_4412_515" x1="296.428" y1="514.408" x2="287.56" y2="92.1128" gradientUnits="userSpaceOnUse">
<stop stop-color="#FF004F"/>
<stop offset="1" stop-color="#FF0581"/>
</linearGradient>
<linearGradient id="paint3_linear_4412_515" x1="296.427" y1="514.405" x2="287.56" y2="92.1095" gradientUnits="userSpaceOnUse">
<stop stop-color="#FF004F"/>
<stop offset="1" stop-color="#FF0581"/>
</linearGradient>
</defs>
</svg>
