<svg width="630" height="630" viewBox="0 0 630 630" fill="none" xmlns="http://www.w3.org/2000/svg">
<rect width="630" height="630" fill="#CBFDED"/>
<path d="M511 470.744C492.973 488.317 471.911 502.658 448.781 513.109C421.394 525.908 391.664 533.257 361.33 534.725C330.996 536.195 300.666 531.755 272.112 521.665C243.476 511.634 217.163 496.172 194.692 476.17C172.222 456.168 154.041 432.023 141.198 405.13C87.3322 293.433 134.662 159.492 248.931 100.251L249.657 99.9564L254.62 103.91L284.035 136.303C288.743 140.898 294.34 144.537 300.501 147.008C306.662 149.48 313.264 150.735 319.926 150.701C333.034 150.749 345.648 145.818 355.09 136.953L399.636 95L400.422 95.354C405.029 98.2888 409.203 101.822 412.83 105.857L414.162 107.273L415.251 108.512C424.209 118.838 452.716 157.899 443.153 225.637L485.52 278.387L484.248 285.939C478.196 316.328 446.905 342.053 407.141 349.96C398.542 351.719 389.78 352.609 380.994 352.616C339.232 352.616 298.259 330.666 271.264 294.024L270.841 293.374L271.144 292.431L293.719 270.716L294.506 271.484L294.929 272.074C296.321 274.021 297.774 275.849 299.166 277.974C321.075 305.353 350.309 320.457 381.479 320.457C387.966 320.453 394.435 319.8 400.786 318.51C424.209 313.849 443.758 300.809 450.536 285.35L408.957 234.133L409.864 226.876C417.733 181.796 405.93 152.884 398.244 139.667L397.699 140.139L395.763 142.204L377.606 159.905C362.107 174.475 341.395 182.582 319.866 182.504C308.924 182.584 298.075 180.539 287.954 176.486C277.833 172.434 268.64 166.456 260.915 158.902L244.089 138.605C159.356 190.588 127.339 301.635 170.674 391.44C186.792 424.664 212.227 452.762 244.036 472.486C275.845 492.21 312.731 502.754 350.43 502.901C379.755 502.935 408.713 496.543 435.163 484.196C455.944 474.572 474.847 461.494 491.028 445.548L511 470.744ZM388.317 213.954C388.294 210.33 387.17 206.793 385.087 203.791C383.004 200.789 380.057 198.455 376.615 197.085C373.173 195.714 369.392 195.367 365.749 196.089C362.106 196.81 358.763 198.567 356.142 201.138C353.523 203.709 351.742 206.979 351.025 210.535C350.309 214.091 350.689 217.775 352.117 221.122C353.545 224.467 355.958 227.326 359.051 229.338C362.143 231.349 365.778 232.423 369.494 232.423C371.975 232.414 374.428 231.931 376.717 230.998C379.005 230.067 381.082 228.704 382.83 226.989C384.577 225.273 385.962 223.24 386.903 221.003C387.845 218.767 388.325 216.371 388.317 213.954Z" fill="url(#paint0_linear_1790_397)"/>
<defs>
<linearGradient id="paint0_linear_1790_397" x1="546.199" y1="229.869" x2="185.955" y2="481.239" gradientUnits="userSpaceOnUse">
<stop stop-color="#08F2B6"/>
<stop offset="1" stop-color="#371BB1"/>
</linearGradient>
</defs>
</svg>
