<svg width="630" height="630" viewBox="0 0 630 630" fill="none" xmlns="http://www.w3.org/2000/svg">
<rect width="630" height="630" fill="white"/>
<path d="M314.5 202.991C353.248 202.991 385.006 172.752 387.59 134.764C371.786 128.382 355.072 124.127 337.597 122C338.357 124.431 338.965 127.014 338.965 129.75C338.965 143.273 328.024 154.214 314.5 154.214C300.976 154.214 290.036 143.273 290.036 129.75C290.036 127.014 290.492 124.431 291.403 122C273.929 124.127 257.214 128.382 241.411 134.764C243.994 172.752 275.752 202.991 314.5 202.991Z" fill="#0E0E0E"/>
<path d="M216.794 372.42C197.344 338.838 155.405 326.378 121.064 343.245C123.495 360.568 128.206 377.283 134.891 392.934C136.563 390.958 138.69 389.287 140.97 387.919C152.67 381.233 167.561 385.184 174.247 396.885C180.933 408.585 176.982 423.476 165.282 430.162C162.851 431.53 160.42 432.442 157.836 432.897C168.169 446.725 180.325 459.033 193.849 469.67C225.759 448.397 236.092 405.85 216.794 372.42Z" fill="#0E0E0E"/>
<path d="M470.86 432.893C468.277 432.437 465.845 431.525 463.414 430.158C451.714 423.472 447.763 408.428 454.449 396.88C461.135 385.332 476.178 381.229 487.727 387.915C490.158 389.282 492.133 390.954 493.805 392.929C500.491 377.278 505.201 360.715 507.633 343.241C473.443 326.526 431.352 338.834 412.054 372.416C392.756 405.997 402.937 448.544 434.543 469.818C448.371 459.029 460.527 446.721 470.86 432.893Z" fill="#0E0E0E"/>
<path d="M343.067 268.637C368.899 268.637 393.82 258.304 412.054 240.07L462.958 189.165C452.322 176.705 440.165 165.612 426.793 156.191L314.348 268.637H343.067Z" fill="#0E0E0E"/>
<path d="M285.933 268.637H314.5L202.055 156.191C188.683 165.612 176.527 176.705 165.89 189.165L216.794 240.07C235.181 258.304 259.949 268.637 285.933 268.637Z" fill="#0E0E0E"/>
<path d="M259.189 314.827C246.273 292.338 224.848 276.079 199.927 269.393L130.333 250.703C125.014 265.746 121.52 281.854 120 298.416L273.473 339.596L259.189 314.827Z" fill="#0E0E0E"/>
<path d="M287.908 364.366L273.625 339.598L232.445 493.07C247.033 499.908 262.684 504.923 278.943 507.962L297.633 438.367C304.319 413.447 300.824 386.703 287.908 364.366Z" fill="#0E0E0E"/>
<path d="M341.092 364.366C328.176 386.855 324.681 413.447 331.367 438.519L350.057 508.114C366.316 505.075 381.967 500.06 396.555 493.222L355.527 339.598L341.092 364.366Z" fill="#0E0E0E"/>
<path d="M369.811 314.827L355.527 339.596L509 298.416C507.48 281.854 503.986 265.746 498.667 250.703L429.073 269.393C404 275.927 382.727 292.338 369.811 314.827Z" fill="#0E0E0E"/>
</svg>
