<svg width="630" height="630" viewBox="0 0 630 630" fill="none" xmlns="http://www.w3.org/2000/svg">
<rect width="630" height="630" fill="white"/>
<path d="M290.267 186.769C283.767 192.827 277.378 198.773 270.99 204.691C241.318 232.233 211.647 259.803 181.947 287.288C175.138 293.599 168.078 299.657 159.532 303.359C149.361 307.762 143.533 305.013 140.255 294.047C135.688 278.706 138.126 264.402 146.952 251.22C154.461 240.002 163.931 230.662 173.653 221.575C189.148 207.103 204.754 192.771 220.557 178.692C227.477 172.522 235.042 166.884 244.288 165.005C271.971 159.424 289.623 185.956 290.296 186.741L290.267 186.769Z" fill="#4779FF"/>
<path d="M157.066 326.877C173.905 322.024 186.542 311.338 198.842 300.092C238.068 264.304 277.238 228.489 316.632 192.898C325.318 185.045 334.453 177.528 344.119 170.966C356.419 162.608 369.784 161.402 382.952 169.367C387.715 172.228 392.394 175.565 396.261 179.548C409.682 193.431 422.935 207.538 435.851 221.898C449.581 237.155 463.085 252.637 476.226 268.399C480.737 273.812 484.435 280.123 487.49 286.517C493.178 298.409 491.721 310.16 484.8 321.239C478.607 331.167 470.315 339.301 461.769 347.013C428.315 377.248 394.86 407.483 361.014 437.295C351.936 445.316 341.933 452.497 331.622 458.835C312.205 470.812 292.733 469.324 275.024 455.134C264.714 446.887 255.019 437.66 246.165 427.844C217.642 396.235 189.652 364.178 161.465 332.261C160.036 330.663 158.747 328.924 157.066 326.848V326.877Z" fill="#4779FF"/>
</svg>
