<svg width="630" height="630" viewBox="0 0 630 630" fill="none" xmlns="http://www.w3.org/2000/svg">
<rect width="630" height="630" fill="#ECF3FD"/>
<mask id="mask0_1790_375" style="mask-type:alpha" maskUnits="userSpaceOnUse" x="90" y="80" width="457" height="456">
<path d="M318.844 535.658C444.702 535.658 546.73 433.68 546.73 307.884C546.73 182.087 444.702 80.1094 318.844 80.1094C192.986 80.1094 90.9585 182.087 90.9585 307.884C90.9585 433.68 192.986 535.658 318.844 535.658Z" fill="#115BB8"/>
</mask>
<g mask="url(#mask0_1790_375)">
<path d="M313.856 541.424C442.458 541.424 546.711 437.222 546.711 308.683C546.711 180.143 442.458 75.9414 313.856 75.9414C185.253 75.9414 81 180.143 81 308.683C81 437.222 185.253 541.424 313.856 541.424Z" fill="#0B3D91"/>
<path d="M447.871 476.986C603.134 476.986 729 351.181 729 195.994C729 40.8054 603.134 -85 447.871 -85C292.606 -85 166.74 40.8054 166.74 195.994C166.74 351.181 292.606 476.986 447.871 476.986Z" fill="#0053BB"/>
<path d="M472.898 375.363C579.544 375.363 665.998 288.951 665.998 182.357C665.998 75.7631 579.544 -10.6484 472.898 -10.6484C366.252 -10.6484 279.798 75.7631 279.798 182.357C279.798 288.951 366.252 375.363 472.898 375.363Z" fill="#0069ED"/>
<path d="M470.2 132.697C470.123 132.766 470.049 132.836 469.978 132.909L222.334 385.242C220.594 387.016 220.457 389.81 222.015 391.744C223.573 393.68 226.333 394.142 228.438 392.822L520.799 209.406C526.633 206.712 531.842 202.84 536.093 198.063C542.388 190.991 546.587 181.931 547.591 171.799C550.12 146.267 531.449 123.524 505.896 120.995C492.346 119.654 479.573 124.271 470.2 132.697Z" fill="#FC3D21" stroke="#FC3D21" stroke-width="0.691849" strokeLinejoin="round"/>
</g>
</svg>
