<svg width="630" height="630" viewBox="0 0 630 630" fill="none" xmlns="http://www.w3.org/2000/svg">
<rect width="630" height="630" fill="#3B2FC9"/>
<path d="M238.18 329.704C234.445 333.439 229.775 335.307 224.171 335.307H205.026H177.476C173.273 335.307 170.004 333.907 167.203 331.104C164.868 328.303 163 325.034 163 320.832V249.387V177.476C163 173.273 164.868 170.004 167.203 167.203C170.004 164.868 173.74 163 177.476 163H220.436H263.396C267.598 163 270.867 164.868 273.669 167.203C276.471 170.004 277.872 173.273 277.872 177.476V233.511V281.607C277.872 286.744 276.004 291.88 272.268 295.149L255.458 311.959L238.18 329.704Z" fill="white"/>
<path d="M300.296 238.18C296.559 234.445 294.691 229.775 294.691 224.638V205.026V177.476C294.691 173.273 296.559 170.004 298.894 167.203C301.696 164.868 305.432 163 309.168 163H380.612H452.524C456.726 163 459.995 164.868 462.797 167.203C465.598 170.004 467 173.273 467 177.476V220.436V263.396C467 267.598 465.131 270.867 462.797 273.669C459.995 276.471 456.726 277.872 452.524 277.872H396.489H347.925C342.788 277.872 337.653 276.004 333.916 272.268L317.106 255.458L300.296 238.18Z" fill="white"/>
<path d="M392.272 301.212C396.007 297.477 400.676 295.609 406.28 295.609H425.426H452.509C456.711 295.609 459.98 297.477 462.781 299.812C465.584 302.614 466.984 305.883 466.984 310.084V381.529V452.974C466.984 457.177 465.117 460.446 462.781 463.247C459.98 466.049 456.711 467.45 452.509 467.45H409.548H366.588C362.385 467.45 359.118 465.581 356.315 463.247C353.513 460.446 352.113 457.177 352.113 452.974V396.939V348.843C352.113 343.706 353.981 338.569 357.716 335.3L374.526 318.49L392.272 301.212Z" fill="white"/>
<path d="M329.704 392.774C333.439 396.509 335.307 401.179 335.307 406.783V425.928V453.478C335.307 457.681 333.439 460.95 331.104 463.751C328.303 466.553 325.034 467.954 320.832 467.954H249.387H177.476C173.273 467.954 170.004 466.087 167.203 463.751C164.868 460.95 163 457.215 163 453.478V410.518V367.558C163 363.355 164.868 360.086 167.203 357.285C170.004 354.483 173.273 353.082 177.476 353.082H233.511H281.607C286.744 353.082 291.88 354.951 295.149 358.686L311.959 375.496L329.704 392.774Z" fill="white"/>
</svg>
