<svg width="630" height="630" viewBox="0 0 630 630" fill="none" xmlns="http://www.w3.org/2000/svg">
<rect width="630" height="630" fill="#7C3AED"/>
<path fill-rule="evenodd" clip-rule="evenodd" d="M197.804 179.496L189.927 150L163.378 153.212L152 154.673L162.794 195.266L214.433 387.717L239.231 480L275.407 475.328H277.157L252.359 382.752L239.231 334.274L233.688 313.54L229.312 296.602L221.434 267.106L215.6 246.372L211.224 229.726L249.15 224.761L315.375 216.584L324.711 215.416L330.838 214.54H331.129H331.421H331.713L332.005 214.248H332.296H332.588H332.88H333.171H333.463H333.755H334.047H334.338H334.63H334.922H335.214H335.506C335.797 214.248 336.381 214.248 336.672 214.248H336.964H337.256H337.548H337.839H338.131L338.423 214.54C338.715 214.54 339.006 214.54 339.298 214.54C339.59 214.832 339.882 214.832 340.173 215.124C340.173 215.124 340.465 215.124 340.757 215.416C341.049 215.416 341.34 215.708 341.632 216L341.924 216.292H342.215L342.507 216.584L342.799 216.876L343.091 217.168L343.383 217.46L343.674 217.752L343.966 218.044L344.258 218.336L344.55 218.628V218.92L344.841 219.212L345.133 219.504V219.796L345.425 220.089V220.38L345.716 220.673L346.883 222.717L348.342 224.761L348.634 225.053V225.345H348.926V225.637L349.217 225.929V226.221H349.509V226.513H349.801V226.805H350.092V227.097H350.384V227.39H350.676V227.681H350.968L351.259 227.973H351.551H351.843V228.266H352.135H352.427L352.718 228.557H353.01H353.302H353.593H353.885H354.177C354.177 228.557 354.469 228.557 354.76 228.557H355.052H355.344H355.636H355.927H356.219H356.511H356.803L409.899 221.841H410.191L415.734 242.575L420.111 259.221L373.724 265.354C367.013 266.23 362.637 264.186 358.845 258.637L356.511 254.549C355.927 253.673 355.052 252.796 354.177 252.212V251.92H353.885H353.593V251.629H353.302H353.01V251.336H352.718H352.427H352.135L351.843 251.044H351.551H351.259H350.968H350.676H350.384H350.092H349.801H349.509H349.217H348.926H348.634H348.342L348.05 251.336H347.759L303.706 256.885L259.361 262.434L267.238 291.929L301.08 287.549L311.582 286.381L342.799 282.292H344.258L348.634 281.708C350.092 281.416 351.551 281.416 353.01 281.124H353.302C357.095 281.124 360.304 282.292 363.513 287.257L364.971 289.885L366.138 291.929C368.472 295.142 370.515 296.31 374.891 295.726L427.987 289.009L433.531 309.744L438.199 326.389L391.812 332.23C384.81 333.106 380.725 331.354 376.933 325.513L374.599 321.717C373.724 320.841 373.14 319.965 372.557 319.381H372.265V319.089H371.973C370.223 317.92 368.18 317.92 365.847 318.212L321.794 324.053L277.157 329.602L288.243 370.779L332.005 365.23H332.88L349.801 363.186L375.182 359.973L376.933 359.682C381.892 359.097 383.643 362.31 383.935 364.062L385.101 368.15V368.443V368.735H385.393V369.027V369.319V369.611H385.685V369.903V370.195L385.977 370.487V370.779L386.269 371.071V371.363H386.56V371.655C388.311 373.991 390.936 375.159 396.479 374.575L445.784 368.15C446.951 368.15 448.118 367.859 449.285 367.566H449.576L449.868 367.274H450.743L451.035 366.983L451.91 366.69H452.202L453.077 366.398H453.369L453.952 366.106H454.244C456.578 365.23 458.62 364.354 460.371 363.186L461.246 362.602H461.538L462.121 362.018H462.413V361.726H462.705H462.997V361.434H463.288V361.142H463.58L463.872 360.849H464.164V360.558H464.455V360.266H464.747V359.973H465.039L465.33 359.682H465.622V359.389H465.914V359.097H466.206V358.805H466.497V358.513H466.789V358.221H467.081V357.929H467.373V357.637H467.664V357.345H467.956V357.053H468.248V356.761H468.54V356.469H468.832V356.177H469.123V355.885V355.593H469.415V355.301L469.707 355.009H469.998V354.717L470.29 354.425V354.133H470.582V353.841H470.873V353.549V353.257H471.165V352.965H471.457V352.673L471.749 352.088L472.332 351.212L472.624 350.628V350.336H472.916V350.044V349.752H473.208V349.46C473.499 348.876 473.791 348.292 474.083 347.708V347.416L474.374 346.832V346.54L474.666 345.956V345.664L474.958 345.08V344.788L475.25 344.204V343.911L475.541 343.62V343.327V343.035V342.451L475.833 342.159V341.867V341.283H476.125V340.991V340.407V340.115V339.823L476.417 339.531V339.239V338.655V337.779L476.708 337.487V336.903V336.611C476.708 336.027 476.708 335.443 476.708 335.15V334.859V333.983V333.106L477 332.23L476.708 331.354V331.062V330.77V330.186V329.31V328.434V328.142V327.558V327.266L476.417 326.682V326.389C476.417 325.805 476.417 325.221 476.417 324.637L476.125 323.761V322.593L475.833 321.717C475.541 320.257 475.25 318.505 474.666 317.044L465.914 284.044L462.997 273.531L437.031 175.699L398.813 180.372L387.727 181.832L374.015 183.584L345.425 187.089L345.133 187.38H344.841H344.55H344.258H343.966H343.674H343.383C343.091 187.38 342.799 187.38 342.215 187.38C341.924 187.38 341.34 187.089 340.757 187.089C339.882 186.796 339.298 186.504 338.423 186.213V185.92C337.839 185.628 337.256 185.336 336.964 184.752H336.672L336.381 184.46C336.381 184.46 336.381 184.168 336.089 184.168V183.876L335.797 183.584V183.292V183H335.506V182.708V182.416H335.214V182.124V181.832L332.005 170.442V170.15V169.858L331.713 169.566V169.274V168.982L331.421 168.69L331.129 168.398V168.106L330.838 167.814V167.522H330.546L330.254 167.23L329.962 166.938L329.671 166.646H329.379V166.354H329.087L328.795 166.062H328.504L328.212 165.77H327.92H327.629C327.337 165.478 327.045 165.478 326.753 165.478H326.462H326.17L325.878 165.186H325.294H325.003H324.711H324.419H324.127H323.836L323.544 165.478H323.252H321.794L236.313 176.283H236.022L198.387 180.956L197.804 179.496Z" fill="white"/>
</svg>
