<svg width="630" height="630" viewBox="0 0 630 630" fill="none" xmlns="http://www.w3.org/2000/svg">
<rect width="630" height="630" fill="#181816"/>
<path d="M456.433 417H302.567C302.254 417 302 418.507 302 420.365V466.635C302 468.493 302.254 470 302.567 470H456.433C456.746 470 457 468.493 457 466.635V420.365C457 418.507 456.746 417 456.433 417Z" fill="#F4F4F5"/>
<path d="M360.124 163.922V199.088C360.124 201.807 357.92 204.011 355.201 204.011H233.63C230.911 204.011 228.707 206.215 228.707 208.933V285.489C228.707 288.208 230.911 290.412 233.63 290.412H326.245C328.964 290.412 331.168 292.616 331.168 295.334V331.841C331.168 334.56 328.964 336.764 326.245 336.764H233.63C230.911 336.764 228.707 338.968 228.707 341.686V464.806C228.707 467.525 226.503 469.729 223.785 469.729H177.922C175.204 469.729 173 467.525 173 464.806V163.922C173 161.204 175.204 159 177.922 159H355.201C357.92 159 360.124 161.204 360.124 163.922Z" fill="#F4F4F5"/>
</svg>
