<svg width="630" height="630" viewBox="0 0 630 630" fill="none" xmlns="http://www.w3.org/2000/svg">
<rect width="630" height="630" fill="white"/>
<path d="M324.886 140.461C324.886 135.235 320.68 131 315.496 131C310.312 131 306.105 135.235 306.105 140.461V197.186C306.105 202.413 310.312 206.647 315.496 206.647C320.68 206.647 324.886 202.413 324.886 197.186V140.461Z" fill="white"/>
<path d="M324.886 140.461C324.886 135.235 320.68 131 315.496 131C310.312 131 306.105 135.235 306.105 140.461V197.186C306.105 202.413 310.312 206.647 315.496 206.647C320.68 206.647 324.886 202.413 324.886 197.186V140.461Z" fill="url(#paint0_linear_4436_806)"/>
<path d="M178.355 300.698C179.602 298.527 179.939 295.951 179.295 293.531C178.65 291.111 177.075 289.045 174.913 287.781L126.092 259.412C125.024 258.79 123.843 258.385 122.618 258.222C121.393 258.059 120.148 258.141 118.955 258.462C117.761 258.784 116.643 259.338 115.666 260.095C114.688 260.851 113.87 261.793 113.26 262.868C112.013 265.039 111.675 267.616 112.32 270.035C112.965 272.455 114.539 274.521 116.701 275.785L165.523 304.14C166.591 304.762 167.771 305.167 168.996 305.33C170.222 305.493 171.467 305.411 172.66 305.09C173.853 304.768 174.971 304.213 175.949 303.457C176.926 302.701 177.744 301.759 178.355 300.684V300.698Z" fill="white"/>
<path d="M178.355 300.698C179.602 298.527 179.939 295.951 179.295 293.531C178.65 291.111 177.075 289.045 174.913 287.781L126.092 259.412C125.024 258.79 123.843 258.385 122.618 258.222C121.393 258.059 120.148 258.141 118.955 258.462C117.761 258.784 116.643 259.338 115.666 260.095C114.688 260.851 113.87 261.793 113.26 262.868C112.013 265.039 111.675 267.616 112.32 270.035C112.965 272.455 114.539 274.521 116.701 275.785L165.523 304.14C166.591 304.762 167.771 305.167 168.996 305.33C170.222 305.493 171.467 305.411 172.66 305.09C173.853 304.768 174.971 304.213 175.949 303.457C176.926 302.701 177.744 301.759 178.355 300.684V300.698Z" fill="url(#paint1_linear_4436_806)"/>
<path d="M440.208 174.731C441.455 172.56 441.792 169.983 441.148 167.564C440.503 165.144 438.928 163.078 436.766 161.814C435.699 161.192 434.518 160.788 433.293 160.625C432.068 160.462 430.823 160.543 429.629 160.865C428.436 161.186 427.318 161.741 426.341 162.497C425.363 163.253 424.545 164.196 423.934 165.27L395.749 214.389C394.502 216.561 394.165 219.137 394.809 221.557C395.454 223.976 397.029 226.043 399.191 227.306C400.258 227.928 401.439 228.333 402.664 228.496C403.889 228.659 405.134 228.577 406.328 228.256C407.521 227.934 408.639 227.379 409.616 226.623C410.594 225.867 411.412 224.925 412.023 223.85L440.208 174.731Z" fill="white"/>
<path d="M440.208 174.731C441.455 172.56 441.792 169.983 441.148 167.564C440.503 165.144 438.928 163.078 436.766 161.814C435.699 161.192 434.518 160.788 433.293 160.625C432.068 160.462 430.823 160.543 429.629 160.865C428.436 161.186 427.318 161.741 426.341 162.497C425.363 163.253 424.545 164.196 423.934 165.27L395.749 214.389C394.502 216.561 394.165 219.137 394.809 221.557C395.454 223.976 397.029 226.043 399.191 227.306C400.258 227.928 401.439 228.333 402.664 228.496C403.889 228.659 405.134 228.577 406.328 228.256C407.521 227.934 408.639 227.379 409.616 226.623C410.594 225.867 411.412 224.925 412.023 223.85L440.208 174.731Z" fill="url(#paint2_linear_4436_806)"/>
<path d="M231.817 227.361C233.979 226.097 235.554 224.031 236.198 221.611C236.843 219.192 236.505 216.615 235.259 214.444L207.073 165.325C206.462 164.25 205.644 163.308 204.667 162.552C203.689 161.795 202.572 161.241 201.378 160.919C200.185 160.598 198.94 160.516 197.715 160.679C196.49 160.842 195.309 161.247 194.241 161.869C192.079 163.132 190.504 165.199 189.86 167.618C189.215 170.038 189.553 172.614 190.799 174.786L218.985 223.905C219.596 224.979 220.414 225.922 221.391 226.678C222.369 227.434 223.486 227.989 224.68 228.31C225.873 228.632 227.118 228.713 228.343 228.55C229.569 228.387 230.749 227.983 231.817 227.361V227.361Z" fill="white"/>
<path d="M231.817 227.361C233.979 226.097 235.554 224.031 236.198 221.611C236.843 219.192 236.505 216.615 235.259 214.444L207.073 165.325C206.462 164.25 205.644 163.308 204.667 162.552C203.689 161.795 202.572 161.241 201.378 160.919C200.185 160.598 198.94 160.516 197.715 160.679C196.49 160.842 195.309 161.247 194.241 161.869C192.079 163.132 190.504 165.199 189.86 167.618C189.215 170.038 189.553 172.614 190.799 174.786L218.985 223.905C219.596 224.979 220.414 225.922 221.391 226.678C222.369 227.434 223.486 227.989 224.68 228.31C225.873 228.632 227.118 228.713 228.343 228.55C229.569 228.387 230.749 227.983 231.817 227.361V227.361Z" fill="url(#paint3_linear_4436_806)"/>
<path d="M514.299 275.785C516.46 274.521 518.035 272.455 518.68 270.035C519.325 267.616 518.987 265.039 517.74 262.868C517.129 261.793 516.312 260.851 515.334 260.095C514.357 259.338 513.239 258.784 512.045 258.462C510.852 258.141 509.607 258.059 508.382 258.222C507.157 258.385 505.976 258.79 504.908 259.412L456.087 287.781C453.925 289.045 452.35 291.111 451.705 293.531C451.061 295.951 451.398 298.527 452.645 300.698C453.256 301.773 454.074 302.715 455.051 303.471C456.029 304.228 457.146 304.782 458.34 305.104C459.533 305.425 460.778 305.507 462.003 305.344C463.229 305.181 464.409 304.777 465.477 304.154L514.299 275.799V275.785Z" fill="white"/>
<path d="M514.299 275.785C516.46 274.521 518.035 272.455 518.68 270.035C519.325 267.616 518.987 265.039 517.74 262.868C517.129 261.793 516.312 260.851 515.334 260.095C514.357 259.338 513.239 258.784 512.045 258.462C510.852 258.141 509.607 258.059 508.382 258.222C507.157 258.385 505.976 258.79 504.908 259.412L456.087 287.781C453.925 289.045 452.35 291.111 451.705 293.531C451.061 295.951 451.398 298.527 452.645 300.698C453.256 301.773 454.074 302.715 455.051 303.471C456.029 304.228 457.146 304.782 458.34 305.104C459.533 305.425 460.778 305.507 462.003 305.344C463.229 305.181 464.409 304.777 465.477 304.154L514.299 275.799V275.785Z" fill="url(#paint4_linear_4436_806)"/>
<path d="M402.759 412.008V489.539C402.759 495.346 398.878 499.227 393.071 499.227H238.009C232.188 499.227 228.321 495.346 228.321 489.539V412.008H305.852V499.227H325.228V412.008H402.759ZM305.852 344.179H218.633C212.826 344.179 208.945 348.06 208.945 353.867V382.945C208.945 388.752 212.826 392.632 218.633 392.632H305.852V344.179V344.179ZM412.447 344.179H325.228V392.632H412.447C418.254 392.632 422.135 388.752 422.135 382.945V353.867C422.135 348.06 418.254 344.179 412.447 344.179V344.179ZM384.346 333.514L385.31 329.633C389.19 319.945 388.213 308.317 382.406 299.592C376.599 290.867 365.934 286.023 355.269 286.023C341.7 286.023 330.072 293.771 325.228 306.376L305.852 353.867H354.306C366.897 353.867 379.503 346.119 384.346 333.514V333.514ZM343.641 313.161C344.599 310.867 346.214 308.907 348.283 307.528C350.352 306.15 352.783 305.414 355.269 305.413C359.15 305.413 363.016 307.354 365.934 311.235C367.874 315.115 368.837 318.982 366.897 322.863L365.934 326.744C364.976 329.038 363.361 330.997 361.291 332.376C359.222 333.754 356.792 334.49 354.306 334.491H334.93L343.655 313.175L343.641 313.161ZM305.852 306.376C301.008 293.785 288.403 286.023 275.811 286.023C265.146 286.023 254.495 290.867 248.674 300.555C242.853 309.28 241.89 319.931 245.77 330.596L246.734 334.477C251.578 346.105 264.169 353.853 276.774 353.853H324.265L305.852 306.362V306.376ZM287.44 313.161L296.164 334.477H276.789C274.302 334.476 271.872 333.74 269.803 332.362C267.734 330.983 266.119 329.024 265.16 326.729L263.22 322.849C262.257 318.968 262.257 314.124 265.16 311.22C267.101 307.34 270.982 305.399 275.826 305.399C278.312 305.4 280.742 306.136 282.811 307.514C284.88 308.893 286.496 310.852 287.454 313.147L287.44 313.161Z" fill="url(#paint5_linear_4436_806)"/>
<path d="M402.759 412.008V489.539C402.759 495.346 398.878 499.227 393.071 499.227H238.009C232.188 499.227 228.321 495.346 228.321 489.539V412.008H305.852V499.227H325.228V412.008H402.759ZM305.852 344.179H218.633C212.826 344.179 208.945 348.06 208.945 353.867V382.945C208.945 388.752 212.826 392.632 218.633 392.632H305.852V344.179V344.179ZM412.447 344.179H325.228V392.632H412.447C418.254 392.632 422.135 388.752 422.135 382.945V353.867C422.135 348.06 418.254 344.179 412.447 344.179V344.179ZM384.346 333.514L385.31 329.633C389.19 319.945 388.213 308.317 382.406 299.592C376.599 290.867 365.934 286.023 355.269 286.023C341.7 286.023 330.072 293.771 325.228 306.376L305.852 353.867H354.306C366.897 353.867 379.503 346.119 384.346 333.514V333.514ZM343.641 313.161C344.599 310.867 346.214 308.907 348.283 307.528C350.352 306.15 352.783 305.414 355.269 305.413C359.15 305.413 363.016 307.354 365.934 311.235C367.874 315.115 368.837 318.982 366.897 322.863L365.934 326.744C364.976 329.038 363.361 330.997 361.291 332.376C359.222 333.754 356.792 334.49 354.306 334.491H334.93L343.655 313.175L343.641 313.161ZM305.852 306.376C301.008 293.785 288.403 286.023 275.811 286.023C265.146 286.023 254.495 290.867 248.674 300.555C242.853 309.28 241.89 319.931 245.77 330.596L246.734 334.477C251.578 346.105 264.169 353.853 276.774 353.853H324.265L305.852 306.362V306.376ZM287.44 313.161L296.164 334.477H276.789C274.302 334.476 271.872 333.74 269.803 332.362C267.734 330.983 266.119 329.024 265.16 326.729L263.22 322.849C262.257 318.968 262.257 314.124 265.16 311.22C267.101 307.34 270.982 305.399 275.826 305.399C278.312 305.4 280.742 306.136 282.811 307.514C284.88 308.893 286.496 310.852 287.454 313.147L287.44 313.161Z" fill="url(#paint6_linear_4436_806)"/>
<path d="M402.759 412.008V489.539C402.759 495.346 398.878 499.227 393.071 499.227H238.009C232.188 499.227 228.321 495.346 228.321 489.539V412.008H305.852V499.227H325.228V412.008H402.759ZM305.852 344.179H218.633C212.826 344.179 208.945 348.06 208.945 353.867V382.945C208.945 388.752 212.826 392.632 218.633 392.632H305.852V344.179V344.179ZM412.447 344.179H325.228V392.632H412.447C418.254 392.632 422.135 388.752 422.135 382.945V353.867C422.135 348.06 418.254 344.179 412.447 344.179V344.179ZM384.346 333.514L385.31 329.633C389.19 319.945 388.213 308.317 382.406 299.592C376.599 290.867 365.934 286.023 355.269 286.023C341.7 286.023 330.072 293.771 325.228 306.376L305.852 353.867H354.306C366.897 353.867 379.503 346.119 384.346 333.514V333.514ZM343.641 313.161C344.599 310.867 346.214 308.907 348.283 307.528C350.352 306.15 352.783 305.414 355.269 305.413C359.15 305.413 363.016 307.354 365.934 311.235C367.874 315.115 368.837 318.982 366.897 322.863L365.934 326.744C364.976 329.038 363.361 330.997 361.291 332.376C359.222 333.754 356.792 334.49 354.306 334.491H334.93L343.655 313.175L343.641 313.161ZM305.852 306.376C301.008 293.785 288.403 286.023 275.811 286.023C265.146 286.023 254.495 290.867 248.674 300.555C242.853 309.28 241.89 319.931 245.77 330.596L246.734 334.477C251.578 346.105 264.169 353.853 276.774 353.853H324.265L305.852 306.362V306.376ZM287.44 313.161L296.164 334.477H276.789C274.302 334.476 271.872 333.74 269.803 332.362C267.734 330.983 266.119 329.024 265.16 326.729L263.22 322.849C262.257 318.968 262.257 314.124 265.16 311.22C267.101 307.34 270.982 305.399 275.826 305.399C278.312 305.4 280.742 306.136 282.811 307.514C284.88 308.893 286.496 310.852 287.454 313.147L287.44 313.161Z" fill="url(#paint7_linear_4436_806)"/>
<defs>
<linearGradient id="paint0_linear_4436_806" x1="451.168" y1="119.372" x2="370.635" y2="390.334" gradientUnits="userSpaceOnUse">
<stop stop-color="#80D7FF"/>
<stop offset="1" stop-color="#E980FC"/>
</linearGradient>
<linearGradient id="paint1_linear_4436_806" x1="451.173" y1="119.363" x2="370.639" y2="390.325" gradientUnits="userSpaceOnUse">
<stop stop-color="#80D7FF"/>
<stop offset="1" stop-color="#E980FC"/>
</linearGradient>
<linearGradient id="paint2_linear_4436_806" x1="451.171" y1="119.352" x2="370.637" y2="390.314" gradientUnits="userSpaceOnUse">
<stop stop-color="#80D7FF"/>
<stop offset="1" stop-color="#E980FC"/>
</linearGradient>
<linearGradient id="paint3_linear_4436_806" x1="451.168" y1="119.392" x2="370.634" y2="390.355" gradientUnits="userSpaceOnUse">
<stop stop-color="#80D7FF"/>
<stop offset="1" stop-color="#E980FC"/>
</linearGradient>
<linearGradient id="paint4_linear_4436_806" x1="451.172" y1="119.349" x2="370.638" y2="390.311" gradientUnits="userSpaceOnUse">
<stop stop-color="#80D7FF"/>
<stop offset="1" stop-color="#E980FC"/>
</linearGradient>
<linearGradient id="paint5_linear_4436_806" x1="315.54" y1="286.038" x2="315.54" y2="694.854" gradientUnits="userSpaceOnUse">
<stop stop-color="white"/>
<stop offset="1" stop-color="white" stop-opacity="0"/>
</linearGradient>
<linearGradient id="paint6_linear_4436_806" x1="315.54" y1="286.038" x2="315.54" y2="499.227" gradientUnits="userSpaceOnUse">
<stop offset="0.505" stop-color="white"/>
<stop offset="1" stop-color="white" stop-opacity="0"/>
</linearGradient>
<linearGradient id="paint7_linear_4436_806" x1="386.599" y1="271.817" x2="217.826" y2="515.218" gradientUnits="userSpaceOnUse">
<stop stop-color="#80D7FF"/>
<stop offset="1" stop-color="#E980FC"/>
</linearGradient>
</defs>
</svg>
