<svg width="630" height="630" viewBox="0 0 630 630" fill="none" xmlns="http://www.w3.org/2000/svg">
<rect width="630" height="630" fill="url(#paint0_linear_4442_979)"/>
<path d="M287.025 406.95L286.951 406.874C286.989 406.912 287.063 406.912 287.101 406.95H287.025ZM248.463 376.074V376.037C248.463 376.074 248.5 376.112 248.5 376.112L248.463 376.074ZM294.423 300.952L342.974 363.154H394.152V406.799H328.93C278.314 406.799 237.123 365.632 237.123 315C237.123 264.368 278.314 223.201 328.93 223.201H432.453L383.939 161H324.95C240.052 161 171 230.075 171 315C171 399.926 240.052 469 324.95 469H459L458.925 300.952H294.423Z" fill="white"/>
<defs>
<linearGradient id="paint0_linear_4442_979" x1="605.5" y1="42" x2="30" y2="605.5" gradientUnits="userSpaceOnUse">
<stop stop-color="#345ED9"/>
<stop offset="1" stop-color="#9346D5"/>
</linearGradient>
</defs>
</svg>
