<svg width="630" height="630" viewBox="0 0 630 630" fill="none" xmlns="http://www.w3.org/2000/svg">
<rect width="630" height="630" fill="#8F64F2"/>
<g clip-path="url(#clip0_2707_91)">
<path d="M191.062 241.2C182.654 241.2 174.306 242.622 166.375 245.407V192H117V388.8H166.375V315C166.375 308.476 168.976 302.219 173.606 297.605C178.236 292.992 184.515 290.4 191.062 290.4C197.61 290.4 203.889 292.992 208.519 297.605C213.149 302.219 215.75 308.476 215.75 315V388.8H265.125V315C265.125 295.427 257.322 276.656 243.433 262.816C229.543 248.975 210.705 241.2 191.062 241.2Z" fill="white"/>
<path d="M314.5 241.199C299.852 241.199 285.533 245.528 273.353 253.637C261.174 261.746 251.681 273.272 246.075 286.757C240.47 300.242 239.003 315.081 241.861 329.397C244.718 343.713 251.772 356.863 262.13 367.184C272.488 377.505 285.684 384.534 300.051 387.381C314.418 390.229 329.309 388.767 342.843 383.182C356.376 377.596 367.943 368.137 376.081 356C384.219 343.864 388.563 329.595 388.563 314.999C388.563 295.426 380.76 276.655 366.87 262.815C352.981 248.975 334.143 241.199 314.5 241.199ZM314.5 339.599C309.617 339.599 304.844 338.156 300.784 335.453C296.725 332.75 293.56 328.908 291.692 324.413C289.823 319.918 289.334 314.972 290.287 310.2C291.239 305.428 293.591 301.045 297.043 297.604C300.496 294.164 304.895 291.821 309.684 290.872C314.473 289.923 319.436 290.41 323.948 292.272C328.459 294.134 332.314 297.287 335.027 301.332C337.74 305.378 339.188 310.134 339.188 314.999C339.188 321.524 336.587 327.781 331.957 332.394C327.327 337.007 321.048 339.599 314.5 339.599Z" fill="white"/>
<path d="M437.938 241.199C418.295 241.199 399.457 248.975 385.567 262.815C371.678 276.655 363.875 295.426 363.875 314.999V437.999H413.25V384.593C423.418 388.168 434.247 389.488 444.98 388.461C455.713 387.433 466.092 384.083 475.391 378.644C484.689 373.205 492.684 365.808 498.816 356.97C504.949 348.133 509.07 338.067 510.894 327.478C512.717 316.888 512.197 306.029 509.372 295.661C506.546 285.292 501.483 275.662 494.535 267.446C487.587 259.229 478.923 252.624 469.147 248.09C459.371 243.557 448.72 241.205 437.938 241.199ZM437.938 339.599C433.055 339.599 428.282 338.156 424.222 335.453C420.162 332.75 416.998 328.908 415.129 324.413C413.261 319.918 412.772 314.972 413.724 310.2C414.677 305.428 417.028 301.045 420.481 297.604C423.933 294.164 428.332 291.821 433.121 290.872C437.91 289.923 442.874 290.41 447.385 292.272C451.896 294.134 455.752 297.287 458.464 301.332C461.177 305.378 462.625 310.134 462.625 314.999C462.625 321.524 460.024 327.781 455.394 332.394C450.764 337.007 444.485 339.599 437.938 339.599Z" fill="white"/>
</g>
<defs>
<clipPath id="clip0_2707_91">
<rect width="395" height="246" fill="white" transform="translate(117 192)"/>
</clipPath>
</defs>
</svg>
