<svg width="630" height="630" viewBox="0 0 630 630" fill="none" xmlns="http://www.w3.org/2000/svg">
<rect width="630" height="630" fill="#E1EB55"/>
<path d="M304.269 313.458C294.429 327.885 278.297 347.653 258.936 365.169C233.545 388.141 207.036 403.198 184.888 403.198C135.924 403.198 96 363.211 96 313.599C96 263.987 135.924 224 184.888 224C207.328 224 232.788 237.973 257.304 259.88C276.608 277.13 293.13 297.34 304.269 313.458Z" stroke="black" stroke-width="42"/>
<path d="M326.137 313.405C345.257 340.294 362.674 362.328 380.961 378.242C401.161 395.821 421.409 405.042 445.362 405.042C494.143 405.042 534 365.1 534 315.443C534 265.785 494.143 225.844 445.362 225.844C421.946 225.844 397.928 237.302 375.154 256.585C356.131 272.691 339.293 293.179 326.137 313.405Z" stroke="black" stroke-width="42"/>
</svg>
