<svg width="630" height="630" viewBox="0 0 630 630" fill="none" xmlns="http://www.w3.org/2000/svg">
<rect width="630" height="630" fill="#151A20"/>
<path fill-rule="evenodd" clip-rule="evenodd" d="M281.369 533.385V466.757C306.607 461.313 329.536 449.62 348.471 433.37V533.255C453.012 516.866 533 426.037 533 316.446C533 195.25 435.174 97 314.5 97C193.826 97 96 195.25 96 316.446C96 426.331 176.417 517.352 281.369 533.385ZM401.312 316.867C401.312 364.787 362.632 403.634 314.919 403.634C267.205 403.634 228.525 364.787 228.525 316.867C228.525 268.946 267.205 230.1 314.919 230.1C362.632 230.1 401.312 268.946 401.312 316.867Z" fill="url(#paint0_linear_1790_511)"/>
<path opacity="0.8" fill-rule="evenodd" clip-rule="evenodd" d="M249.076 468.049C333.618 468.049 402.152 399.611 402.152 315.189C402.152 230.766 333.618 162.328 249.076 162.328C164.534 162.328 96 230.766 96 315.189C96 399.611 164.534 468.049 249.076 468.049ZM314.919 401.88C362.632 401.88 401.312 363.254 401.312 315.607C401.312 267.961 362.632 229.336 314.919 229.336C267.205 229.336 228.525 267.961 228.525 315.607C228.525 363.254 267.205 401.88 314.919 401.88Z" fill="url(#paint1_linear_1790_511)"/>
<path opacity="0.6" fill-rule="evenodd" clip-rule="evenodd" d="M273.399 443.758C344.506 443.758 402.15 386.195 402.15 315.187C402.15 244.18 344.506 186.617 273.399 186.617C202.291 186.617 144.647 244.18 144.647 315.187C144.647 386.195 202.291 443.758 273.399 443.758ZM314.918 401.878C362.631 401.878 401.311 363.253 401.311 315.606C401.311 267.959 362.631 229.335 314.918 229.335C267.204 229.335 228.524 267.959 228.524 315.606C228.524 363.253 267.204 401.878 314.918 401.878Z" fill="url(#paint2_linear_1790_511)"/>
<path fill-rule="evenodd" clip-rule="evenodd" d="M297.305 420.316C355.21 420.316 402.151 373.44 402.151 315.617C402.151 257.793 355.21 210.918 297.305 210.918C239.399 210.918 192.458 257.793 192.458 315.617C192.458 373.44 239.399 420.316 297.305 420.316ZM314.919 401.889C362.633 401.889 401.312 363.263 401.312 315.617C401.312 267.97 362.633 229.345 314.919 229.345C267.205 229.345 228.525 267.97 228.525 315.617C228.525 363.263 267.205 401.889 314.919 401.889Z" fill="url(#paint3_linear_1790_511)"/>
<defs>
<linearGradient id="paint0_linear_1790_511" x1="314.5" y1="97" x2="314.923" y2="542.631" gradientUnits="userSpaceOnUse">
<stop stop-color="#08C5EE"/>
<stop offset="0.755208" stop-color="#B84EAA"/>
<stop offset="0.921875" stop-color="#EE017E"/>
</linearGradient>
<linearGradient id="paint1_linear_1790_511" x1="249.076" y1="162.328" x2="249.076" y2="468.049" gradientUnits="userSpaceOnUse">
<stop offset="0.0104167" stop-color="#3368B8"/>
<stop offset="0.65625" stop-color="#AF4FA7"/>
<stop offset="1" stop-color="#FF3FBF"/>
</linearGradient>
<linearGradient id="paint2_linear_1790_511" x1="273.399" y1="186.617" x2="273.399" y2="443.758" gradientUnits="userSpaceOnUse">
<stop offset="0.0104167" stop-color="#3368B8"/>
<stop offset="0.65625" stop-color="#AF4FA7"/>
<stop offset="1" stop-color="#FF3FBF"/>
</linearGradient>
<linearGradient id="paint3_linear_1790_511" x1="297.305" y1="210.918" x2="297.305" y2="420.316" gradientUnits="userSpaceOnUse">
<stop offset="0.0104167" stop-color="#3368B8"/>
<stop offset="0.65625" stop-color="#AF4FA7"/>
<stop offset="1" stop-color="#FF3FBF"/>
</linearGradient>
</defs>
</svg>
