<svg width="630" height="630" viewBox="0 0 630 630" fill="none" xmlns="http://www.w3.org/2000/svg">
<g clip-path="url(#clip0_2707_94)">
<rect width="630" height="630" fill="#169958"/>
<mask id="mask0_2707_94" style="mask-type:luminance" maskUnits="userSpaceOnUse" x="151" y="146" width="1594" height="338">
<path d="M1744.83 146H151V484H1744.83V146Z" fill="white"/>
</mask>
<g mask="url(#mask0_2707_94)">
<path d="M470.419 471.612L462.938 465.221H229.39C227.752 465.224 226.167 464.632 224.923 463.551L160.967 409.07H157.952C156.53 409.067 155.141 409.507 153.974 410.332C152.808 411.156 151.92 412.325 151.432 413.679C150.944 415.032 150.879 416.505 151.247 417.898C151.614 419.29 152.396 420.535 153.486 421.46L224.923 482.503C226.176 483.564 227.757 484.146 229.39 484.144H465.925C467.384 484.191 468.82 483.771 470.027 482.941C471.236 482.113 472.155 480.918 472.654 479.529C473.152 478.139 473.204 476.626 472.803 475.204C472.402 473.783 471.567 472.525 470.419 471.612Z" fill="white"/>
<path d="M470.419 434.044L462.938 427.651H229.39C227.752 427.654 226.167 427.062 224.923 425.981L160.967 371.359H157.952C156.53 371.357 155.141 371.796 153.974 372.621C152.808 373.445 151.92 374.614 151.432 375.968C150.944 377.321 150.879 378.795 151.247 380.187C151.614 381.579 152.396 382.824 153.486 383.749L224.923 444.765C226.167 445.845 227.752 446.438 229.39 446.434H465.925C467.35 446.442 468.742 446.007 469.914 445.185C471.085 444.363 471.976 443.194 472.469 441.838C472.96 440.484 473.026 439.008 472.66 437.613C472.293 436.218 471.511 434.971 470.419 434.044Z" fill="white"/>
<path d="M470.418 283.814L462.936 277.422H229.388C227.753 277.435 226.168 276.854 224.921 275.782L160.965 221.159H157.95C156.494 221.118 155.062 221.543 153.859 222.374C152.655 223.206 151.741 224.4 151.246 225.788C150.751 227.177 150.701 228.687 151.103 230.106C151.505 231.525 152.338 232.779 153.484 233.69L226.848 296.204L312.83 369.75C314.09 370.818 315.682 371.399 317.325 371.391H375.028L382.509 377.784C383.593 378.715 384.371 379.96 384.735 381.352C385.1 382.744 385.034 384.217 384.547 385.57C384.06 386.923 383.176 388.093 382.013 388.921C380.849 389.749 379.464 390.196 378.042 390.202H317.325C315.701 390.164 314.141 389.554 312.914 388.476L248.706 333.797H157.95C156.528 333.793 155.139 334.234 153.972 335.058C152.806 335.883 151.918 337.051 151.43 338.406C150.942 339.759 150.877 341.233 151.245 342.625C151.612 344.017 152.394 345.261 153.484 346.187L224.921 407.202C226.165 408.282 227.75 408.874 229.388 408.87H465.923C467.347 408.871 468.736 408.428 469.904 407.603C471.071 406.776 471.961 405.607 472.451 404.253C472.941 402.899 473.01 401.423 472.645 400.028C472.281 398.634 471.504 397.386 470.418 396.452L375.028 314.987H317.325C315.712 314.963 314.158 314.385 312.914 313.345L292.813 296.204H465.896C467.322 296.22 468.719 295.788 469.894 294.968C471.07 294.147 471.967 292.98 472.461 291.623C472.957 290.266 473.026 288.789 472.66 287.391C472.294 285.993 471.511 284.743 470.418 283.814ZM312.914 332.129C314.173 333.196 315.766 333.778 317.408 333.769H375.055L382.509 340.133C383.588 341.063 384.36 342.305 384.721 343.692C385.081 345.079 385.015 346.544 384.527 347.891C384.041 349.239 383.158 350.402 381.999 351.226C380.838 352.049 379.458 352.492 378.042 352.495H317.325C315.717 352.499 314.159 351.94 312.914 350.911L248.706 296.204H270.704L312.914 332.129Z" fill="white"/>
<path d="M470.419 246.246L462.937 239.853H229.389C227.756 239.855 226.175 239.274 224.923 238.213L160.966 183.562H157.951C156.53 183.568 155.144 184.015 153.981 184.843C152.818 185.671 151.933 186.841 151.447 188.194C150.96 189.547 150.894 191.019 151.259 192.412C151.623 193.804 152.4 195.049 153.485 195.98L224.923 256.995C226.169 258.068 227.754 258.65 229.389 258.636H465.925C467.349 258.645 468.742 258.209 469.913 257.387C471.085 256.564 471.976 255.396 472.467 254.041C472.96 252.686 473.026 251.21 472.66 249.815C472.293 248.42 471.51 247.174 470.419 246.246Z" fill="white"/>
<path d="M153.488 158.39L224.926 219.546C226.179 220.607 227.76 221.188 229.393 221.187H465.928C467.352 221.196 468.746 220.76 469.917 219.937C471.087 219.115 471.98 217.947 472.471 216.592C472.962 215.237 473.03 213.761 472.663 212.366C472.297 210.971 471.514 209.725 470.423 208.797L398.985 147.641C397.727 146.59 396.149 146.01 394.518 146H157.955C156.533 145.996 155.144 146.437 153.977 147.261C152.811 148.086 151.923 149.254 151.435 150.608C150.947 151.962 150.882 153.435 151.25 154.827C151.617 156.22 152.399 157.463 153.488 158.39Z" fill="white"/>
<path d="M470.419 471.612L462.938 465.221H229.39C227.752 465.224 226.167 464.632 224.923 463.551L160.967 409.07H157.952C156.53 409.067 155.141 409.507 153.974 410.332C152.808 411.156 151.92 412.325 151.432 413.679C150.944 415.032 150.879 416.505 151.247 417.898C151.614 419.29 152.396 420.535 153.486 421.46L224.923 482.503C226.176 483.564 227.757 484.146 229.39 484.144H465.925C467.384 484.191 468.82 483.771 470.027 482.941C471.236 482.113 472.155 480.918 472.654 479.529C473.152 478.139 473.204 476.626 472.803 475.204C472.402 473.783 471.567 472.525 470.419 471.612Z" fill="white"/>
<path d="M470.419 434.044L462.938 427.651H229.39C227.752 427.654 226.167 427.062 224.923 425.981L160.967 371.359H157.952C156.53 371.357 155.141 371.796 153.974 372.621C152.808 373.445 151.92 374.614 151.432 375.968C150.944 377.321 150.879 378.795 151.247 380.187C151.614 381.579 152.396 382.824 153.486 383.749L224.923 444.765C226.167 445.845 227.752 446.438 229.39 446.434H465.925C467.35 446.442 468.742 446.007 469.914 445.185C471.085 444.363 471.976 443.194 472.469 441.838C472.96 440.484 473.026 439.008 472.66 437.613C472.293 436.218 471.511 434.971 470.419 434.044Z" fill="white"/>
<path d="M470.418 283.814L462.936 277.422H229.388C227.753 277.435 226.168 276.854 224.921 275.782L160.965 221.159H157.95C156.494 221.118 155.062 221.543 153.859 222.374C152.655 223.206 151.741 224.4 151.246 225.788C150.751 227.177 150.701 228.687 151.103 230.106C151.505 231.525 152.338 232.779 153.484 233.69L226.848 296.204L312.83 369.75C314.09 370.818 315.682 371.399 317.325 371.391H375.028L382.509 377.784C383.593 378.715 384.371 379.96 384.735 381.352C385.1 382.744 385.034 384.217 384.547 385.57C384.06 386.923 383.176 388.093 382.013 388.921C380.849 389.749 379.464 390.196 378.042 390.202H317.325C315.701 390.164 314.141 389.554 312.914 388.476L248.706 333.797H157.95C156.528 333.793 155.139 334.234 153.972 335.058C152.806 335.883 151.918 337.051 151.43 338.406C150.942 339.759 150.877 341.233 151.245 342.625C151.612 344.017 152.394 345.261 153.484 346.187L224.921 407.202C226.165 408.282 227.75 408.874 229.388 408.87H465.923C467.347 408.871 468.736 408.428 469.904 407.603C471.071 406.776 471.961 405.607 472.451 404.253C472.941 402.899 473.01 401.423 472.645 400.028C472.281 398.634 471.504 397.386 470.418 396.452L375.028 314.987H317.325C315.712 314.963 314.158 314.385 312.914 313.345L292.813 296.204H465.896C467.322 296.22 468.719 295.788 469.894 294.968C471.07 294.147 471.967 292.98 472.461 291.623C472.957 290.266 473.026 288.789 472.66 287.391C472.294 285.993 471.511 284.743 470.418 283.814ZM312.914 332.129C314.173 333.196 315.766 333.778 317.408 333.769H375.055L382.509 340.133C383.588 341.063 384.36 342.305 384.721 343.692C385.081 345.079 385.015 346.544 384.527 347.891C384.041 349.239 383.158 350.402 381.999 351.226C380.838 352.049 379.458 352.492 378.042 352.495H317.325C315.717 352.499 314.159 351.94 312.914 350.911L248.706 296.204H270.704L312.914 332.129Z" fill="white"/>
<path d="M470.419 246.246L462.937 239.853H229.389C227.756 239.855 226.175 239.274 224.923 238.213L160.966 183.562H157.951C156.53 183.568 155.144 184.015 153.981 184.843C152.818 185.671 151.933 186.841 151.447 188.194C150.96 189.547 150.894 191.019 151.259 192.412C151.623 193.804 152.4 195.049 153.485 195.98L224.923 256.995C226.169 258.068 227.754 258.65 229.389 258.636H465.925C467.349 258.645 468.742 258.209 469.913 257.387C471.085 256.564 471.976 255.396 472.467 254.041C472.96 252.686 473.026 251.21 472.66 249.815C472.293 248.42 471.51 247.174 470.419 246.246Z" fill="white"/>
<path d="M153.488 158.39L224.926 219.546C226.179 220.607 227.76 221.188 229.393 221.187H465.928C467.352 221.196 468.746 220.76 469.917 219.937C471.087 219.115 471.98 217.947 472.471 216.592C472.962 215.237 473.03 213.761 472.663 212.366C472.297 210.971 471.514 209.725 470.423 208.797L398.985 147.641C397.727 146.59 396.149 146.01 394.518 146H157.955C156.533 145.996 155.144 146.437 153.977 147.261C152.811 148.086 151.923 149.254 151.435 150.608C150.947 151.962 150.882 153.435 151.25 154.827C151.617 156.22 152.399 157.463 153.488 158.39Z" fill="white"/>
</g>
</g>
<defs>
<clipPath id="clip0_2707_94">
<rect width="630" height="630" fill="white"/>
</clipPath>
</defs>
</svg>
