<svg width="630" height="630" viewBox="0 0 630 630" fill="none" xmlns="http://www.w3.org/2000/svg">
<rect width="630" height="630" fill="#32375D"/>
<path d="M429.15 171H354.008C353.221 170.998 352.445 171.182 351.743 171.537C351.041 171.892 350.433 172.408 349.968 173.043L261.089 294.953V174.495C261.091 174.036 261.003 173.581 260.829 173.157C260.654 172.732 260.398 172.346 260.073 172.021C259.749 171.696 259.364 171.439 258.939 171.264C258.515 171.088 258.06 170.999 257.601 171H196.488C196.029 170.999 195.575 171.088 195.152 171.263C194.728 171.437 194.343 171.694 194.019 172.018C193.695 172.342 193.438 172.727 193.263 173.15C193.088 173.574 192.999 174.027 193 174.485V454.505C193 456.451 194.55 458 196.497 458H257.591C259.539 458 261.089 456.451 261.089 454.515V334.037L349.968 455.948C350.433 456.582 351.041 457.098 351.743 457.453C352.445 457.808 353.221 457.992 354.008 457.99H433.994C435.641 457.99 436.59 456.093 435.592 454.795L328.48 314.51L430.748 174.205C431.698 172.907 430.748 171 429.15 171Z" fill="#FDFDFD"/>
</svg>
