<svg width="630" height="630" viewBox="0 0 630 630" fill="none" xmlns="http://www.w3.org/2000/svg">
<rect width="630" height="630" fill="white"/>
<path d="M314.962 265.75C254.227 265.75 205 313.943 205 374.678C205 458.636 315.263 503.199 314.962 503.068C314.662 502.936 425 458.636 425 374.678C425 313.943 375.678 265.75 314.962 265.75ZM314.962 418.753C306.729 418.757 298.68 416.32 291.832 411.749C284.985 407.179 279.646 400.68 276.491 393.076C273.336 385.471 272.506 377.102 274.108 369.026C275.709 360.95 279.669 353.531 285.486 347.705C291.304 341.88 298.718 337.91 306.792 336.298C314.865 334.686 323.236 335.504 330.845 338.648C338.453 341.793 344.959 347.123 349.539 353.965C354.119 360.806 356.567 368.852 356.574 377.085C356.579 382.554 355.507 387.97 353.418 393.024C351.329 398.078 348.265 402.671 344.401 406.54C340.537 410.41 335.948 413.48 330.897 415.576C325.846 417.671 320.431 418.751 314.962 418.753Z" fill="#FF6F0F"/>
<path d="M339.71 127C314.043 127 296.179 144.939 293.378 166.037C259.155 156.635 232.341 182.527 232.341 211.165C232.341 233.053 247.384 250.747 267.447 256.482C283.619 261.089 312.746 257.667 312.746 257.667C312.595 250.578 319.101 242.812 329.161 235.742C357.724 215.641 380.082 206.182 383.542 178.767C387.152 150.166 365.866 127 339.71 127Z" fill="#00A05B"/>
</svg>
