<svg width="630" height="630" viewBox="0 0 630 630" fill="none" xmlns="http://www.w3.org/2000/svg">
<rect width="630" height="630" fill="#4C33DB"/>
<g style="mix-blend-mode:luminosity">
<path d="M315 492C412.754 492 492 412.754 492 315C492 217.246 412.754 138 315 138C217.246 138 138 217.246 138 315C138 412.754 217.246 492 315 492Z" fill="#4F33E4"/>
<path d="M350.593 349.594C347.427 349.602 344.334 350.547 341.702 352.309C339.071 354.07 337.02 356.571 335.806 359.495C334.597 362.421 334.285 365.64 334.908 368.743C335.532 371.847 337.063 374.695 339.308 376.927C341.554 379.156 344.408 380.672 347.513 381.284C350.618 381.895 353.834 381.575 356.757 380.364C359.681 379.153 362.181 377.105 363.943 374.476C365.706 371.848 366.652 368.758 366.663 365.594C366.665 362.421 365.722 359.32 363.955 356.685C362.188 354.051 359.676 352.002 356.74 350.801C354.79 349.999 352.701 349.589 350.593 349.594Z" fill="#FEFEFF"/>
<path d="M315 138C268.057 138 223.036 156.648 189.842 189.842C156.648 223.036 138 268.057 138 315C138 361.943 156.648 406.964 189.842 440.158C223.036 473.352 268.057 492 315 492C361.943 492 406.964 473.352 440.158 440.158C473.352 406.964 492 361.943 492 315C492 268.057 473.352 223.036 440.158 189.842C406.964 156.648 361.943 138 315 138ZM455.495 383.955C451.637 377.049 445.595 371.62 438.317 368.521C431.039 365.421 422.937 364.828 415.285 366.833C407.633 368.838 400.863 373.328 396.04 379.598C391.217 385.868 388.613 393.562 388.637 401.473V453.173C367.465 464.53 343.954 470.839 319.94 471.607C294.247 442.868 280.987 405.119 283.065 366.625C284.709 341.16 293.139 316.599 307.48 295.492C307.7 295.193 307.799 294.822 307.757 294.453C307.715 294.085 307.536 293.745 307.255 293.503C306.96 293.318 306.613 293.236 306.267 293.269C305.921 293.302 305.595 293.448 305.34 293.685C283.308 311.67 268.723 337.183 264.405 365.295C263.884 368.333 263.442 371.384 263.08 374.445C263.08 375.475 261.605 375.732 260.977 375.55C249.013 371.575 238.155 364.835 229.285 355.876C220.415 346.917 213.783 335.992 209.928 323.989C206.072 311.986 205.102 299.243 207.096 286.795C209.09 274.346 213.992 262.543 221.404 252.345C228.815 242.147 238.528 233.84 249.752 228.1C260.977 222.36 273.397 219.348 286.004 219.309C298.611 219.27 311.05 222.205 322.31 227.876C333.569 233.546 343.333 241.793 350.808 251.945C351.572 253.024 352.583 253.905 353.757 254.515C354.93 255.124 356.233 255.444 357.555 255.448H459.657C468.143 275.957 472.163 298.038 471.451 320.221C470.739 342.405 465.311 364.183 455.527 384.105L455.495 383.955Z" fill="white"/>
</g>
</svg>
