<svg width="630" height="630" viewBox="0 0 630 630" fill="none" xmlns="http://www.w3.org/2000/svg">
<rect width="630" height="630" fill="white"/>
<mask id="mask0_4442_964" style="mask-type:luminance" maskUnits="userSpaceOnUse" x="145" y="146" width="339" height="339">
<path d="M484 146H145V484.34H484V146Z" fill="white"/>
</mask>
<g mask="url(#mask0_4442_964)">
<mask id="mask1_4442_964" style="mask-type:luminance" maskUnits="userSpaceOnUse" x="145" y="146" width="339" height="339">
<path d="M484 146H145V484.34H484V146Z" fill="white"/>
</mask>
<g mask="url(#mask1_4442_964)">
<path d="M481.89 341.782C476.443 377.126 460.098 409.148 434.369 434.824C408.643 460.503 376.558 476.815 341.145 482.251C341.145 481.95 340.842 481.649 340.842 481.347V481.044C340.539 480.441 340.539 480.137 340.237 479.231C339.934 478.327 339.631 477.42 339.329 476.513C337.815 472.285 336.907 467.451 335.999 462.617V462.316C335.999 461.71 335.696 461.105 335.696 460.503V460.201C335.696 459.596 335.394 458.991 335.394 458.69V458.084C335.394 457.482 335.091 456.877 335.091 455.97C334.788 454.461 334.788 452.949 334.788 451.136V450.534C334.788 450.232 334.788 449.928 334.788 449.627V449.022C334.788 447.211 334.486 445.398 334.486 443.284C334.486 383.47 383.52 334.531 443.449 334.531C445.265 334.531 447.384 334.531 449.2 334.531H449.808C450.109 334.531 450.413 334.531 450.714 334.531H451.319C452.834 334.531 454.649 334.833 456.163 335.135C456.768 335.135 457.675 335.135 458.584 335.438C459.189 335.438 459.794 335.74 460.098 335.74H460.399C461.005 335.74 461.61 335.74 462.215 336.042H462.519C467.363 336.948 471.903 338.156 476.744 339.667C477.653 339.969 478.56 340.271 479.469 340.573C480.074 340.875 480.378 340.875 480.983 341.177H481.284C481.284 341.479 481.588 341.782 481.89 341.782Z" fill="#19212E"/>
<path opacity="0.6" d="M484.009 316.956H483.705C480.983 316.05 478.259 315.446 475.534 314.539C475.23 314.539 474.929 314.237 474.324 314.237C471.903 313.633 469.48 313.029 466.755 312.727C466.755 312.727 466.755 312.727 466.454 312.727C465.849 312.727 464.94 312.425 464.335 312.425H463.73C462.82 312.425 461.914 312.123 461.309 312.123C460.4 312.123 459.189 311.821 458.584 311.821C456.769 311.518 454.649 311.518 452.834 311.216C452.229 311.216 451.623 311.216 451.018 311.216H449.504C447.385 311.216 445.265 311.216 442.845 311.216C369.294 311.216 309.666 370.728 309.666 444.136C309.666 446.25 309.666 448.365 309.969 450.78V452.292C309.969 452.895 309.969 453.5 310.272 454.105C310.574 455.916 310.574 458.033 310.877 459.843C310.877 460.75 311.18 461.656 311.18 462.563C311.18 463.469 311.482 464.376 311.482 464.978C311.785 466.189 311.785 467.095 312.088 467.999C312.996 473.74 314.509 479.48 316.325 485.22C316.325 485.22 316.325 485.22 316.325 485.522C278.793 486.127 243.077 474.345 213.112 451.991C213.112 451.386 213.112 450.78 213.112 450.479C213.112 448.666 213.112 446.552 213.112 444.739C213.112 318.165 316.325 215.152 443.148 215.152C444.964 215.152 447.083 215.152 448.899 215.152C449.504 215.152 450.109 215.152 450.413 215.152C472.81 243.549 484.313 279.497 484.009 316.956Z" fill="#19212E"/>
<path opacity="0.3" d="M428.614 189.803C427.404 189.803 425.89 190.105 424.679 190.105C422.56 190.105 420.744 190.407 418.625 190.709C418.02 190.709 417.113 190.709 416.506 191.011C415.901 191.011 415.599 191.011 414.994 191.313C411.36 191.615 407.729 192.22 404.098 192.824C401.374 193.126 398.951 193.73 396.228 194.032C394.714 194.334 392.898 194.636 391.385 194.938C389.569 195.24 387.752 195.845 385.634 196.147C385.028 196.449 384.12 196.449 383.515 196.751C382.304 197.053 380.791 197.355 379.58 197.657C378.975 197.657 378.672 197.959 378.067 197.959C376.553 198.261 375.04 198.563 373.829 199.168C373.224 199.47 372.316 199.47 371.71 199.772C370.5 200.074 369.592 200.376 368.381 200.678C367.473 200.98 366.565 201.282 365.96 201.584C364.446 201.886 363.235 202.49 362.025 202.793C361.722 202.793 361.419 203.095 361.117 203.095C359.301 203.699 357.485 204.303 355.669 205.209C353.55 205.813 351.734 206.72 349.918 207.324C348.707 207.626 347.496 208.23 346.588 208.834C345.377 209.136 344.469 209.741 343.259 210.043C341.443 210.949 339.324 211.553 337.508 212.459C334.178 213.97 330.849 215.48 327.519 217.293C323.282 219.408 319.347 221.522 315.11 223.939C313.899 224.845 312.386 225.449 311.175 226.356C309.661 227.262 308.148 228.168 306.332 229.376C304.819 230.283 303.305 231.189 302.094 232.095C300.884 233.001 299.37 233.908 298.16 234.814C296.949 235.72 295.738 236.627 294.527 237.533C291.501 239.647 288.777 241.762 286.052 243.877C284.842 244.783 283.934 245.689 282.723 246.595C280.907 248.106 278.788 249.918 276.972 251.429C275.459 252.637 273.945 254.148 272.432 255.356C271.221 256.262 270.313 257.47 269.102 258.377C265.47 262.002 261.838 265.325 258.206 269.252C256.995 270.46 256.087 271.367 255.179 272.575C253.666 274.086 252.455 275.596 251.244 277.106C249.428 278.919 247.915 281.033 246.402 282.846C245.494 284.054 244.585 284.961 243.677 286.169C241.559 288.888 239.44 291.909 237.321 294.627C236.413 295.836 235.505 297.044 234.597 298.252C233.689 299.461 232.781 300.971 231.873 302.18C230.965 303.69 230.057 304.898 229.149 306.409C228.241 307.919 227.03 309.43 226.122 311.242C225.214 312.451 224.609 313.961 223.701 315.17C221.279 319.097 219.16 323.326 217.042 327.253C215.226 330.576 213.712 333.899 212.199 337.222C211.291 339.034 210.383 340.847 209.777 342.962C209.475 343.868 208.869 345.076 208.567 346.284C207.961 347.493 207.659 348.701 207.053 349.607C206.145 351.42 205.54 353.535 204.935 355.347C204.329 357.16 203.724 358.972 202.816 360.785C202.816 361.087 202.513 361.389 202.513 361.691C201.908 362.899 201.605 364.41 201.302 365.618C201 366.525 200.697 367.431 200.394 368.035C200.092 369.243 199.789 370.15 199.486 371.358C199.184 371.962 199.184 372.868 198.881 373.473C198.578 374.983 197.973 376.493 197.67 377.702C197.67 378.004 197.368 378.608 197.368 379.212C197.065 380.421 196.762 381.931 196.46 383.139C196.46 383.743 196.157 384.348 195.854 385.254C195.552 387.066 194.946 388.879 194.644 390.994C194.341 392.504 194.038 394.014 193.735 395.827C193.13 398.545 192.827 400.963 192.525 403.68C191.919 407.306 191.617 410.932 191.011 414.556C191.011 415.161 191.011 415.462 190.709 416.068C190.709 416.67 190.709 417.275 190.406 418.182C190.103 420.296 190.103 422.109 189.801 424.224C189.801 425.431 189.498 426.943 189.498 428.151C161.046 398.244 145.61 358.972 145.004 317.284C144.399 272.877 161.046 230.585 191.617 198.563C192.525 197.355 193.735 196.449 194.644 195.542C195.552 194.636 196.762 193.428 197.67 192.522C229.452 162.615 270.919 146 314.504 146H316.623C358.393 146.604 397.74 162.011 428.614 189.803Z" fill="#19212E"/>
</g>
</g>
</svg>
