<svg width="630" height="630" viewBox="0 0 630 630" fill="none" xmlns="http://www.w3.org/2000/svg">
<g clip-path="url(#clip0_2707_92)">
<rect width="630" height="630" fill="#BC9A71"/>
<path d="M302.671 529.14C420.849 529.14 516.653 433.437 516.653 315.381C516.653 197.325 420.849 101.621 302.671 101.621C184.492 101.621 88.689 197.325 88.689 315.381C88.689 433.437 184.492 529.14 302.671 529.14Z" fill="white"/>
<path d="M302.671 36.0703C148.254 36.0703 23.0754 161.119 23.0754 315.37C23.0754 469.632 148.248 594.681 302.671 594.681C457.071 594.681 582.266 469.632 582.266 315.37C582.266 161.119 457.071 36.0703 302.671 36.0703ZM215.065 424.599C188.783 396.497 166.158 362.906 153.855 323.813C141.571 284.72 140.893 244.244 146.353 206.152C171.765 234.548 193.825 268.331 206.133 307.407C218.418 346.498 219.655 386.777 215.065 424.599ZM340.627 431.15C329.723 454.972 316.55 476.822 303.106 496.063C267.948 448.538 234.615 385.077 234.615 315.386C234.615 245.679 267.948 182.218 303.089 134.676C326.342 167.929 348.775 208.998 360.126 254.563C365.005 274.092 367.855 294.457 367.855 315.386C367.86 356.873 356.684 396.141 340.627 431.15ZM447.523 324.361C433.688 362.939 410.323 395.79 383.797 423.154C379.851 384.896 382.107 344.472 395.958 305.91C409.791 267.332 433.733 234.671 461.113 207.598C464.222 245.566 461.356 285.799 447.523 324.361Z" fill="#BC9A71"/>
</g>
<defs>
<clipPath id="clip0_2707_92">
<rect width="630" height="630" fill="white"/>
</clipPath>
</defs>
</svg>
