<svg width="630" height="630" viewBox="0 0 630 630" fill="none" xmlns="http://www.w3.org/2000/svg">
<rect width="630" height="630" fill="#00A587"/>
<path d="M396.007 316C400.454 351.102 404.582 384.059 408.866 416.98C409.375 420.924 408.562 422.316 404.17 422.537C377.725 423.858 377.741 423.964 368.18 399.744C364.201 389.666 360.322 379.548 356.083 369.569C355.149 367.929 354.805 366.025 355.106 364.168C355.406 362.309 356.333 360.605 357.737 359.335C370.247 345.591 382.431 331.473 396.007 316Z" fill="white"/>
<path d="M239.944 345C243.735 364.18 247.475 382.208 250.766 400.316C251.783 405.921 256.355 413.042 252.444 416.831C249.07 420.089 241.581 415.481 235.824 415.69C220.53 416.258 213.411 409.207 210.927 394.401C209.468 385.709 208.823 379.689 216.124 372.958C224.647 364.132 232.603 354.795 239.944 345Z" fill="white"/>
<path d="M283.486 380.115C283.486 369.253 283.318 358.39 283.567 347.532C283.664 343.267 282.461 341.828 277.871 341.678C246.555 340.655 215.245 339.414 183.942 337.956C179.026 337.73 177.085 339.108 176.04 343.906C171.21 366.124 165.728 388.212 161.01 410.456C159.686 416.702 157.271 419.005 150.653 418.296C143.309 417.544 135.917 417.377 128.546 417.793C122.993 418.07 121.923 415.782 122.004 411.009C122.483 377.646 123.191 344.282 122.865 310.93C122.805 300.666 126.278 290.687 132.714 282.626C150.036 258.863 166.722 234.673 183.504 210.543C184.409 208.891 185.834 207.574 187.563 206.79C189.293 206.007 191.233 205.799 193.093 206.198C255.667 212.806 318.267 219.209 380.889 225.404C384.806 225.868 388.546 227.279 391.776 229.513C429.041 253.417 466.238 277.406 503.691 301.017C509.295 304.538 509.447 306.549 504.062 309.733C502.903 310.351 501.867 311.172 501.006 312.157C490.219 325.912 477.569 325.293 462.285 319.197C443.81 311.85 424.328 306.977 405.385 300.731C403.583 300.009 401.627 299.736 399.692 299.935C397.757 300.134 395.902 300.799 394.289 301.872C376.864 312.554 359.36 323.105 341.776 333.525C340.192 334.363 338.839 335.57 337.835 337.039C336.831 338.51 336.205 340.201 336.014 341.965C332.157 364.897 327.745 387.729 324.199 410.723C323.18 417.31 320.8 419.397 314.167 418.94C305.742 418.449 297.297 418.435 288.871 418.899C283.873 419.121 282.594 417.391 282.758 412.689C283.083 401.831 282.859 390.958 282.859 380.095L283.486 380.115Z" fill="white"/>
</svg>
