<svg width="630" height="630" viewBox="0 0 630 630" fill="none" xmlns="http://www.w3.org/2000/svg">
<rect width="630" height="630" fill="white"/>
<path fill-rule="evenodd" clip-rule="evenodd" d="M262.765 183.261C286.604 207.171 286.432 246.109 262.379 270.232C262.379 270.232 243.052 250.851 219.213 226.942L203.797 211.48C177.243 238.133 177.793 281.877 205.032 309.196C232.277 336.521 275.905 337.067 302.478 310.416L437.274 175.223C441.686 178.948 445.977 182.895 450.134 187.064C526.76 263.916 528.293 386.982 453.556 461.939C453.087 462.409 452.616 462.877 452.144 463.341C462.114 485.897 457.782 513.363 439.206 531.993C439.206 531.993 424.344 517.089 404.61 497.298C404.574 497.315 404.539 497.333 404.503 497.351C403.258 495.994 401.979 494.657 400.666 493.34C350.554 443.08 270.381 441.957 221.355 490.736C225.354 493.045 229.414 495.204 233.526 497.211C277.777 456.296 347.623 458.237 391.645 502.388C391.757 502.5 391.869 502.613 391.98 502.726C392.051 502.797 392.121 502.868 392.192 502.94C322.12 531.741 237.568 516.758 179.488 458.507C102.867 381.66 101.328 258.607 176.049 183.648C176.205 183.491 176.362 183.336 176.519 183.182C178.884 180.809 196.71 162.928 218.351 141.223C241.602 117.903 260.453 99 260.453 99C283.863 122.479 284.743 159.823 262.747 183.243L262.765 183.261ZM356.326 355.368C362.139 349.538 362.02 339.966 356.06 333.989C350.1 328.011 340.556 327.892 334.743 333.722C328.931 339.552 329.05 349.124 335.01 355.101C340.969 361.078 350.513 361.198 356.326 355.368ZM427.269 435.576C468.698 381.293 472.592 307.006 439.381 247.318L448.751 237.92C486.748 303.112 482.861 385.46 436.592 444.926L427.269 435.576ZM414.049 272.724C434.817 317.4 431.002 370.298 402.346 410.579L411.709 419.969C445.128 374.398 448.993 313.498 423.624 263.121L414.049 272.724ZM374.079 382.228C388.794 358.332 392.175 329.243 384.315 302.546L394.468 292.363C406.422 325.251 402.829 362.242 383.544 391.721L374.079 382.228Z" fill="url(#paint0_linear_4412_606)"/>
<defs>
<linearGradient id="paint0_linear_4412_606" x1="1476.67" y1="523.905" x2="1476.78" y2="49.4613" gradientUnits="userSpaceOnUse">
<stop/>
<stop offset="0.9" stop-color="#636469"/>
</linearGradient>
</defs>
</svg>
