<svg width="630" height="630" viewBox="0 0 630 630" fill="none" xmlns="http://www.w3.org/2000/svg">
<rect width="630" height="630" fill="#FAF7F7"/>
<path fill-rule="evenodd" clip-rule="evenodd" d="M501 140.625C501 137.142 499.438 133.843 496.745 131.635C494.052 129.427 490.51 128.543 487.095 129.226L373.125 152.02L259.155 129.226C257.65 128.925 256.1 128.925 254.595 129.226L138.345 152.476C132.911 153.563 129 158.334 129 163.875V489.375C129 492.858 130.561 496.157 133.255 498.365C135.948 500.573 139.49 501.457 142.905 500.774L256.875 477.98L370.845 500.774C372.35 501.075 373.9 501.075 375.405 500.774L491.655 477.524C497.089 476.437 501 471.666 501 466.125V140.625ZM253.922 463.704V144.226L256.875 143.636L259.827 144.226V463.704L257.454 463.229C257.072 463.153 256.678 463.153 256.296 463.229L253.922 463.704ZM370.173 485.773V166.295L372.546 166.77C372.928 166.846 373.322 166.846 373.704 166.77L376.078 166.295V485.773L373.125 486.364L370.173 485.773Z" fill="#C96567"/>
</svg>
