<svg width="630" height="630" viewBox="0 0 630 630" fill="none" xmlns="http://www.w3.org/2000/svg">
<rect width="630" height="630" fill="#151515"/>
<g clip-path="url(#clip0_4448_1150)">
<mask id="mask0_4448_1150" style="mask-type:luminance" maskUnits="userSpaceOnUse" x="131" y="234" width="368" height="162">
<path d="M499 234H131V396H499V234Z" fill="white"/>
</mask>
<g mask="url(#mask0_4448_1150)">
<path d="M180.341 364.109C206.478 364.109 227.46 343.749 227.46 317.369C227.46 290.989 206.478 270.629 180.341 270.629C154.203 270.629 133.4 290.989 133.4 317.369C133.4 343.749 154.203 364.109 180.341 364.109ZM180.341 341.802C166.828 341.802 156.337 331.71 156.337 317.369C156.337 303.028 166.828 292.937 180.341 292.937C194.032 292.937 204.523 303.028 204.523 317.369C204.523 331.71 194.032 341.802 180.341 341.802Z" fill="white"/>
<path d="M282.891 270.629C269.911 270.629 260.487 275.409 254.086 283.553V273.107H231.149V387.68L254.086 395.169V351.185C260.487 359.33 269.911 364.109 282.891 364.109C306.716 364.109 326.275 343.749 326.275 317.369C326.275 290.989 306.716 270.629 282.891 270.629ZM278.623 342.333C264.576 342.333 254.086 332.241 254.086 317.369C254.086 302.497 264.576 292.406 278.623 292.406C292.848 292.406 303.338 302.497 303.338 317.369C303.338 332.241 292.848 342.333 278.623 342.333Z" fill="white"/>
<path d="M411.974 361.631L375.168 316.838L410.907 273.108H383.525L352.942 312.058V247.059H330.005V361.631H352.942V321.441L385.303 361.631H411.974Z" fill="white"/>
<path d="M423.245 262.486C431.069 262.486 437.47 256.113 437.47 248.5C437.47 240.887 431.069 234.336 423.245 234.336C415.6 234.336 409.198 240.887 409.198 248.5C409.198 256.113 415.6 262.486 423.245 262.486ZM411.865 361.633H434.803V273.109H411.865V361.633Z" fill="white"/>
<path d="M498.647 295.064V273.111H478.555V248.324L455.617 255.229V273.111H440.149V295.064H455.617V331.89C455.617 355.791 466.464 365.175 498.647 361.635V340.92C485.489 341.628 478.555 341.451 478.555 331.89V295.064H498.647Z" fill="white"/>
</g>
</g>
<defs>
<clipPath id="clip0_4448_1150">
<rect width="368" height="162" fill="white" transform="translate(131 234)"/>
</clipPath>
</defs>
</svg>
