<svg width="630" height="630" viewBox="0 0 630 630" fill="none" xmlns="http://www.w3.org/2000/svg">
<rect width="630" height="630" fill="#F9FAFF"/>
<path d="M314.496 482.872C260.576 482.872 216.866 439.111 216.866 385.128V98.8789H412.127V385.128C412.127 439.111 368.416 482.872 314.496 482.872Z" fill="#BCBCEF"/>
<path d="M272.658 217.56L314.499 189.633L342.394 210.578V224.542L314.499 245.487C314.498 245.487 269.933 216.159 272.658 217.56Z" fill="#F9B233"/>
<path d="M265.682 217.564C292.642 217.564 314.497 195.684 314.497 168.692C314.497 141.701 292.642 119.82 265.682 119.82C238.722 119.82 216.866 141.701 216.866 168.692C216.866 195.684 238.722 217.564 265.682 217.564Z" fill="#746DFF"/>
<path d="M363.315 217.564C390.275 217.564 412.13 195.684 412.13 168.692C412.13 141.701 390.275 119.82 363.315 119.82C336.355 119.82 314.5 141.701 314.5 168.692C314.5 195.684 336.355 217.564 363.315 217.564Z" fill="#746DFF"/>
<path d="M265.686 196.624C281.092 196.624 293.581 184.12 293.581 168.696C293.581 153.273 281.092 140.77 265.686 140.77C250.28 140.77 237.792 153.273 237.792 168.696C237.792 184.12 250.28 196.624 265.686 196.624Z" fill="white"/>
<path d="M363.31 196.624C378.716 196.624 391.205 184.12 391.205 168.696C391.205 153.273 378.716 140.77 363.31 140.77C347.904 140.77 335.416 153.273 335.416 168.696C335.416 184.12 347.904 196.624 363.31 196.624Z" fill="white"/>
<path d="M265.682 427.019C238.721 427.019 216.866 405.138 216.866 378.146V252.477C243.826 252.477 265.682 274.358 265.682 301.349V427.019Z" fill="#746DFF"/>
<path d="M363.321 427.019C390.282 427.019 412.137 405.138 412.137 378.146V252.477C385.177 252.477 363.321 274.358 363.321 301.349V427.019Z" fill="#746DFF"/>
<path d="M314.496 489.848C345.307 489.848 370.284 464.842 370.284 433.994C370.284 403.147 345.307 378.141 314.496 378.141C283.684 378.141 258.707 403.147 258.707 433.994C258.707 464.842 283.684 489.848 314.496 489.848Z" fill="#746DFF"/>
<path d="M265.688 203.502C246.519 203.502 230.925 187.889 230.925 168.698C230.925 149.507 246.52 133.895 265.688 133.895C284.856 133.895 300.451 149.508 300.451 168.698C300.452 187.889 284.857 203.502 265.688 203.502ZM265.688 147.649C254.094 147.649 244.663 157.092 244.663 168.698C244.663 180.305 254.095 189.748 265.688 189.748C277.281 189.748 286.713 180.305 286.713 168.698C286.714 157.091 277.283 147.649 265.688 147.649Z" fill="#1D1D1B"/>
<path d="M363.314 203.494C344.145 203.494 328.55 187.881 328.55 168.69C328.55 149.499 344.145 133.887 363.314 133.887C382.482 133.887 398.076 149.5 398.076 168.69C398.079 187.881 382.483 203.494 363.314 203.494ZM363.314 147.641C351.72 147.641 342.288 157.084 342.288 168.69C342.288 180.297 351.72 189.74 363.314 189.74C374.907 189.74 384.338 180.297 384.338 168.69C384.34 157.083 374.908 147.641 363.314 147.641Z" fill="#1D1D1B"/>
<path d="M293.468 280.406H279.73V294.369H293.468V280.406Z" fill="#1D1D1B"/>
<path d="M321.372 287.379H307.633V315.305H321.372V287.379Z" fill="#1D1D1B"/>
<path d="M349.269 280.402H335.53V294.366H349.269V280.402Z" fill="#1D1D1B"/>
<path d="M210 92V245.597V378.145V392.108C210 437.598 239.154 476.394 279.736 490.769V524.865H258.711V538.619H293.475V494.6C300.268 495.995 307.3 496.728 314.5 496.728C321.705 496.728 328.743 495.994 335.543 494.597V524.864H314.518V538.618H349.281V490.763C389.854 476.383 419 437.592 419 392.108V378.276V245.597V92H210ZM321.369 168.694C321.369 145.538 340.185 126.7 363.315 126.7C386.444 126.7 405.259 145.538 405.259 168.694C405.259 191.85 386.444 210.688 363.315 210.688C340.185 210.688 321.369 191.85 321.369 168.694ZM337.651 218.143L314.5 236.686L291.35 218.143C301.116 213.042 309.195 205.135 314.5 195.486C319.805 205.135 327.884 213.042 337.651 218.143ZM265.684 210.688C242.555 210.688 223.738 191.85 223.738 168.694C223.738 145.538 242.555 126.7 265.684 126.7C288.813 126.7 307.63 145.538 307.63 168.694C307.63 191.85 288.814 210.688 265.684 210.688ZM223.738 259.895C243.602 263.131 258.814 280.428 258.814 301.215V419.577C238.942 416.285 223.738 398.959 223.738 378.145V259.895ZM405.26 259.915V378.276C405.26 399.062 390.048 416.36 370.184 419.597V301.346C370.183 280.531 385.389 263.206 405.26 259.915ZM405.26 245.597H342.395V259.352H375.568C363.863 269.579 356.446 284.606 356.446 301.346V433.893H363.445C378.01 433.893 391.275 428.246 401.193 419.032C389.704 456.032 355.186 482.974 314.5 482.974C273.776 482.974 239.232 455.98 227.776 418.927C237.724 428.203 251.05 433.893 265.685 433.893H272.554V301.215C272.554 284.533 265.17 269.554 253.514 259.352H286.606V245.597H223.738V205.298C233.954 217.018 248.965 224.443 265.684 224.443C269.211 224.443 272.657 224.098 276.004 223.467L314.499 254.299L352.994 223.467C356.341 224.098 359.787 224.443 363.315 224.443C380.034 224.443 395.044 217.018 405.259 205.298L405.26 245.597ZM363.315 112.945C342.304 112.945 323.979 124.658 314.499 141.902C305.019 124.658 286.694 112.945 265.684 112.945C248.964 112.945 233.953 120.371 223.738 132.09V105.754H405.259V132.09C395.046 120.371 380.035 112.945 363.315 112.945Z" fill="#1D1D1B"/>
<path d="M315.416 524.859H291.747V538.613H315.416V524.859Z" fill="#1D1D1B"/>
<path d="M370.308 524.859H348.471V538.613H370.308V524.859Z" fill="#1D1D1B"/>
<path d="M268.52 192.432C277.754 192.432 285.24 184.937 285.24 175.693C285.24 166.448 277.754 158.953 268.52 158.953C259.286 158.953 251.8 166.448 251.8 175.693C251.8 184.937 259.286 192.432 268.52 192.432Z" fill="#1D1D1B"/>
<path d="M360.48 192.432C369.714 192.432 377.2 184.937 377.2 175.693C377.2 166.448 369.714 158.953 360.48 158.953C351.246 158.953 343.76 166.448 343.76 175.693C343.76 184.937 351.246 192.432 360.48 192.432Z" fill="#1D1D1B"/>
</svg>
