<svg width="630" height="630" viewBox="0 0 630 630" fill="none" xmlns="http://www.w3.org/2000/svg">
<rect width="630" height="630" fill="#9933FF"/>
<path fill-rule="evenodd" clip-rule="evenodd" d="M400.391 254.16L509.794 224.745C514.212 223.558 516.888 226.432 515.73 231.183L497.904 304.023C496.377 310.28 492.259 315.426 486.743 318.008L388.424 363.929C402.218 346.416 410.513 323.929 410.513 299.393L410.496 297.775L479.4 273.739L483.217 259.281L408.995 281.415C407.392 271.976 404.496 262.805 400.391 254.16ZM219.674 251.759L119.21 224.745C114.783 223.558 112.107 226.432 113.273 231.183L131.1 304.023C132.627 310.28 136.736 315.426 142.252 318.008L219.674 354.161V298.188L149.595 273.739L145.786 259.281L219.674 281.321V251.759ZM271.746 224.479H231.529V418H273.016V375.099C285.51 382.748 299.865 386.792 314.502 386.786C360.32 386.786 397.474 347.664 397.474 299.393C397.474 251.123 360.329 212 314.502 212C298.854 212 284.228 216.561 271.746 224.479ZM314.502 343.094C337.407 343.094 355.988 323.524 355.988 299.393C355.988 275.262 337.415 255.692 314.502 255.692C291.588 255.692 273.016 275.262 273.016 299.393C273.016 323.524 291.588 343.094 314.502 343.094Z" fill="white"/>
</svg>
