<svg width="630" height="630" viewBox="0 0 630 630" fill="none" xmlns="http://www.w3.org/2000/svg">
<rect width="630" height="630" fill="#F8F9FF"/>
<path fill-rule="evenodd" clip-rule="evenodd" d="M138 118.546C138 109.408 145.406 102 154.542 102H388.069C445.467 102 492 148.623 492 206.135C492 263.647 445.467 310.268 388.069 310.268H190.107L162.67 209.317H367.504V226.357L406.482 196.487L367.504 166.616V182.033H155.255L138 118.546Z" fill="#0458F2"/>
<path d="M310.461 270.258L392.153 294.814L491.999 407.587H310.461V270.258Z" fill="#0458F2"/>
<path d="M138 118.371L375.739 245.145C394.221 255 405.769 274.266 405.769 295.244V499.488C405.769 520.898 383.007 534.595 364.144 524.535L168.03 419.96C149.548 410.105 138 390.838 138 369.86V118.371Z" fill="url(#paint0_linear_1790_628)"/>
<path d="M138 209.531V179.016L357.029 301.992V332.098L138 209.531Z" fill="white"/>
<path d="M324.984 436.688L357.661 454.876V487.616L324.984 469.427V436.688Z" fill="white"/>
<defs>
<linearGradient id="paint0_linear_1790_628" x1="406.677" y1="364.838" x2="137.828" y2="246.087" gradientUnits="userSpaceOnUse">
<stop stop-color="#38B4FF"/>
<stop offset="1" stop-color="#55DAFF"/>
</linearGradient>
</defs>
</svg>
