<svg width="630" height="630" viewBox="0 0 630 630" fill="none" xmlns="http://www.w3.org/2000/svg">
<rect width="630" height="630" fill="black"/>
<mask id="mask0_2707_90" style="mask-type:luminance" maskUnits="userSpaceOnUse" x="53" y="53" width="524" height="524">
<path d="M446 53H184C111.651 53 53 111.651 53 184V446C53 518.349 111.651 577 184 577H446C518.349 577 577 518.349 577 446V184C577 111.651 518.349 53 446 53Z" fill="white"/>
</mask>
<g mask="url(#mask0_2707_90)">
<path fill-rule="evenodd" clip-rule="evenodd" d="M453.462 453.915C466.203 441.175 468.604 423.942 467.199 409.059C465.776 393.984 460.239 377.616 452.378 361.288C445.294 346.575 435.849 330.926 424.417 314.968C435.849 299.011 445.294 283.361 452.378 268.648C460.239 252.321 465.776 235.952 467.199 220.877C468.604 205.994 466.203 188.762 453.462 176.022C440.722 163.282 423.491 160.88 408.606 162.285C393.533 163.708 377.164 169.245 360.837 177.106C346.122 184.19 330.472 193.635 314.517 205.066C298.559 193.635 282.91 184.19 268.195 177.106C251.868 169.245 235.499 163.708 220.426 162.285C205.542 160.88 188.309 163.282 175.57 176.022C162.83 188.762 160.428 205.994 161.833 220.877C163.256 235.952 168.793 252.321 176.654 268.648C183.738 283.361 193.183 299.011 204.614 314.968C193.183 330.926 183.738 346.575 176.654 361.288C168.793 377.616 163.256 393.984 161.833 409.059C160.428 423.942 162.83 441.175 175.57 453.915C188.309 466.655 205.542 469.057 220.426 467.652C235.499 466.229 251.868 460.691 268.195 452.831C282.91 445.745 298.559 436.3 314.517 424.871C330.472 436.3 346.122 445.745 360.837 452.831C377.164 460.691 393.533 466.229 408.606 467.652C423.491 469.057 440.722 466.655 453.462 453.915ZM314.517 395.992C328.751 384.863 343.229 372.074 357.426 357.879C371.623 343.682 384.412 329.203 395.54 314.968C384.412 300.733 371.623 286.255 357.426 272.057C343.229 257.862 328.751 245.073 314.517 233.945C300.28 245.073 285.803 257.862 271.606 272.057C257.409 286.255 244.62 300.733 233.492 314.968C244.62 329.203 257.409 343.682 271.606 357.879C285.803 372.074 300.28 384.863 314.517 395.992ZM333.826 410.181C347.224 399.394 360.66 387.337 373.773 374.224C386.884 361.113 398.943 347.676 409.729 334.278C441.392 380.336 453.575 421.109 437.116 437.568C420.656 454.028 379.884 441.845 333.826 410.181ZM219.303 334.278C230.09 347.676 242.147 361.113 255.259 374.224C268.372 387.337 281.808 399.394 295.207 410.181C249.148 441.845 208.376 454.028 191.916 437.568C175.457 421.109 187.64 380.336 219.303 334.278ZM219.303 295.659C230.09 282.261 242.147 268.823 255.259 255.712C268.372 242.599 281.808 230.542 295.207 219.756C249.148 188.092 208.376 175.909 191.916 192.368C175.457 208.828 187.64 249.601 219.303 295.659ZM333.826 219.756C347.224 230.542 360.66 242.599 373.773 255.712C386.884 268.823 398.943 282.261 409.729 295.659C441.392 249.601 453.575 208.828 437.116 192.368C420.656 175.909 379.884 188.092 333.826 219.756Z" fill="white" stroke="white" stroke-width="0.5"/>
</g>
</svg>
