<svg width="630" height="630" viewBox="0 0 630 630" fill="none" xmlns="http://www.w3.org/2000/svg">
<rect width="630" height="630" fill="white"/>
<path d="M315 537.768C438.159 537.768 538 437.98 538 314.884C538 191.789 438.159 92 315 92C191.84 92 92 191.789 92 314.884C92 437.98 191.84 537.768 315 537.768Z" fill="#1890FF"/>
<path d="M277.505 263.225C282.587 254.102 288.447 246.897 295.085 241.61C301.723 236.323 309.502 233.68 318.422 233.68C325.683 233.68 331.595 235.39 336.159 238.811L333.358 270.533C332.839 272.606 332.01 274.058 330.869 274.887C329.832 275.613 328.379 275.976 326.512 275.976C324.853 275.976 322.467 275.768 319.356 275.354C316.244 274.835 313.34 274.576 310.643 274.576C306.702 274.576 303.176 275.146 300.064 276.287C297.056 277.427 294.359 279.034 291.973 281.107C289.588 283.18 287.41 285.72 285.439 288.727C283.572 291.733 281.809 295.154 280.149 298.99V397.11H237.209V236.789H262.569C266.925 236.789 269.933 237.567 271.592 239.122C273.252 240.677 274.445 243.372 275.171 247.208L277.505 263.225Z" fill="white"/>
<path d="M336.282 374.568C336.282 371.147 336.904 367.933 338.149 364.927C339.497 361.816 341.312 359.173 343.594 356.996C345.876 354.715 348.52 352.953 351.529 351.709C354.64 350.361 358.011 349.688 361.641 349.688C365.168 349.688 368.487 350.361 371.599 351.709C374.71 352.953 377.407 354.715 379.689 356.996C381.97 359.173 383.734 361.816 384.979 364.927C386.327 367.933 387.001 371.147 387.001 374.568C387.001 378.092 386.327 381.358 384.979 384.364C383.734 387.371 381.97 390.014 379.689 392.295C377.407 394.472 374.71 396.182 371.599 397.426C368.487 398.67 365.168 399.292 361.641 399.292C358.011 399.292 354.64 398.67 351.529 397.426C348.52 396.182 345.876 394.472 343.594 392.295C341.312 390.014 339.497 387.371 338.149 384.364C336.904 381.358 336.282 378.092 336.282 374.568Z" fill="white"/>
</svg>
