<svg width="630" height="630" viewBox="0 0 630 630" fill="none" xmlns="http://www.w3.org/2000/svg">
<rect width="630" height="630" fill="black"/>
<path d="M199 456.593V172H324.954C342.561 172 358.542 176.066 372.898 184.197C387.253 192.057 398.496 202.763 406.622 216.315C415.018 229.867 419.217 245.317 419.217 262.663C419.217 279.739 415.018 295.324 406.622 309.418C398.496 323.241 387.253 334.218 372.898 342.35C358.542 350.481 342.561 354.546 324.954 354.546H257.914V456.593H199ZM360.303 456.593L287.981 328.12L350.551 317.956L431 457L360.303 456.593ZM257.914 304.946H322.11C329.424 304.946 335.789 303.32 341.206 300.067C346.895 296.544 351.228 291.8 354.208 285.837C357.187 279.604 358.677 272.692 358.677 265.103C358.677 256.972 356.917 249.925 353.395 243.962C349.874 237.999 344.728 233.391 337.956 230.138C331.184 226.615 323.329 224.853 314.39 224.853H257.914V304.946Z" fill="white"/>
</svg>
