<svg width="630" height="630" viewBox="0 0 630 630" fill="none" xmlns="http://www.w3.org/2000/svg">
<rect width="630" height="630" fill="#3C0E25"/>
<path d="M412.735 161H215.505C206.145 161.009 197.167 164.615 190.528 171.033C187.262 174.194 184.67 177.95 182.9 182.088C181.131 186.225 180.218 190.661 180.214 195.142V319.251L210.764 296.332V195.142C210.794 193.928 211.302 192.771 212.181 191.908C213.088 191.059 214.295 190.582 215.554 190.577H412.785C414.081 190.577 415.324 191.078 416.24 191.97C417.157 192.862 417.672 194.071 417.672 195.332V364.52C417.66 365.249 417.476 365.965 417.134 366.613C416.787 367.245 416.303 367.796 415.718 368.23L317.126 439.557C316.294 440.165 315.283 440.498 314.242 440.508C313.214 440.512 312.215 440.177 311.407 439.557L212.768 368.23C212.182 367.808 211.712 367.253 211.399 366.613C211.058 365.965 210.873 365.249 210.862 364.52V336.893L180.214 359.765V364.283C180.205 369.605 181.495 374.852 183.978 379.595C186.445 384.334 190.009 388.452 194.39 391.625L292.98 462.952C299.125 467.337 306.549 469.702 314.169 469.702C321.79 469.702 329.213 467.337 335.359 462.952L433.949 391.625C438.33 388.452 441.894 384.334 444.36 379.595C446.843 374.852 448.133 369.605 448.124 364.283V195.142C448.125 190.656 447.209 186.215 445.43 182.076C443.651 177.937 441.045 174.184 437.761 171.033C431.11 164.604 422.112 160.996 412.735 161Z" fill="white"/>
<path d="M121.921 403.639L180.234 359.748V319.234L101 378.674L121.921 403.639Z" fill="url(#paint0_linear_4412_608)"/>
<path d="M465.772 188.149L481.853 209.642L448.126 233.417L417.576 256.338L380.086 284.393L344.696 310.974L327.148 324.098L308.379 310.785L248.256 267.988L210.766 296.043V336.414L246.154 309.786L248.256 311.308L283.841 336.842L324.607 366.134L344.696 351.203L380.086 324.86L417.576 296.994L448.126 274.312L501.894 233.275L521.983 253.77L530 187.863L465.772 188.149Z" fill="url(#paint1_linear_4412_608)"/>
<path d="M210.715 296.301V336.673L180.214 359.734V319.269L210.715 296.301Z" fill="white"/>
<path d="M344.655 226.498V280.754H283.799V176.141H248.215V268.106L327.106 324.12L344.655 310.807V430.684L380.044 410.855V226.498H344.655ZM248.215 366.347H283.799V337.293L248.215 311.71V366.347Z" fill="white"/>
<defs>
<linearGradient id="paint0_linear_4412_608" x1="114.931" y1="363.743" x2="190.823" y2="358.619" gradientUnits="userSpaceOnUse">
<stop stop-color="#FFC225"/>
<stop offset="1" stop-color="#FF8D3F"/>
</linearGradient>
<linearGradient id="paint1_linear_4412_608" x1="197.226" y1="399.658" x2="467.518" y2="189.11" gradientUnits="userSpaceOnUse">
<stop offset="0.13" stop-color="#FF8C22"/>
<stop offset="1" stop-color="#FF291C"/>
</linearGradient>
</defs>
</svg>
