<svg width="630" height="630" viewBox="0 0 630 630" fill="none" xmlns="http://www.w3.org/2000/svg">
<rect width="630" height="630" fill="#0C061B"/>
<path d="M451.119 297.469C449.566 295.799 447.794 294.367 445.854 293.215L208.119 150.31C204.451 148.129 200.298 146.987 196.073 147C191.849 147.013 187.702 148.179 184.047 150.382C180.391 152.586 177.354 155.749 175.241 159.556C173.127 163.364 172.01 167.682 172.001 172.08V457.849C171.96 464.258 174.304 470.436 178.54 475.086C182.267 479.22 187.231 481.917 192.62 482.737C198.009 483.556 203.506 482.449 208.214 479.599L445.949 336.713C449.123 334.8 451.837 332.158 453.885 328.99C455.932 325.822 457.261 322.21 457.768 318.428C458.275 314.646 457.949 310.793 456.814 307.162C455.678 303.53 453.764 300.216 451.214 297.469H451.119ZM289.538 355.613C289.538 366.142 285.52 376.239 278.368 383.685C271.217 391.129 261.518 395.312 251.404 395.312C241.29 395.312 231.591 391.129 224.44 383.685C217.288 376.239 213.271 366.142 213.271 355.613V273.089C213.271 267.875 214.257 262.713 216.173 257.896C218.09 253.08 220.898 248.703 224.44 245.017C227.981 241.331 232.184 238.406 236.811 236.411C241.437 234.416 246.396 233.39 251.404 233.39C256.412 233.39 261.37 234.416 265.997 236.411C270.623 238.406 274.827 241.331 278.368 245.017C281.91 248.703 284.718 253.08 286.635 257.896C288.551 262.713 289.538 267.875 289.538 273.089V355.613ZM369.624 342.551C363.513 348.911 355.473 352.866 346.874 353.746C338.274 354.626 329.648 352.374 322.464 347.376C315.281 342.378 309.983 334.941 307.475 326.333C304.967 317.725 305.402 308.478 308.708 300.167C312.015 291.855 317.985 284.995 325.605 280.752C333.225 276.511 342.02 275.15 350.496 276.902C358.971 278.654 366.601 283.41 372.085 290.362C377.57 297.312 380.57 306.029 380.575 315.023C380.587 320.136 379.627 325.201 377.751 329.925C375.875 334.65 373.12 338.941 369.644 342.551H369.624Z" fill="url(#paint0_radial_4440_858)"/>
<defs>
<radialGradient id="paint0_radial_4440_858" cx="0" cy="0" r="1" gradientUnits="userSpaceOnUse" gradientTransform="translate(113.185 89.7272) rotate(41.8285) scale(783.249 597.817)">
<stop offset="0.0963224" stop-color="#FFC542"/>
<stop offset="0.435815" stop-color="#FE3E63"/>
<stop offset="0.707757" stop-color="#8835FF"/>
<stop offset="0.910465" stop-color="#1BD6FF"/>
</radialGradient>
</defs>
</svg>
