<svg width="630" height="630" viewBox="0 0 630 630" fill="none" xmlns="http://www.w3.org/2000/svg">
<rect width="630" height="630" fill="url(#paint0_linear_4442_994)"/>
<path d="M318.224 440C347.338 440 370.358 433.616 386.947 420.847C403.536 408.077 412 390.605 412 368.427C412 349.946 405.905 335.161 393.719 324.072C381.531 313.32 361.896 304.919 334.474 298.871L313.484 294.502C293.172 290.47 279.63 285.095 272.182 279.045C264.734 273.669 261.01 265.269 261.01 254.18C261.01 243.428 265.073 235.363 273.536 229.315C281.661 223.602 293.849 220.577 309.76 220.577C330.073 220.577 344.63 224.275 353.771 231.667C362.911 239.059 367.989 250.148 369.343 265.605H405.229C404.552 242.084 396.426 223.602 380.516 210.161C364.603 196.72 340.906 190 309.422 190C283.015 190 262.364 196.048 247.13 207.809C231.557 219.57 224.109 235.363 224.109 254.852C224.109 274.678 230.203 290.135 243.068 301.223C255.594 312.647 274.213 320.712 299.265 325.416L319.916 329.785C340.229 334.489 354.448 339.529 362.573 345.242C370.358 350.955 374.421 359.018 374.421 369.435C374.421 382.54 369.343 392.62 359.864 399.341C350.385 406.062 336.505 409.421 318.901 409.421C275.568 409.421 253.901 391.612 253.224 355.658H217C217 383.213 226.141 404.381 243.745 418.494C261.349 432.943 286.401 440 318.224 440Z" fill="black"/>
<defs>
<linearGradient id="paint0_linear_4442_994" x1="315" y1="0" x2="315" y2="630" gradientUnits="userSpaceOnUse">
<stop stop-color="white"/>
<stop offset="0.489258" stop-color="#BFE6B7"/>
<stop offset="1" stop-color="white"/>
</linearGradient>
</defs>
</svg>
