<svg width="630" height="630" viewBox="0 0 630 630" fill="none" xmlns="http://www.w3.org/2000/svg">
<rect width="630" height="630" fill="#17181C"/>
<path d="M137.676 299.332C163.449 299.332 184.342 278.439 184.342 252.666C184.342 226.893 163.449 206 137.676 206C111.903 206 91.0098 226.893 91.0098 252.666C91.0098 278.439 111.903 299.332 137.676 299.332Z" fill="white"/>
<path d="M255.882 299.333C281.655 299.333 302.549 278.439 302.549 252.666C302.549 226.893 281.655 206 255.882 206C230.109 206 209.216 226.893 209.216 252.666C209.216 278.439 230.109 299.333 255.882 299.333Z" fill="white"/>
<path d="M374.108 299.333C399.881 299.333 420.774 278.439 420.774 252.666C420.774 226.893 399.881 206 374.108 206C348.335 206 327.442 226.893 327.442 252.666C327.442 278.439 348.335 299.333 374.108 299.333Z" fill="white"/>
<path d="M492.333 299.333C518.107 299.333 539 278.439 539 252.666C539 226.893 518.107 206 492.333 206C466.561 206 445.667 226.893 445.667 252.666C445.667 278.439 466.561 299.333 492.333 299.333Z" fill="white"/>
<path d="M137.666 423.664C163.439 423.664 184.332 402.771 184.332 376.998C184.332 351.225 163.439 330.332 137.666 330.332C111.893 330.332 91 351.225 91 376.998C91 402.771 111.893 423.664 137.666 423.664Z" fill="white"/>
<path d="M255.882 423.664C281.655 423.664 302.549 402.771 302.549 376.998C302.549 351.225 281.655 330.332 255.882 330.332C230.109 330.332 209.216 351.225 209.216 376.998C209.216 402.771 230.109 423.664 255.882 423.664Z" fill="white"/>
<path d="M374.108 423.664C399.881 423.664 420.774 402.771 420.774 376.998C420.774 351.225 399.881 330.332 374.108 330.332C348.335 330.332 327.442 351.225 327.442 376.998C327.442 402.771 348.335 423.664 374.108 423.664Z" fill="white"/>
<path d="M492.333 423.664C518.107 423.664 539 402.771 539 376.998C539 351.225 518.107 330.332 492.333 330.332C466.561 330.332 445.667 351.225 445.667 376.998C445.667 402.771 466.561 423.664 492.333 423.664Z" fill="white"/>
</svg>
