<svg width="630" height="630" viewBox="0 0 630 630" fill="none" xmlns="http://www.w3.org/2000/svg">
<rect width="630" height="630" fill="#FBF4F8"/>
<g clip-path="url(#clip0_4448_1147)">
<path d="M152.699 364.252C143.927 364.284 135.217 362.79 126.957 359.837C119.079 357.131 111.915 352.677 106 346.808L115.81 329.363C121.281 334.022 127.439 337.803 134.067 340.574C139.663 342.897 145.652 344.123 151.71 344.186C156.05 344.4 160.371 343.478 164.246 341.51C165.701 340.746 166.913 339.589 167.745 338.17C168.577 336.751 168.994 335.128 168.951 333.483C169.014 332.336 168.805 331.19 168.34 330.139C167.876 329.088 167.169 328.162 166.278 327.437C164.02 325.781 161.473 324.565 158.767 323.851C155.505 322.862 151.523 321.711 146.845 320.4C140.233 318.447 133.766 316.033 127.492 313.176C122.889 311.148 118.859 308.014 115.757 304.052C112.946 299.954 111.539 295.053 111.747 290.086C111.601 283.763 113.474 277.559 117.093 272.374C120.88 267.22 126.013 263.212 131.929 260.789C139.009 257.866 146.619 256.445 154.276 256.615C161.551 256.561 168.782 257.747 175.66 260.12C182.485 262.555 188.71 266.423 193.918 271.464L182.878 288.722C178.366 284.873 173.302 281.726 167.855 279.384C163.204 277.482 158.231 276.492 153.207 276.468C150.502 276.451 147.807 276.784 145.187 277.458C142.938 278.016 140.868 279.14 139.173 280.722C138.377 281.582 137.763 282.594 137.368 283.697C136.973 284.801 136.805 285.973 136.874 287.143C136.823 288.191 136.983 289.238 137.346 290.222C137.709 291.206 138.267 292.106 138.986 292.869C140.816 294.583 143.009 295.864 145.401 296.614C148.261 297.685 151.763 298.862 155.906 300.173C163.176 302.139 170.318 304.552 177.291 307.397C182.354 309.342 186.868 312.492 190.443 316.574C193.637 320.902 195.225 326.21 194.933 331.584C195.129 336.224 194.192 340.841 192.203 345.037C190.214 349.233 187.234 352.88 183.519 355.664C175.821 361.389 165.547 364.252 152.699 364.252Z" fill="url(#paint0_linear_4448_1147)"/>
<path d="M276.007 364.25C268.423 364.397 260.94 362.483 254.356 358.712C248.251 355.193 243.18 350.127 239.654 344.023V404.999H212.923V258.112H236.366V276.145C240.229 270.209 245.453 265.283 251.602 261.777C258.03 258.167 265.296 256.321 272.666 256.426C279.408 256.349 286.083 257.775 292.206 260.6C298.155 263.363 303.476 267.315 307.844 272.212C312.353 277.211 315.857 283.034 318.162 289.362C320.59 295.975 321.812 302.971 321.771 310.017C321.909 319.472 319.888 328.833 315.863 337.388C312.245 345.208 306.652 351.949 299.637 356.946C292.714 361.787 284.452 364.341 276.007 364.25ZM266.972 341.401C270.847 341.402 274.666 340.485 278.119 338.726C281.47 337.052 284.437 334.702 286.833 331.823C289.308 328.814 291.21 325.377 292.447 321.682C293.778 317.854 294.456 313.829 294.452 309.776C294.479 305.712 293.764 301.677 292.34 297.87C290.988 294.262 288.904 290.973 286.219 288.211C283.563 285.468 280.405 283.26 276.916 281.71C273.211 280.118 269.214 279.316 265.182 279.355C262.625 279.381 260.09 279.815 257.67 280.64C255.004 281.491 252.467 282.707 250.132 284.252C247.815 285.723 245.726 287.526 243.931 289.603C242.134 291.681 240.689 294.04 239.654 296.586V321.014C241.385 324.782 243.654 328.279 246.39 331.395C249.035 334.463 252.272 336.965 255.906 338.752C259.34 340.482 263.128 341.388 266.972 341.401Z" fill="url(#paint1_linear_4448_1147)"/>
<path d="M443.797 310.473C443.822 317.43 442.534 324.329 440.001 330.807C437.442 337.303 433.612 343.221 428.738 348.215C423.863 353.209 418.041 357.178 411.613 359.891C396.866 365.706 380.463 365.706 365.716 359.891C359.188 357.137 353.287 353.087 348.368 347.984C343.618 343.044 339.901 337.204 337.435 330.807C334.96 324.316 333.709 317.421 333.746 310.473C333.695 303.359 334.945 296.295 337.435 289.631C339.821 283.258 343.457 277.427 348.127 272.481C353.028 267.404 358.938 263.412 365.476 260.762C380.287 255.09 396.668 255.09 411.479 260.762C417.967 263.369 423.854 267.275 428.781 272.239C433.709 277.202 437.572 283.121 440.135 289.631C442.64 296.29 443.882 303.358 443.797 310.473Z" fill="url(#paint2_linear_4448_1147)"/>
<path d="M523 357.028C520.594 358.125 517.814 359.222 514.66 360.345C511.332 361.502 507.917 362.397 504.449 363.021C500.789 363.759 497.063 364.127 493.329 364.118C488.582 364.149 483.877 363.24 479.483 361.442C475.432 359.85 471.963 357.06 469.539 353.442C466.877 348.972 465.585 343.818 465.823 338.62V278.581H452.19V258.113H465.823V224H492.901V258.113H514.981V278.581H492.928V329.416C492.802 330.792 492.979 332.18 493.446 333.48C493.914 334.78 494.661 335.962 495.635 336.942C496.609 337.921 497.785 338.675 499.082 339.15C500.379 339.625 501.764 339.81 503.139 339.69C505.881 339.686 508.6 339.178 511.159 338.192C513.832 337.202 516.05 336.292 517.788 335.516L523 357.028Z" fill="url(#paint3_linear_4448_1147)"/>
</g>
<defs>
<linearGradient id="paint0_linear_4448_1147" x1="193.249" y1="270.796" x2="111.565" y2="352.378" gradientUnits="userSpaceOnUse">
<stop stop-color="#FC5C7D"/>
<stop offset="0.12" stop-color="#DF6496"/>
<stop offset="0.31" stop-color="#B56EBA"/>
<stop offset="0.5" stop-color="#9477D6"/>
<stop offset="0.69" stop-color="#7D7DEB"/>
<stop offset="0.85" stop-color="#6F81F7"/>
<stop offset="1" stop-color="#6A82FB"/>
</linearGradient>
<linearGradient id="paint1_linear_4448_1147" x1="300.119" y1="264.319" x2="186.221" y2="378.112" gradientUnits="userSpaceOnUse">
<stop stop-color="#FC5C7D"/>
<stop offset="0.12" stop-color="#DF6496"/>
<stop offset="0.31" stop-color="#B56EBA"/>
<stop offset="0.5" stop-color="#9477D6"/>
<stop offset="0.69" stop-color="#7D7DEB"/>
<stop offset="0.85" stop-color="#6F81F7"/>
<stop offset="1" stop-color="#6A82FB"/>
</linearGradient>
<linearGradient id="paint2_linear_4448_1147" x1="427.651" y1="271.17" x2="349.552" y2="349.197" gradientUnits="userSpaceOnUse">
<stop stop-color="#FC5C7D"/>
<stop offset="0.12" stop-color="#DF6496"/>
<stop offset="0.31" stop-color="#B56EBA"/>
<stop offset="0.5" stop-color="#9477D6"/>
<stop offset="0.69" stop-color="#7D7DEB"/>
<stop offset="0.85" stop-color="#6F81F7"/>
<stop offset="1" stop-color="#6A82FB"/>
</linearGradient>
<linearGradient id="paint3_linear_4448_1147" x1="526.903" y1="258.006" x2="450.169" y2="334.697" gradientUnits="userSpaceOnUse">
<stop stop-color="#FC5C7D"/>
<stop offset="0.12" stop-color="#DF6496"/>
<stop offset="0.31" stop-color="#B56EBA"/>
<stop offset="0.5" stop-color="#9477D6"/>
<stop offset="0.69" stop-color="#7D7DEB"/>
<stop offset="0.85" stop-color="#6F81F7"/>
<stop offset="1" stop-color="#6A82FB"/>
</linearGradient>
<clipPath id="clip0_4448_1147">
<rect width="417" height="181" fill="white" transform="translate(106 224)"/>
</clipPath>
</defs>
</svg>
