<svg width="630" height="630" viewBox="0 0 630 630" fill="none" xmlns="http://www.w3.org/2000/svg">
<rect width="630" height="630" fill="black"/>
<g clip-path="url(#clip0_4436_767)">
<mask id="mask0_4436_767" style="mask-type:luminance" maskUnits="userSpaceOnUse" x="102" y="265" width="426" height="100">
<path d="M528 265H102V365H528V265Z" fill="white"/>
</mask>
<g mask="url(#mask0_4436_767)">
<path d="M142.281 279.869H143.667C154.669 279.869 162.725 285.962 163.418 296.341H180.368C180.368 277.895 166.103 264.807 143.379 265.004C121.231 264.722 106.62 278.712 106.909 293.549C107.198 308.386 115.369 317.919 132.088 321.36L148.951 324.774C158.249 326.663 161.974 330.415 161.974 337.099C161.974 344.292 155.362 350.131 144.014 350.131H142.628C127.959 350.131 119.296 342.882 118.863 331.543H102C102.693 352.444 116.438 364.996 141.531 364.996C164.4 365.193 179.069 352.98 179.069 336.084C179.069 320.684 169.424 311.686 151.868 308.216L136.651 305.226C127.988 303.534 123.974 299.867 123.974 293.098C123.916 285.764 131.135 279.869 142.281 279.869Z" fill="white"/>
<path d="M298.354 318.399C298.354 302.999 287.12 292.816 269.131 292.816C252.557 292.816 240.717 302.181 239.592 315.128H255.848C256.484 309.768 261.623 305.904 268.583 305.904H269.766C271.498 305.826 273.226 306.109 274.836 306.736C276.445 307.363 277.899 308.319 279.099 309.54C280.299 310.761 281.219 312.218 281.796 313.814C282.372 315.41 282.593 317.108 282.443 318.794V320.684L263.992 322.179C257.365 322.554 250.984 324.766 245.597 328.554C243.127 330.436 241.165 332.88 239.882 335.672C238.599 338.465 238.033 341.521 238.235 344.575C238.033 356.45 248.543 365.137 261.335 364.996C265.851 365.074 270.314 364.026 274.3 361.95C277.876 360.119 280.872 357.369 282.963 353.996V355.632C283.064 358.313 283.315 360.987 283.713 363.642H299.017C298.423 358.578 298.171 353.48 298.267 348.383L298.354 318.399ZM282.443 336.706C282.703 345.167 273.549 352.106 265.291 351.909H264.194C258.418 351.909 254.261 348.496 254.261 343.616C254.212 342.315 254.505 341.022 255.111 339.862C255.718 338.702 256.617 337.712 257.726 336.987C260.232 335.316 263.156 334.341 266.186 334.167L282.443 332.757V336.706Z" fill="white"/>
<path d="M375.654 294.172H359.397V363.644H375.654V294.172Z" fill="white"/>
<path d="M376.317 266.359H358.703V283.65H376.317V266.359Z" fill="white"/>
<path d="M420.294 292.816C400.457 292.534 385.384 308.132 385.643 328.892C385.384 349.652 400.457 365.25 420.294 364.996C440.189 365.25 455.262 349.652 454.945 328.892C455.262 308.132 440.189 292.534 420.294 292.816ZM420.901 352.049H419.746C409.148 352.049 401.987 343.588 401.987 329.033C401.987 314.479 409.148 305.989 419.746 305.989H420.901C431.498 305.989 438.688 314.45 438.688 328.977C438.688 343.503 431.498 351.908 420.901 351.908V352.049Z" fill="white"/>
<path d="M503.081 292.816C498.75 292.667 494.454 293.631 490.623 295.611C486.792 297.59 483.564 300.517 481.251 304.098V294.17H464.995V363.642H481.251V324.915C481.251 313.971 489.048 305.903 498.202 305.903H499.297C507.556 305.903 511.744 311.206 511.744 320.683V363.642H528V318.258C528 303.167 519.512 292.816 503.081 292.816Z" fill="white"/>
<path d="M214.76 271.605H198.561V294.142H183.632V307.371H198.561V363.615H214.76H231.103V349.653H214.76V307.371H231.103V294.142H214.76V271.605Z" fill="white"/>
<path d="M333.639 271.605H317.439V294.142H302.511V307.371H317.439V363.615H333.639H349.982V349.653H333.639V307.371H349.982V294.142H333.639V271.605Z" fill="white"/>
</g>
</g>
<defs>
<clipPath id="clip0_4436_767">
<rect width="426" height="100" fill="white" transform="translate(102 265)"/>
</clipPath>
</defs>
</svg>
