<svg width="630" height="630" viewBox="0 0 630 630" fill="none" xmlns="http://www.w3.org/2000/svg">
<rect width="630" height="630" fill="black"/>
<path fill-rule="evenodd" clip-rule="evenodd" d="M334.309 301.258L432.685 202.881L426.119 196.315L327.699 294.735L380.962 166.136L372.384 162.583L319.13 291.157V152H309.844V291.157L256.59 162.583L248.012 166.136L301.258 294.691L202.881 196.315L196.315 202.881L294.691 301.258L166.136 248.012L162.583 256.59L291.157 309.844H152V319.13H291.157L162.583 372.384L166.136 380.962L294.735 327.699L196.315 426.119L202.881 432.685L301.258 334.309L248.012 462.864L256.59 466.418L309.844 337.843V477H319.13V337.843L372.384 466.418L380.962 462.864L327.699 334.265L426.119 432.685L432.685 426.119L334.265 327.699L462.864 380.962L466.418 372.384L337.843 319.13H477V309.844H337.843L466.418 256.59L462.864 248.012L334.309 301.258Z" fill="white"/>
</svg>
