<svg width="630" height="630" viewBox="0 0 630 630" fill="none" xmlns="http://www.w3.org/2000/svg">
<rect width="630" height="630" fill="#181819"/>
<path fill-rule="evenodd" clip-rule="evenodd" d="M261.265 195.715C268.853 195.715 275.009 189.561 275.009 181.969V155.547C275.009 148.07 281.087 142 288.558 142H324.948C332.431 142 338.498 148.07 338.498 155.547V191.938C338.498 199.414 332.431 205.484 324.948 205.484H294.171C286.584 205.484 280.429 211.639 280.429 219.231V266.897C280.429 274.935 273.904 281.459 265.862 281.459H209.244C201.201 281.459 194.678 274.935 194.678 266.897V210.278C194.678 202.24 201.201 195.715 209.244 195.715H261.265Z" fill="#AEF4E3"/>
<path fill-rule="evenodd" clip-rule="evenodd" d="M434.316 261.822C434.316 269.41 440.471 275.566 448.063 275.566H480.001C484.967 275.566 489 279.601 489 284.567V330.054C489 335.02 484.967 339.055 480.001 339.055H434.513C429.547 339.055 425.516 335.02 425.516 330.054V295.213C425.516 287.625 419.36 281.469 411.769 281.469H363.136C355.097 281.469 348.573 274.946 348.573 266.903V210.285C348.573 202.242 355.097 195.719 363.136 195.719H419.753C427.792 195.719 434.316 202.242 434.316 210.285V261.822Z" fill="#68D1BF"/>
<path fill-rule="evenodd" clip-rule="evenodd" d="M367.72 433.905C360.132 433.905 353.977 440.06 353.977 447.652V478.138C353.977 483.104 349.941 487.136 344.976 487.136H299.487C294.522 487.136 290.486 483.104 290.486 478.138V432.651C290.486 427.683 294.522 423.652 299.487 423.652H334.814C342.401 423.652 348.556 417.497 348.556 409.906V362.723C348.556 354.686 355.08 348.16 363.123 348.16H419.741C427.783 348.16 434.308 354.686 434.308 362.723V419.342C434.308 427.379 427.783 433.905 419.741 433.905H367.72Z" fill="#AEF4E5"/>
<path fill-rule="evenodd" clip-rule="evenodd" d="M194.683 368.253C194.683 360.664 188.528 354.509 180.937 354.509H153.547C146.07 354.509 140 348.431 140 340.96V304.568C140 297.087 146.07 291.02 153.547 291.02H189.938C197.414 291.02 203.484 297.087 203.484 304.568V334.378C203.484 341.966 209.639 348.122 217.231 348.122H265.865C273.903 348.122 280.427 354.645 280.427 362.687V419.306C280.427 427.349 273.903 433.872 265.865 433.872H209.246C201.208 433.872 194.683 427.349 194.683 419.306V368.253Z" fill="#67D2BF"/>
</svg>
