<svg width="630" height="630" viewBox="0 0 630 630" fill="none" xmlns="http://www.w3.org/2000/svg">
<rect width="630" height="630" fill="#FA536E"/>
<g clip-path="url(#clip0_1790_630)">
<path fill-rule="evenodd" clip-rule="evenodd" d="M1041.29 157.785H1087.54V417.241H1041.29V157.785ZM758.276 417.241H708.147V211.024H639.662V166.951H827.819V211.024H758.276V417.241ZM192.801 239.652H192.597V219.274V187.023C141.271 203.117 103.693 245.55 92.8987 296.602C90.8364 304.725 89.7417 313.23 89.7417 321.989V342.557V342.785V343.015V349.154H89.9326C93.2296 403.143 138.114 445.92 193.017 445.92C250.059 445.92 296.293 399.749 296.293 342.785C296.293 285.822 250.046 239.652 193.017 239.652H192.801ZM435.556 393.292H435.975V445.92C487.301 429.826 524.866 387.392 535.661 336.328C537.723 328.218 538.831 319.713 538.831 310.955V283.788H538.64C535.343 229.8 490.446 187.023 435.556 187.023C378.514 187.023 332.28 233.194 332.28 290.157C332.28 347.108 378.514 393.292 435.556 393.292ZM911.482 242.397C856.412 242.397 819.698 279.771 819.698 331.23C819.698 382.701 856.412 420.419 911.482 420.419C965.134 420.419 1002.9 383.757 1002.9 331.23C1002.91 278.347 965.134 242.397 911.482 242.397ZM911.482 378.824C885 378.824 866.641 358.028 866.641 331.23C866.641 304.089 884.644 283.636 911.482 283.636C936.902 283.636 955.958 303.022 955.958 331.23C955.958 359.439 936.183 378.824 911.482 378.824ZM1191.48 420.419C1236.68 420.419 1258.2 397.156 1258.2 366.837C1258.2 332.641 1236.31 324.531 1198.89 310.789C1181.95 304.446 1173.47 299.501 1173.47 292.459C1173.47 283.293 1182.64 279.771 1189.71 279.771C1202.41 279.771 1217.95 285.416 1231.02 298.102L1253.61 263.906C1233.84 248.753 1214.43 242.397 1190.78 242.397C1155.13 242.397 1128.3 262.495 1128.3 293.513C1128.3 326.997 1153.01 340.396 1181.61 349.917C1203.85 357.316 1212.68 361.193 1212.68 368.605C1212.68 377.071 1205.27 382.701 1191.85 382.701C1172.78 382.701 1157.96 376.003 1143.84 362.96L1121.6 395.046C1140.29 411.253 1163.95 420.419 1191.48 420.419ZM1346.21 420.419C1369.51 420.419 1380.8 415.474 1391.74 409.487L1380.1 372.482C1372.33 376.359 1363.87 378.469 1358.21 378.469C1347.27 378.469 1343.38 371.426 1343.38 356.26V283.293H1389.99V244.864H1343.38V183.871L1297.13 188.803V244.864H1276.67V283.279H1297.13V362.96C1297.13 401.732 1316.56 420.419 1346.21 420.419ZM1496.85 242.397C1441.78 242.397 1405.07 279.771 1405.07 331.23C1405.07 382.701 1441.78 420.419 1496.85 420.419C1550.51 420.419 1588.28 383.757 1588.28 331.23C1588.28 278.347 1550.51 242.397 1496.85 242.397ZM1496.85 378.824C1470.37 378.824 1452.01 358.028 1452.01 331.23C1452.01 304.089 1470.02 283.636 1496.85 283.636C1522.27 283.636 1541.32 303.022 1541.32 331.23C1541.32 359.439 1521.56 378.824 1496.85 378.824ZM1633.99 487.044H1680.93L1773.79 244.864H1726.83L1687.64 350.616H1686.94L1644.94 244.864H1595.5L1664.7 406.664L1633.99 487.044Z" fill="white"/>
</g>
<defs>
<clipPath id="clip0_1790_630">
<rect width="451" height="264" fill="white" transform="translate(89 183)"/>
</clipPath>
</defs>
</svg>
