<svg width="630" height="630" viewBox="0 0 630 630" fill="none" xmlns="http://www.w3.org/2000/svg">
<rect width="630" height="630" fill="#09090B"/>
<path d="M186 443.581C242.775 500.356 334.826 500.356 391.601 443.581C448.375 386.806 448.375 294.756 391.601 237.98L365.9 263.68C408.482 306.262 408.482 375.3 365.9 417.881C323.32 460.462 254.281 460.462 211.7 417.881L186 443.581Z" fill="#00E9A3"/>
<path d="M237.4 392.183C265.788 420.57 311.813 420.57 340.201 392.183C368.588 363.796 368.588 317.77 340.201 289.383L314.501 315.083C328.694 329.276 328.694 352.289 314.501 366.483C300.306 380.677 277.294 380.677 263.1 366.483L237.4 392.183Z" fill="#00E9A3"/>
<path d="M443 186.581C386.225 129.806 294.174 129.806 237.399 186.581C180.624 243.356 180.624 335.407 237.399 392.182L263.099 366.482C220.518 323.901 220.518 254.863 263.099 212.282C305.68 169.7 374.718 169.7 417.299 212.282L443 186.581Z" fill="#00E9A3"/>
<path d="M391.6 237.982C363.213 209.595 317.186 209.595 288.799 237.982C260.411 266.37 260.411 312.395 288.799 340.782L314.499 315.082C300.306 300.888 300.306 277.876 314.499 263.682C328.693 249.488 351.705 249.488 365.9 263.682L391.6 237.982Z" fill="#00E9A3"/>
<path d="M443 186.581C386.225 129.806 294.174 129.806 237.399 186.581C180.624 243.356 180.624 335.407 237.399 392.182L263.099 366.482C220.518 323.901 220.518 254.863 263.099 212.282C305.68 169.7 374.718 169.7 417.299 212.282L443 186.581Z" fill="white" fill-opacity="0.8"/>
<path d="M391.6 237.982C363.213 209.595 317.186 209.595 288.799 237.982C260.411 266.37 260.411 312.395 288.799 340.782L314.499 315.082C300.306 300.888 300.306 277.876 314.499 263.682C328.693 249.488 351.705 249.488 365.9 263.682L391.6 237.982Z" fill="white" fill-opacity="0.8"/>
</svg>
