<svg width="630" height="630" viewBox="0 0 630 630" fill="none" xmlns="http://www.w3.org/2000/svg">
<rect width="630" height="630" fill="white"/>
<path d="M244.437 283.1C245.847 283.1 246.835 284.5 246.379 285.84L215.786 375.68C215.415 376.766 214.717 377.709 213.789 378.377C212.861 379.044 211.749 379.403 210.609 379.404H183.585C182.444 379.404 181.331 379.044 180.402 378.376C179.473 377.708 178.775 376.764 178.404 375.676L147.875 285.84C147.769 285.529 147.738 285.196 147.785 284.87C147.832 284.544 147.956 284.234 148.146 283.966C148.336 283.698 148.586 283.48 148.877 283.329C149.167 283.179 149.49 283.1 149.816 283.1H176.884C177.487 283.099 178.073 283.299 178.552 283.669C179.031 284.039 179.375 284.557 179.532 285.144L196.599 349.432H197.591L214.722 285.144C214.879 284.559 215.223 284.041 215.701 283.673C216.179 283.304 216.764 283.104 217.366 283.104H244.437V283.1ZM254.16 379.4C253.433 379.4 252.737 379.109 252.223 378.592C251.709 378.074 251.421 377.372 251.421 376.64V285.864C251.421 284.34 252.651 283.104 254.16 283.104H279.111C280.624 283.104 281.851 284.34 281.851 285.864V376.64C281.851 377.372 281.562 378.074 281.048 378.592C280.535 379.109 279.838 379.4 279.111 379.4H254.16ZM344.87 283.1C346.387 283.1 347.61 284.336 347.61 285.86V302.912C347.61 303.274 347.539 303.633 347.401 303.968C347.264 304.303 347.062 304.607 346.807 304.864C346.553 305.12 346.251 305.323 345.919 305.462C345.586 305.601 345.23 305.672 344.87 305.672H290.057C289.697 305.672 289.341 305.601 289.008 305.462C288.676 305.323 288.374 305.12 288.12 304.864C287.865 304.607 287.664 304.303 287.526 303.968C287.388 303.633 287.317 303.274 287.317 302.912V285.86C287.317 284.336 288.544 283.1 290.057 283.1H344.87ZM299.95 262.788C299.95 261.264 301.177 260.028 302.689 260.028H327.641C329.149 260.028 330.38 261.264 330.38 262.788V349.12C330.38 351 330.67 352.524 331.253 353.696C331.873 354.824 332.762 355.64 333.925 356.14C335.088 356.6 336.478 356.832 338.094 356.832C339.63 356.823 341.163 356.66 342.667 356.344C343.219 356.232 343.792 356.342 344.264 356.651C344.736 356.96 345.069 357.443 345.192 357.996L348.836 375.508C348.984 376.188 348.864 376.898 348.502 377.49C348.14 378.083 347.564 378.511 346.895 378.684C345.831 378.956 344.597 379.26 343.199 379.588C340.583 380.216 337.451 380.612 333.802 380.78C326.664 381.116 320.546 380.28 315.445 378.272C310.383 376.224 306.504 373.048 303.809 368.744C301.153 364.436 299.867 359.024 299.95 352.504V262.788ZM387.75 380.78C380.7 380.78 374.292 378.94 368.524 375.26C362.755 371.584 358.15 366.068 354.708 358.712C351.266 351.352 349.547 342.224 349.547 331.312C349.547 319.988 351.326 310.664 354.895 303.352C358.464 296.036 363.128 290.624 368.897 287.112C374.538 283.649 381.021 281.827 387.627 281.848C392.645 281.848 396.941 282.724 400.506 284.48C404.075 286.192 407.017 288.408 409.343 291.124C411.666 293.844 413.432 296.664 414.631 299.588H415.255V285.86C415.255 284.336 416.481 283.1 417.994 283.1H442.945C444.454 283.1 445.685 284.336 445.685 285.86V376.64C445.685 377.372 445.396 378.074 444.882 378.592C444.369 379.109 443.672 379.4 442.945 379.4H418.304C417.577 379.4 416.88 379.109 416.367 378.592C415.853 378.074 415.564 377.372 415.564 376.64V363.784H414.631C413.279 366.852 411.427 369.671 409.153 372.124C406.791 374.716 403.825 376.804 400.26 378.396C396.731 379.984 392.562 380.78 387.75 380.78ZM398.33 356.892C402.023 356.892 405.175 355.852 407.787 353.76C410.399 351.628 412.412 348.64 413.821 344.792C415.235 340.948 415.937 336.432 415.937 331.252C415.937 325.984 415.235 321.452 413.821 317.644C412.456 313.844 410.443 310.916 407.787 308.868C405.175 306.82 402.023 305.796 398.33 305.796C394.555 305.796 391.359 306.84 388.747 308.932C386.131 311.02 384.142 313.968 382.772 317.772C381.446 321.572 380.779 326.068 380.779 331.252C380.779 336.432 381.466 340.948 382.836 344.792C384.205 348.64 386.17 351.628 388.747 353.76C391.359 355.848 394.555 356.892 398.33 356.892ZM479.584 251C481.093 251 482.324 252.236 482.324 253.76V376.64C482.324 377.372 482.035 378.074 481.521 378.592C481.008 379.109 480.311 379.4 479.584 379.4H454.633C453.906 379.4 453.21 379.109 452.696 378.592C452.182 378.074 451.894 377.372 451.894 376.64V253.76C451.894 252.236 453.12 251 454.633 251H479.584Z" fill="black"/>
</svg>
