<svg width="630" height="630" viewBox="0 0 630 630" fill="none" xmlns="http://www.w3.org/2000/svg">
<rect width="630" height="630" fill="#17181B"/>
<path d="M325.445 110.063C325.34 117.264 323.122 124.272 319.07 130.207C315.017 136.143 309.311 140.741 302.669 143.423C296.027 146.106 288.745 146.753 281.739 145.283C274.732 143.814 268.314 140.294 263.291 135.165C258.267 130.036 254.863 123.527 253.504 116.457C252.146 109.386 252.896 102.07 255.658 95.4268C258.421 88.7839 263.073 83.1107 269.031 79.1205C274.989 75.1301 281.986 73.0008 289.143 73C298.824 73.1273 308.065 77.0899 314.861 84.0284C321.657 90.9668 325.46 100.322 325.445 110.063Z" fill="white"/>
<path d="M498.634 240.597C495.045 220.798 487.802 201.85 477.279 184.734C462.723 162.204 442.893 143.614 419.53 130.596C396.166 117.578 369.984 110.53 343.281 110.07C323.481 110.204 303.898 114.218 285.624 121.888C248.077 136.614 214.708 160.411 188.462 191.18C193.8 215.888 199.673 240.06 205.012 265.305L423.893 386.701L493.829 360.917C505.541 321.869 507.195 280.465 498.634 240.597Z" fill="white"/>
<path d="M224.012 259.398C224.012 259.398 230.952 307.741 174.363 330.838C117.774 353.936 100.904 321.868 79.8701 364.839C58.8361 407.811 100.157 368.599 112.435 371.285C124.714 373.971 191.98 374.508 209.597 366.988C235.757 355.708 256.043 334.76 266.72 292.862C277.398 250.964 224.012 259.398 224.012 259.398Z" fill="white"/>
<path d="M346.787 332.993C346.787 332.993 297.138 330.307 297.138 392.079C297.138 453.851 254.429 450.628 221.33 483.931C176.486 529.589 193.035 462.982 203.179 455.462C264.038 410.342 253.362 406.045 253.895 386.707C253.895 357.702 265.64 330.844 299.807 305.061C333.974 279.278 346.787 332.993 346.787 332.993Z" fill="white"/>
<path d="M413.75 374.344C413.75 374.344 367.304 386.699 367.304 447.933C367.304 509.168 404.14 514.538 372.108 549.453C352.356 570.939 353.424 538.711 353.957 520.985C354.492 508.63 320.858 447.396 320.858 428.059C320.858 399.053 332.603 372.196 366.77 346.413C400.937 320.63 413.75 374.344 413.75 374.344Z" fill="white"/>
<path d="M554.998 235.22C554.946 242.497 552.749 249.595 548.687 255.616C544.625 261.637 538.88 266.311 532.177 269.046C525.475 271.782 518.118 272.456 511.034 270.985C503.951 269.513 497.46 265.96 492.384 260.778C487.307 255.595 483.871 249.013 482.513 241.866C481.153 234.718 481.931 227.326 484.747 220.623C487.564 213.92 492.292 208.208 498.335 204.209C504.379 200.21 511.464 198.104 518.696 198.157C523.503 198.178 528.257 199.155 532.687 201.031C537.117 202.909 541.134 205.648 544.509 209.092C547.882 212.537 550.546 216.618 552.346 221.103C554.146 225.586 555.047 230.384 554.998 235.22Z" fill="white"/>
</svg>
