<svg width="1320" height="397" viewBox="0 0 1320 397" fill="none" xmlns="http://www.w3.org/2000/svg">
<g clip-path="url(#clip0_1784_220)">
<path d="M329.073 315.165C315.572 328.27 299.799 338.963 282.477 346.757C261.967 356.301 239.703 361.781 216.986 362.876C194.269 363.972 171.554 360.661 150.171 353.137C128.725 345.657 109.019 334.127 92.1915 319.211C75.3637 304.296 61.7477 286.291 52.1302 266.237C11.79 182.945 47.235 83.0646 132.811 38.8887L133.355 38.6687L137.071 41.6167L159.1 65.7726C162.625 69.1992 166.817 71.9125 171.431 73.7553C176.045 75.5982 180.989 76.534 185.978 76.5087C195.795 76.5449 205.241 72.8676 212.313 66.2567L245.673 34.9727L246.262 35.2367C249.711 37.4251 252.837 40.0601 255.554 43.0686L256.551 44.1246L257.367 45.0486C264.075 52.7487 285.424 81.8766 278.262 132.389L309.991 171.725L309.038 177.356C304.506 200.017 281.072 219.2 251.293 225.097C244.853 226.408 238.292 227.072 231.712 227.077C200.437 227.077 169.752 210.709 149.536 183.385L149.219 182.9L149.446 182.197L166.352 166.004L166.941 166.577L167.258 167.017C168.301 168.469 169.389 169.832 170.431 171.416C186.839 191.833 208.732 203.096 232.075 203.096C236.933 203.093 241.778 202.606 246.534 201.644C264.075 198.169 278.716 188.444 283.792 176.917L252.653 138.725L253.332 133.313C259.225 99.6966 250.386 78.1367 244.63 68.2806L244.222 68.6327L242.772 70.1727L229.174 83.3727C217.568 94.2376 202.056 100.283 185.933 100.225C177.739 100.284 169.614 98.7588 162.035 95.737C154.455 92.7151 147.571 88.2576 141.785 82.6247L129.185 67.4886C65.728 106.253 41.7505 189.061 74.204 256.028C86.2752 280.803 105.323 301.756 129.145 316.464C152.967 331.173 180.59 339.035 208.823 339.145C230.784 339.17 252.471 334.403 272.279 325.196C287.842 318.02 301.998 308.267 314.115 296.377L329.073 315.165ZM237.196 123.677C237.179 120.974 236.337 118.337 234.777 116.098C233.217 113.86 231.01 112.119 228.432 111.097C225.855 110.075 223.023 109.817 220.295 110.354C217.567 110.892 215.063 112.203 213.101 114.12C211.139 116.037 209.805 118.475 209.269 121.127C208.732 123.779 209.017 126.526 210.086 129.022C211.155 131.517 212.962 133.649 215.279 135.148C217.595 136.648 220.316 137.449 223.1 137.449C224.957 137.443 226.795 137.082 228.509 136.387C230.222 135.692 231.778 134.676 233.087 133.397C234.395 132.118 235.433 130.601 236.137 128.933C236.843 127.266 237.202 125.479 237.196 123.677Z" fill="#737373"/>
<path d="M1152.65 346.401V327.966H1169.83C1180.52 327.966 1183.97 319.694 1189.14 307.154L1190.37 304.161L1194.54 294.438L1120.42 128.514H1143.09L1205.32 267.201L1260.85 128.514H1283.51L1220.32 286.254L1211.8 307.989C1201.78 333.597 1188.73 346.578 1172.96 346.578L1152.65 346.401Z" fill="#737373"/>
<path d="M652.064 122.572C579.134 122.572 573.469 184.173 573.469 203.137C573.469 243.397 594.092 286.473 652.064 286.473C710.037 286.473 730.705 243.397 730.705 203.137C730.705 184.216 725.039 122.572 652.064 122.572ZM652.064 267.112C605.378 267.112 598.398 226.633 598.398 202.521C598.398 162.921 616.937 141.889 652.064 141.889C687.192 141.889 705.776 162.877 705.776 202.521C705.776 226.633 698.796 267.201 652.064 267.201V267.112Z" fill="#737373"/>
<path d="M470.403 286.475C412.203 286.475 391.49 243.267 391.49 202.875C391.49 184.043 397.111 122.619 469.768 122.619C523.434 122.619 541.021 155.795 546.097 184.791H522.436C517.088 156.763 498.912 141.935 469.768 141.935C445.428 141.935 416.419 152.451 416.419 202.567C416.419 244.191 435.592 267.203 470.403 267.203C497.598 267.203 516.273 253.431 522.346 229.275H546.188C541.655 248.459 526.017 286.475 470.403 286.475Z" fill="#737373"/>
<path d="M1093.81 68.1484H1070.2V283.397H1093.81V68.1484Z" fill="#737373"/>
<path d="M1029.05 128.514H1005.44V283.35H1029.05V128.514Z" fill="#737373"/>
<path d="M881.604 283.389V128.421H905.26V156.89H910.065C910.065 153.854 919.134 125.649 948.507 125.649C955.7 125.569 962.798 127.217 969.174 130.446V152.181C962.589 148.523 955.144 146.568 947.551 146.505C919.769 146.505 905.26 174.842 905.26 202.826V283.389H881.604Z" fill="#737373"/>
<path d="M762.389 283.394V128.426H786.048V156.894H790.944C790.944 153.858 799.782 125.654 829.335 125.654C836.481 125.596 843.531 127.244 849.867 130.449V152.186C843.268 148.519 835.806 146.564 828.202 146.51C800.463 146.51 785.913 174.846 785.913 202.83V283.394H762.389Z" fill="#737373"/>
<path d="M1029.27 105.112V81.7012H1005.16V105.112H1029.27Z" fill="#737373"/>
<path d="M1432.04 -113.529H-93.2241V490.899H1432.04V-113.529Z" stroke="#737373" stroke-width="2" stroke-miterlimit="10"/>
</g>
<defs>
<clipPath id="clip0_1784_220">
<rect width="1251" height="330" fill="white" transform="translate(34 34)"/>
</clipPath>
</defs>
</svg>
