<svg width="1280" height="397" viewBox="0 0 1280 397" fill="none" xmlns="http://www.w3.org/2000/svg">
<path d="M945.4 95V125.3H915V95H945.4ZM1124.9 250.8C1124.9 282.8 1145.1 302.2 1177.1 302.2H1207V276.1H1179.6C1164 276.1 1155.2 266.4 1155.2 249.6V173.4H1207V146.9H1155.2V95H1124.9V170.8V250.8ZM915 146.8V302.2H945.3V146.8H915ZM559.5 198.6C559.5 266 512.7 302.2 455 302.2H391V95H455C512.7 95 559.5 131.2 559.5 198.6ZM527.9 198.6C527.9 144.7 491.3 123.6 453.4 123.6H423V273.5H453.3C491.2 273.6 527.9 252.5 527.9 198.6ZM1098.2 276.7C1106.9 265.4 1110.6 253.9 1111.7 250H1081.7C1080 254.8 1070.1 277.7 1037.7 277.7C1025.1 277.7 1013.6 272.6 1005.2 263.3C996.4 253.5 991.8 240 991.8 224.2C991.8 208.4 996.4 194.9 1005.2 185.1C1013.5 175.8 1025.1 170.7 1037.7 170.7C1068.7 170.7 1078.4 193.7 1080.1 198.4H1111.6C1110.5 194.5 1106.8 183 1098.1 171.7C1083.8 153.1 1063.4 143.7 1037.7 143.7C1016.3 143.7 996.7 151.7 982.5 166.3C968.2 181 960.3 201.6 960.3 224.2C960.3 246.8 968.2 267.4 982.5 282.1C996.7 296.6 1016.3 304.7 1037.7 304.7C1063.6 304.7 1083.9 295.3 1098.2 276.7ZM711.9 279.7C721.2 269.9 725.8 259.9 727.3 256.2H695.8C693.5 259.7 680.1 277.8 650.5 277.8C625.7 277.8 606.1 260.7 601.6 235.3L601.4 233.9H729.4V224.3C729.4 179.2 694.7 143.9 650.5 143.9C606.3 143.9 571.6 179.2 571.6 224.3C571.6 269.4 606.3 304.7 650.5 304.7C681.9 304.6 701.2 291.1 711.9 279.7ZM697.9 208.6L698.1 210H602.9L603.2 208.6C607.7 186.3 627.1 170.7 650.5 170.7C670.9 170.7 693.5 182.4 697.9 208.6ZM900 224.1C900 270.1 871.4 304.1 823.3 304.1C802.2 304.1 783.7 294.6 774.4 279.6V353.9H744.1V146.8H774.4V169.4C783.7 154.1 803 143.7 824.9 143.7C872.6 143.7 900 177.7 900 224.1ZM870.4 224.1C870.4 191.8 850.6 170.2 821.5 170.2C792 170.2 773.1 191.8 773.1 224.1C773.1 256.4 792.1 278 821.5 278C850.6 278 870.4 256.4 870.4 224.1Z" fill="#71717A"/>
<path d="M199 124.7C224.5 124.7 245.4 104.8 247.1 79.8004C236.7 75.6004 225.7 72.8004 214.2 71.4004C214.7 73.0004 215.1 74.7004 215.1 76.5004C215.1 85.4004 207.9 92.6004 199 92.6004C190.1 92.6004 182.9 85.4004 182.9 76.5004C182.9 74.7004 183.2 73.0004 183.8 71.4004C172.3 72.8004 161.3 75.6004 150.9 79.8004C152.6 104.8 173.5 124.7 199 124.7Z" fill="#71717A"/>
<path d="M134.7 236.201C121.9 214.101 94.3002 205.901 71.7002 217.001C73.3002 228.401 76.4002 239.401 80.8002 249.701C81.9002 248.401 83.3002 247.301 84.8002 246.401C92.5002 242.001 102.3 244.601 106.7 252.301C111.1 260.001 108.5 269.801 100.8 274.201C99.2002 275.101 97.6002 275.701 95.9002 276.001C102.7 285.101 110.7 293.201 119.6 300.201C140.6 286.201 147.4 258.201 134.7 236.201Z" fill="#71717A"/>
<path d="M301.9 276C300.2 275.7 298.6 275.1 297 274.2C289.3 269.8 286.7 259.9 291.1 252.3C295.5 244.7 305.4 242 313 246.4C314.6 247.3 315.9 248.4 317 249.7C321.4 239.4 324.5 228.5 326.1 217C303.6 206 275.9 214.1 263.2 236.2C250.5 258.3 257.2 286.3 278 300.3C287.1 293.2 295.1 285.1 301.9 276Z" fill="#71717A"/>
<path d="M217.8 167.9C234.8 167.9 251.2 161.1 263.2 149.1L296.7 115.6C289.7 107.4 281.7 100.1 272.9 93.9004L198.9 167.9H217.8Z" fill="#71717A"/>
<path d="M180.2 167.9H199L125 93.9004C116.2 100.1 108.2 107.4 101.2 115.6L134.7 149.1C146.8 161.1 163.1 167.9 180.2 167.9Z" fill="#71717A"/>
<path d="M162.6 198.3C154.1 183.5 140 172.8 123.6 168.4L77.8 156.1C74.3 166 72 176.6 71 187.5L172 214.6L162.6 198.3Z" fill="#71717A"/>
<path d="M181.5 230.9L172.1 214.6L145 315.6C154.6 320.1 164.9 323.4 175.6 325.4L187.9 279.6C192.3 263.2 190 245.6 181.5 230.9Z" fill="#71717A"/>
<path d="M216.5 230.9C208 245.7 205.7 263.2 210.1 279.7L222.4 325.5C233.1 323.5 243.4 320.2 253 315.7L226 214.6L216.5 230.9Z" fill="#71717A"/>
<path d="M235.4 198.3L226 214.6L327 187.5C326 176.6 323.7 166 320.2 156.1L274.4 168.4C257.9 172.7 243.9 183.5 235.4 198.3Z" fill="#71717A"/>
</svg>
