<svg width="1280" height="397" viewBox="0 0 1280 397" fill="none" xmlns="http://www.w3.org/2000/svg">
<path d="M83.7816 126.545V272H53.0288V126.545H83.7816ZM136.836 126.545V272H106.083V126.545H136.836ZM159.138 272V126.545H257.15V151.901H189.891V186.56H252.107V211.915H189.891V246.645H257.434V272H159.138ZM308.287 126.545V272H278.031V126.545H308.287ZM379.239 274.131C368.017 274.131 358.358 271.858 350.262 267.312C342.212 262.72 336.01 256.233 331.654 247.852C327.298 239.424 325.12 229.457 325.12 217.952C325.12 206.73 327.298 196.882 331.654 188.406C336.01 179.931 342.141 173.326 350.049 168.591C358.003 163.856 367.331 161.489 378.032 161.489C385.229 161.489 391.928 162.649 398.131 164.969C404.381 167.241 409.826 170.674 414.466 175.267C419.154 179.86 422.8 185.636 425.404 192.597C428.008 199.509 429.31 207.606 429.31 216.886V225.196H337.194V206.446H400.83C400.83 202.09 399.883 198.231 397.989 194.869C396.095 191.508 393.467 188.88 390.105 186.986C386.791 185.045 382.932 184.074 378.529 184.074C373.936 184.074 369.864 185.139 366.313 187.27C362.809 189.353 360.063 192.17 358.074 195.722C356.086 199.225 355.068 203.132 355.02 207.44V225.267C355.02 230.665 356.015 235.329 358.003 239.259C360.039 243.188 362.904 246.219 366.597 248.349C370.29 250.48 374.67 251.545 379.736 251.545C383.098 251.545 386.176 251.072 388.969 250.125C391.763 249.178 394.154 247.758 396.142 245.864C398.131 243.97 399.646 241.65 400.688 238.903L428.671 240.75C427.25 247.473 424.338 253.345 419.935 258.364C415.579 263.335 409.944 267.218 403.032 270.011C396.166 272.758 388.235 274.131 379.239 274.131ZM544.829 162.909L506.69 272H472.599L434.46 162.909H466.42L489.076 240.963H490.213L512.798 162.909H544.829ZM603.512 274.131C592.291 274.131 582.632 271.858 574.535 267.312C566.486 262.72 560.283 256.233 555.927 247.852C551.571 239.424 549.393 229.457 549.393 217.952C549.393 206.73 551.571 196.882 555.927 188.406C560.283 179.931 566.415 173.326 574.322 168.591C582.277 163.856 591.604 161.489 602.305 161.489C609.502 161.489 616.202 162.649 622.404 164.969C628.654 167.241 634.1 170.674 638.74 175.267C643.427 179.86 647.073 185.636 649.677 192.597C652.281 199.509 653.583 207.606 653.583 216.886V225.196H561.467V206.446H625.103C625.103 202.09 624.156 198.231 622.262 194.869C620.368 191.508 617.741 188.88 614.379 186.986C611.065 185.045 607.206 184.074 602.802 184.074C598.209 184.074 594.137 185.139 590.586 187.27C587.083 189.353 584.336 192.17 582.348 195.722C580.359 199.225 579.341 203.132 579.294 207.44V225.267C579.294 230.665 580.288 235.329 582.277 239.259C584.313 243.188 587.177 246.219 590.87 248.349C594.564 250.48 598.943 251.545 604.01 251.545C607.371 251.545 610.449 251.072 613.243 250.125C616.036 249.178 618.427 247.758 620.416 245.864C622.404 243.97 623.92 241.65 624.961 238.903L652.944 240.75C651.524 247.473 648.612 253.345 644.208 258.364C639.852 263.335 634.218 267.218 627.305 270.011C620.44 272.758 612.509 274.131 603.512 274.131ZM700.583 208.932V272H670.328V162.909H699.163V182.156H700.441C702.856 175.812 706.904 170.793 712.586 167.099C718.268 163.359 725.157 161.489 733.254 161.489C740.83 161.489 747.435 163.146 753.069 166.46C758.704 169.775 763.083 174.509 766.208 180.665C769.333 186.773 770.896 194.064 770.896 202.54V272H740.64V207.938C740.688 201.261 738.983 196.053 735.527 192.312C732.07 188.525 727.312 186.631 721.251 186.631C717.179 186.631 713.581 187.507 710.456 189.259C707.378 191.01 704.963 193.567 703.211 196.929C701.507 200.243 700.631 204.244 700.583 208.932ZM792.31 272V126.545H823.063V246.645H885.421V272H792.31ZM933.326 274.06C926.366 274.06 920.163 272.852 914.718 270.438C909.273 267.975 904.965 264.353 901.792 259.571C898.667 254.741 897.105 248.728 897.105 241.531C897.105 235.471 898.217 230.381 900.443 226.261C902.668 222.142 905.699 218.828 909.534 216.318C913.369 213.809 917.725 211.915 922.602 210.636C927.526 209.358 932.687 208.458 938.085 207.938C944.43 207.275 949.543 206.659 953.426 206.091C957.308 205.475 960.126 204.576 961.877 203.392C963.629 202.208 964.505 200.456 964.505 198.136V197.71C964.505 193.212 963.085 189.732 960.244 187.27C957.45 184.808 953.473 183.577 948.312 183.577C942.867 183.577 938.535 184.784 935.315 187.199C932.095 189.566 929.965 192.549 928.923 196.148L900.94 193.875C902.36 187.246 905.154 181.517 909.321 176.688C913.487 171.811 918.861 168.07 925.443 165.466C932.072 162.814 939.742 161.489 948.454 161.489C954.515 161.489 960.315 162.199 965.855 163.619C971.442 165.04 976.39 167.241 980.699 170.224C985.055 173.207 988.487 177.043 990.997 181.73C993.506 186.37 994.761 191.934 994.761 198.42V272H966.068V256.872H965.216C963.464 260.281 961.12 263.288 958.184 265.892C955.249 268.449 951.721 270.461 947.602 271.929C943.483 273.349 938.724 274.06 933.326 274.06ZM941.991 253.179C946.442 253.179 950.372 252.303 953.781 250.551C957.19 248.752 959.865 246.337 961.806 243.307C963.748 240.277 964.718 236.844 964.718 233.009V221.432C963.771 222.047 962.469 222.616 960.812 223.136C959.202 223.61 957.379 224.06 955.343 224.486C953.307 224.865 951.271 225.22 949.235 225.551C947.199 225.835 945.353 226.096 943.696 226.332C940.145 226.853 937.043 227.682 934.392 228.818C931.74 229.955 929.681 231.493 928.213 233.435C926.745 235.329 926.011 237.696 926.011 240.537C926.011 244.656 927.502 247.805 930.485 249.983C933.516 252.114 937.351 253.179 941.991 253.179ZM1015.8 272V126.545H1046.06V181.233H1046.98C1048.31 178.297 1050.22 175.314 1052.73 172.284C1055.29 169.206 1058.61 166.65 1062.68 164.614C1066.8 162.53 1071.91 161.489 1078.02 161.489C1085.97 161.489 1093.31 163.572 1100.04 167.739C1106.76 171.858 1112.13 178.084 1116.16 186.418C1120.18 194.704 1122.19 205.097 1122.19 217.597C1122.19 229.765 1120.23 240.04 1116.3 248.42C1112.42 256.754 1107.11 263.075 1100.39 267.384C1093.71 271.645 1086.23 273.776 1077.95 273.776C1072.08 273.776 1067.08 272.805 1062.96 270.864C1058.89 268.922 1055.55 266.484 1052.95 263.548C1050.34 260.565 1048.35 257.559 1046.98 254.528H1045.63V272H1015.8ZM1045.42 217.455C1045.42 223.941 1046.32 229.599 1048.12 234.429C1049.92 239.259 1052.52 243.023 1055.93 245.722C1059.34 248.373 1063.48 249.699 1068.36 249.699C1073.28 249.699 1077.45 248.349 1080.86 245.651C1084.27 242.904 1086.85 239.116 1088.6 234.287C1090.4 229.41 1091.3 223.799 1091.3 217.455C1091.3 211.157 1090.42 205.617 1088.67 200.835C1086.92 196.053 1084.34 192.312 1080.93 189.614C1077.52 186.915 1073.33 185.565 1068.36 185.565C1063.43 185.565 1059.27 186.867 1055.86 189.472C1052.5 192.076 1049.92 195.769 1048.12 200.551C1046.32 205.333 1045.42 210.968 1045.42 217.455ZM1230.15 194.017L1202.45 195.722C1201.98 193.354 1200.96 191.223 1199.4 189.33C1197.83 187.388 1195.77 185.849 1193.22 184.713C1190.71 183.529 1187.7 182.938 1184.2 182.938C1179.51 182.938 1175.56 183.932 1172.34 185.92C1169.12 187.862 1167.51 190.466 1167.51 193.733C1167.51 196.337 1168.55 198.539 1170.63 200.338C1172.72 202.137 1176.29 203.581 1181.36 204.67L1201.1 208.648C1211.71 210.826 1219.61 214.33 1224.82 219.159C1230.03 223.989 1232.64 230.333 1232.64 238.193C1232.64 245.343 1230.53 251.616 1226.31 257.014C1222.15 262.412 1216.42 266.626 1209.13 269.656C1201.88 272.639 1193.53 274.131 1184.06 274.131C1169.61 274.131 1158.11 271.124 1149.54 265.111C1141.02 259.05 1136.02 250.812 1134.55 240.395L1164.31 238.832C1165.21 243.236 1167.39 246.598 1170.85 248.918C1174.3 251.19 1178.73 252.327 1184.13 252.327C1189.43 252.327 1193.69 251.309 1196.91 249.273C1200.18 247.189 1201.84 244.514 1201.88 241.247C1201.84 238.501 1200.68 236.252 1198.4 234.5C1196.13 232.701 1192.63 231.328 1187.89 230.381L1169 226.616C1158.35 224.486 1150.41 220.793 1145.21 215.537C1140.05 210.281 1137.46 203.581 1137.46 195.438C1137.46 188.43 1139.36 182.393 1143.15 177.327C1146.98 172.26 1152.36 168.354 1159.27 165.608C1166.23 162.862 1174.37 161.489 1183.7 161.489C1197.48 161.489 1208.32 164.401 1216.23 170.224C1224.18 176.048 1228.82 183.979 1230.15 194.017Z" fill="#7D7D85"/>
</svg>
