<svg width="1320" height="397" viewBox="0 0 1320 397" fill="none" xmlns="http://www.w3.org/2000/svg">
<path d="M555.505 282.893H617.568V307.854H524.302V93.8027H615.168V118.764H555.505V184.758H604.88V209.719H555.505V282.893ZM733.73 198.435L779.676 307.854H745.388L716.585 226.474L687.782 307.854H654.522L699.783 198.435L657.608 93.8027H691.897L716.585 170.738L741.616 93.8027H775.219L733.73 198.435ZM828.04 93.8027H898.332C919.591 93.8027 930.221 103.833 930.221 123.893V195.016C930.221 215.075 919.591 225.106 898.332 225.106H858.9V307.854H828.04V93.8027ZM899.361 190.229V128.68C899.361 124.577 898.675 121.955 897.304 120.816C895.932 119.448 893.189 118.764 889.075 118.764H858.9V200.486H889.075C893.189 200.486 895.932 199.802 897.304 198.435C898.675 197.068 899.361 194.332 899.361 190.229ZM1017.63 282.893H1070.78V307.854H986.774V93.8027H1017.63V282.893ZM1149.57 93.8027H1187.63C1208.89 93.8027 1219.52 103.833 1219.52 123.893V277.764C1219.52 297.824 1208.89 307.854 1187.63 307.854H1149.57C1128.09 307.854 1117.34 297.824 1117.34 277.764V123.893C1117.34 103.833 1128.09 93.8027 1149.57 93.8027ZM1188.65 272.977V128.68C1188.65 124.577 1187.98 121.955 1186.6 120.816C1185.23 119.448 1182.49 118.764 1178.37 118.764H1158.49C1154.37 118.764 1151.62 119.448 1150.26 120.816C1149.11 121.955 1148.54 124.577 1148.54 128.68V272.977C1148.54 277.08 1149.11 279.815 1150.26 281.184C1151.62 282.323 1154.37 282.893 1158.49 282.893H1178.37C1182.49 282.893 1185.23 282.323 1186.6 281.184C1187.98 279.815 1188.65 277.08 1188.65 272.977Z" fill="#0A2979"/>
<path d="M555.505 282.893H617.568V307.854H524.302V93.8027H615.168V118.764H555.505V184.758H604.88V209.719H555.505V282.893ZM733.73 198.435L779.676 307.854H745.388L716.585 226.474L687.782 307.854H654.522L699.783 198.435L657.608 93.8027H691.897L716.585 170.738L741.616 93.8027H775.219L733.73 198.435ZM828.04 93.8027H898.332C919.591 93.8027 930.221 103.833 930.221 123.893V195.016C930.221 215.075 919.591 225.106 898.332 225.106H858.9V307.854H828.04V93.8027ZM899.361 190.229V128.68C899.361 124.577 898.675 121.955 897.304 120.816C895.932 119.448 893.189 118.764 889.075 118.764H858.9V200.486H889.075C893.189 200.486 895.932 199.802 897.304 198.435C898.675 197.068 899.361 194.332 899.361 190.229ZM1017.63 282.893H1070.78V307.854H986.774V93.8027H1017.63V282.893ZM1149.57 93.8027H1187.63C1208.89 93.8027 1219.52 103.833 1219.52 123.893V277.764C1219.52 297.824 1208.89 307.854 1187.63 307.854H1149.57C1128.09 307.854 1117.34 297.824 1117.34 277.764V123.893C1117.34 103.833 1128.09 93.8027 1149.57 93.8027ZM1188.65 272.977V128.68C1188.65 124.577 1187.98 121.955 1186.6 120.816C1185.23 119.448 1182.49 118.764 1178.37 118.764H1158.49C1154.37 118.764 1151.62 119.448 1150.26 120.816C1149.11 121.955 1148.54 124.577 1148.54 128.68V272.977C1148.54 277.08 1149.11 279.815 1150.26 281.184C1151.62 282.323 1154.37 282.893 1158.49 282.893H1178.37C1182.49 282.893 1185.23 282.323 1186.6 281.184C1187.98 279.815 1188.65 277.08 1188.65 272.977Z" fill="#737373"/>
<mask id="mask0_1784_235" style="mask-type:alpha" maskUnits="userSpaceOnUse" x="87" y="40" width="319" height="318">
<path d="M246.436 357.984C334.489 357.984 405.871 286.801 405.871 198.992C405.871 111.183 334.489 40 246.436 40C158.382 40 87 111.183 87 198.992C87 286.801 158.382 357.984 246.436 357.984Z" fill="#115BB8"/>
</mask>
<g mask="url(#mask0_1784_235)">
<path d="M242.945 362.006C332.919 362.006 405.857 289.271 405.857 199.547C405.857 109.823 332.919 37.0879 242.945 37.0879C152.971 37.0879 80.0322 109.823 80.0322 199.547C80.0322 289.271 152.971 362.006 242.945 362.006Z" fill="#A1A1AA"/>
<path d="M336.705 317.028C445.332 317.028 533.392 229.213 533.392 120.888C533.392 12.5633 445.332 -75.252 336.705 -75.252C228.078 -75.252 140.018 12.5633 140.018 120.888C140.018 229.213 228.078 317.028 336.705 317.028Z" fill="#D4D4D4"/>
<path d="M354.216 246.094C428.828 246.094 489.314 185.776 489.314 111.371C489.314 36.9658 428.828 -23.3516 354.216 -23.3516C279.603 -23.3516 219.117 36.9658 219.117 111.371C219.117 185.776 279.603 246.094 354.216 246.094Z" fill="#E5E5E5"/>
<path d="M352.328 76.7056C352.274 76.7533 352.222 76.8027 352.172 76.8534L178.914 252.988C177.696 254.226 177.6 256.176 178.69 257.527C179.781 258.878 181.712 259.2 183.184 258.279L387.728 130.25C391.81 128.37 395.454 125.667 398.429 122.333C402.833 117.396 405.77 111.072 406.473 104C408.243 86.1773 395.179 70.3023 377.302 68.5371C367.822 67.6012 358.886 70.8236 352.328 76.7056Z" fill="#FC3D21" stroke="#FC3D21" stroke-width="0.691849" stroke-linejoin="round"/>
<path d="M352.328 76.7056C352.274 76.7533 352.222 76.8027 352.172 76.8534L178.914 252.988C177.696 254.226 177.6 256.176 178.69 257.527C179.781 258.878 181.712 259.2 183.184 258.279L387.728 130.25C391.81 128.37 395.454 125.667 398.429 122.333C402.833 117.396 405.77 111.072 406.473 104C408.243 86.1773 395.179 70.3023 377.302 68.5371C367.822 67.6012 358.886 70.8236 352.328 76.7056Z" fill="#737373" stroke="#94A3B8" stroke-width="0.691849" stroke-linejoin="round"/>
</g>
</svg>
