<svg width="1280" height="397" viewBox="0 0 1280 397" fill="none" xmlns="http://www.w3.org/2000/svg">
<g clip-path="url(#clip0_3537_2)">
<mask id="mask0_3537_2" style="mask-type:luminance" maskUnits="userSpaceOnUse" x="23" y="57" width="1233" height="283">
<path d="M1256 57H23V340H1256V57Z" fill="white"/>
</mask>
<g mask="url(#mask0_3537_2)">
<path d="M93.1541 211.718C89.6683 215.185 85.3108 216.919 80.082 216.919H62.2166H36.508C32.5863 216.919 29.5361 215.619 26.9217 213.018C24.743 210.418 23 207.384 23 203.484V137.176V70.435C23 66.5345 24.743 63.5008 26.9217 60.9005C29.5361 58.7335 33.022 57 36.508 57H76.596H116.684C120.606 57 123.656 58.7335 126.271 60.9005C128.885 63.5008 130.192 66.5345 130.192 70.435V122.441V167.08C130.192 171.847 128.449 176.613 124.963 179.647L109.277 195.249L93.1541 211.718Z" fill="#71717A"/>
<path d="M151.117 126.775C147.63 123.308 145.887 118.974 145.887 114.207V96.0046V70.435C145.887 66.5345 147.63 63.5008 149.809 60.9005C152.423 58.7335 155.91 57 159.396 57H226.064H293.168C297.09 57 300.14 58.7335 302.754 60.9005C305.369 63.5008 306.676 66.5345 306.676 70.435V110.306V150.178C306.676 154.078 304.932 157.112 302.754 159.712C300.14 162.312 297.09 163.613 293.168 163.613H240.879H195.562C190.768 163.613 185.976 161.879 182.49 158.412L166.803 142.81L151.117 126.775Z" fill="#71717A"/>
<path d="M236.944 185.276C240.43 181.81 244.787 180.076 250.017 180.076H267.882H293.155C297.076 180.076 300.126 181.81 302.74 183.977C305.356 186.577 306.662 189.611 306.662 193.51V259.818V326.127C306.662 330.027 304.919 333.061 302.74 335.661C300.126 338.261 297.076 339.562 293.155 339.562H253.066H212.978C209.056 339.562 206.007 337.827 203.391 335.661C200.777 333.061 199.471 330.027 199.471 326.127V274.121V229.482C199.471 224.715 201.214 219.947 204.699 216.913L220.385 201.312L236.944 185.276Z" fill="#71717A"/>
<path d="M178.56 270.229C182.045 273.696 183.788 278.029 183.788 283.23V300.999V326.568C183.788 330.469 182.045 333.503 179.866 336.103C177.252 338.703 174.201 340.004 170.281 340.004H103.612H36.508C32.5863 340.004 29.5361 338.27 26.9217 336.103C24.743 333.503 23 330.036 23 326.568V286.697V246.826C23 242.925 24.743 239.891 26.9217 237.291C29.5361 234.691 32.5863 233.391 36.508 233.391H88.7968H133.678C138.471 233.391 143.264 235.125 146.314 238.592L162.001 254.193L178.56 270.229Z" fill="#71717A"/>
<path d="M756.807 270.219C755.064 271.519 753.321 272.819 752.014 273.686C750.706 274.553 749.835 274.987 748.963 275.419C748.092 275.853 747.22 276.286 746.785 276.286C745.913 276.286 745.478 276.286 744.17 276.286C740.684 276.286 738.07 274.553 736.762 271.519C735.456 268.052 734.585 261.985 734.585 252.883V210.846C734.585 203.477 734.148 197.41 733.277 193.51C732.406 189.609 731.098 185.709 728.92 182.242C721.948 171.407 708.439 165.773 688.831 165.773C674.452 165.773 662.686 168.374 653.972 173.141C645.257 177.908 641.335 184.842 641.335 193.51C641.335 197.844 642.643 201.744 645.257 204.345C647.871 206.945 651.358 208.678 655.279 208.678C659.637 208.678 663.558 207.378 666.173 204.778C668.787 202.178 670.53 198.711 670.53 194.81C670.53 191.342 669.223 188.31 667.045 186.142C665.302 184.409 664.43 183.542 664.43 183.542C663.994 183.108 663.994 183.108 663.994 182.675C663.994 181.809 664.43 180.942 665.737 179.641C667.045 178.775 668.351 177.908 670.094 177.041C671.838 176.175 674.016 175.741 676.195 175.308C678.374 174.874 680.988 174.874 683.166 174.874C694.932 174.874 702.776 178.341 706.696 185.276C707.568 187.009 708.439 188.31 708.875 190.043C709.312 191.344 709.747 193.51 710.183 195.677C710.618 197.844 710.618 200.444 711.054 203.477C711.054 206.945 711.49 210.846 711.49 215.179L687.524 219.513L677.938 221.246C673.144 222.113 668.787 222.981 665.737 223.847C662.251 224.714 659.201 225.581 656.587 226.447C653.972 227.314 651.793 228.613 649.614 229.914C647.436 231.215 645.694 232.514 643.95 233.815C637.85 239.449 634.799 247.249 634.799 257.218C634.799 268.052 637.85 276.72 644.386 282.787C650.486 288.855 659.201 292.321 670.094 292.321C677.938 292.321 685.345 290.588 691.881 287.121C698.417 283.653 704.953 278.019 711.926 270.219C712.797 273.686 713.669 276.72 714.104 278.453C714.976 280.187 715.848 281.92 717.154 283.653C718.897 286.255 721.076 287.988 723.69 289.287C726.305 290.588 728.92 291.455 731.969 291.455C736.762 291.455 741.121 290.154 745.478 287.988C749.835 285.821 755.064 281.487 760.729 276.286L756.807 270.219ZM711.926 221.68V241.615C711.926 250.283 710.618 257.218 708.004 261.551C705.39 265.885 701.903 269.353 697.111 271.953C692.318 274.553 687.088 275.853 681.86 275.853C674.887 275.853 669.223 273.686 665.302 269.352C660.944 265.018 659.201 259.384 659.201 252.45C659.201 241.182 664.43 233.815 674.452 229.914C677.938 228.613 682.731 227.314 688.396 226.013C694.06 225.147 701.903 223.413 711.926 221.68Z" fill="#71717A"/>
<path d="M845.675 271.955C841.318 273.689 837.396 274.989 834.782 275.422C832.167 276.289 829.553 276.289 827.373 276.289C820.837 276.289 816.045 274.556 812.995 270.655C809.944 266.754 808.201 261.12 808.201 253.753V181.378H843.932V173.143H808.201V125.471H802.537L785.979 141.939V172.71H756.784V180.944H785.979V261.987C785.979 271.088 788.157 278.455 792.515 282.79C796.872 287.557 803.408 289.723 811.687 289.723C817.352 289.723 823.016 288.857 828.681 286.691C834.346 284.957 840.882 281.489 848.289 277.156L845.675 271.955Z" fill="#71717A"/>
<path d="M997.761 153.204C1002.12 153.204 1006.04 151.904 1009.09 148.87C1012.14 145.837 1013.45 142.369 1013.45 138.036C1013.45 133.702 1012.14 130.235 1009.09 127.201C1006.04 124.167 1002.55 122.867 998.196 122.867C994.274 122.867 990.355 124.167 987.304 127.201C984.254 130.235 982.947 133.702 982.947 137.602C982.947 141.936 984.254 145.403 987.304 148.437C989.918 151.47 993.839 153.204 997.761 153.204Z" fill="#71717A"/>
<path d="M1243.09 258.951C1239.6 262.852 1236.12 265.885 1233.07 268.486C1230.02 271.086 1226.97 272.819 1223.92 274.553C1220.87 275.853 1217.81 277.153 1214.33 277.587C1210.84 278.019 1207.36 278.453 1203 278.453C1188.62 278.453 1177.73 273.686 1170.32 264.151C1167.27 259.818 1165.09 255.05 1163.79 249.416C1162.48 243.782 1162.04 236.415 1162.04 226.88H1253.12C1252.68 218.213 1251.8 210.846 1250.94 205.644C1249.62 200.01 1247.88 195.243 1245.27 190.476C1240.91 182.675 1234.38 176.608 1225.66 172.274C1216.95 167.94 1207.36 165.773 1196.47 165.773C1187.32 165.773 1179.04 167.074 1171.63 170.107C1164.22 173.141 1158.12 177.041 1152.89 182.242C1147.66 187.443 1143.74 193.944 1141.13 201.744C1138.51 209.545 1136.77 218.213 1136.77 227.314C1136.77 236.849 1138.08 245.516 1141.13 253.317C1143.74 261.118 1148.1 267.619 1152.89 273.253C1158.12 278.886 1164.22 282.787 1171.63 285.821C1179.04 288.855 1187.32 290.154 1196.47 290.154C1202.13 290.154 1206.92 289.721 1211.72 288.855C1216.51 287.988 1220.87 286.255 1224.8 284.087C1229.15 281.92 1233.07 279.32 1237 275.853C1240.91 272.385 1245.27 268.486 1249.2 263.718L1243.09 258.951ZM1195.16 173.574C1206.05 173.574 1213.9 177.041 1218.69 183.975C1223.48 190.91 1226.54 202.178 1227.84 218.646H1161.61C1162.92 202.61 1165.97 190.91 1171.19 183.975C1176.42 177.041 1184.7 173.574 1195.16 173.574Z" fill="#71717A"/>
<path d="M599.936 277.15C597.757 276.284 596.014 274.983 594.708 273.25C593.4 271.516 592.964 268.916 592.529 265.882C592.093 262.848 592.093 258.515 592.093 253.313V105.963L547.211 116.797V125.032C551.569 125.032 555.49 125.465 558.106 126.332C561.155 127.199 563.334 128.499 564.642 130.232C566.384 131.966 567.256 134.566 568.127 138.033C568.562 141.5 568.999 145.834 568.999 151.035V253.313C568.999 258.515 568.999 262.415 568.562 265.882C568.127 268.916 567.691 271.516 566.384 273.25C565.077 274.983 563.334 276.284 561.155 277.15C558.977 278.017 555.926 278.45 552.005 279.318L545.905 279.75V287.552H615.623V279.75L609.523 279.318C605.165 278.884 602.115 278.017 599.936 277.15Z" fill="#71717A"/>
<path d="M1021.28 277.165C1019.1 276.299 1017.36 274.998 1016.05 273.264C1014.75 271.531 1014.31 268.931 1013.88 265.897C1013.44 262.863 1013.44 258.53 1013.44 253.328V162.318L968.558 173.153V181.387C972.916 181.387 976.838 181.82 979.452 182.687C982.503 183.554 984.681 184.854 986.423 186.588C988.167 188.321 989.039 190.921 989.91 194.389C990.345 197.856 990.782 202.189 990.782 207.39V253.762C990.782 258.962 990.781 262.863 990.345 266.33C989.91 269.364 989.474 271.964 988.167 273.697C986.86 275.432 985.117 276.731 982.938 277.598C980.759 278.465 977.709 278.899 973.787 279.765L967.687 280.198V287.999H1037.41V280.198L1031.3 279.765C1026.51 278.899 1023.46 278.032 1021.28 277.165Z" fill="#71717A"/>
<path d="M1108.01 277.15C1105.83 276.284 1104.08 274.983 1102.78 273.25C1101.47 271.516 1101.03 268.916 1100.6 265.882C1100.16 262.848 1100.16 258.515 1100.16 253.313V105.963L1055.72 117.231V125.465C1060.07 125.465 1064 125.898 1066.61 126.765C1069.66 127.632 1071.84 128.932 1073.58 130.666C1075.33 132.399 1076.2 135 1077.07 138.467C1077.5 141.934 1077.94 146.268 1077.94 151.468V253.747C1077.94 258.948 1077.94 262.848 1077.5 266.315C1077.07 269.349 1076.63 271.949 1075.33 273.684C1074.02 275.417 1072.27 276.716 1070.1 277.583C1067.92 278.45 1064.87 278.884 1060.95 279.75L1054.85 280.184V287.984H1124.56V280.184L1118.46 279.75C1113.67 278.884 1110.62 278.017 1108.01 277.15Z" fill="#71717A"/>
<path d="M949.395 116.802C944.166 113.335 937.63 111.168 929.35 111.168C917.149 111.168 907.128 115.068 899.72 122.869C892.313 130.67 888.827 141.505 888.827 154.94C888.827 156.24 888.827 163.174 888.827 165.341C888.827 167.941 889.262 170.108 889.262 172.709H865.732V180.942H889.262V253.318C889.262 258.518 889.262 262.419 888.827 265.886C888.391 268.92 887.956 271.52 886.648 273.253C885.34 274.987 883.597 276.287 881.419 277.154C879.24 278.021 876.19 278.455 872.268 279.321L866.168 279.754V287.555H937.629V279.754L929.786 279.321C925.864 278.455 922.814 278.021 920.636 277.154C918.457 276.287 916.714 274.987 915.406 273.253C914.1 271.52 913.664 268.92 913.229 265.886C912.792 262.852 912.792 258.518 912.792 253.318V181.376H945.038V173.142H912.792C912.357 172.275 908.87 161.874 907.128 150.606C906.256 143.672 906.256 138.038 907.564 133.271C908.87 127.203 911.921 123.303 916.714 121.136H917.149C917.149 121.136 917.149 121.136 917.586 121.136C917.586 121.136 917.586 121.136 918.021 121.136H918.457C920.636 120.269 922.814 119.836 924.993 119.836C927.172 119.836 929.35 120.269 931.529 121.136C933.272 122.003 934.58 122.869 934.58 123.736C934.58 124.169 934.143 125.036 933.272 125.903C930.658 128.503 928.915 131.97 928.915 135.871C928.915 139.771 930.221 142.805 932.837 145.405C935.451 148.006 938.937 148.872 942.858 148.872C947.215 148.872 951.137 147.139 954.188 144.105C957.238 141.072 958.545 136.738 958.545 131.97C957.238 125.036 954.623 120.269 949.395 116.802Z" fill="#71717A"/>
<path d="M401.667 117.248V125.482L410.818 126.349C417.789 127.216 422.582 128.949 424.761 131.55C425.633 132.416 426.068 133.283 426.504 134.15C426.94 135.017 427.376 135.883 427.376 137.617C427.376 138.917 427.812 140.651 427.812 142.818C427.812 144.985 427.812 148.018 427.812 151.485V253.33C427.812 256.798 427.812 259.831 427.812 261.998C427.812 264.165 427.376 265.899 427.376 267.198C427.376 268.499 426.94 269.799 426.504 270.666C426.068 271.533 425.633 272.399 424.761 272.832C422.582 275.866 417.789 277.6 410.818 278.034L401.667 278.9V287.134H483.15V278.9L471.385 278.034C464.413 277.6 460.056 275.866 457.442 272.832C456.57 271.966 456.134 271.533 456.134 270.666C455.699 269.799 455.699 268.499 455.263 267.198C454.828 265.899 454.828 264.165 454.828 261.998C454.828 259.831 454.828 257.231 454.828 253.33V213.893H477.05C479.664 213.893 481.843 214.326 483.586 214.759C485.765 215.192 487.943 216.059 489.686 217.36C491.43 218.66 492.736 220.394 494.044 222.994C495.351 225.161 496.658 228.194 497.53 231.662L499.709 238.595H509.73V178.355H499.709L497.966 185.289C496.658 189.189 495.351 192.223 494.479 194.391C493.173 196.991 491.865 198.724 490.122 200.025C488.379 201.324 486.637 202.625 484.457 203.057C483.15 203.491 481.843 203.491 479.664 203.924H454.391V128.083H482.278C490.558 128.083 497.53 128.516 502.759 129.383C507.988 130.25 512.345 131.983 515.395 134.583C518.446 137.184 520.624 140.651 521.495 144.985C522.803 149.318 523.239 155.386 523.674 162.32H533.696V117.248H401.667Z" fill="#71717A"/>
</g>
</g>
<defs>
<clipPath id="clip0_3537_2">
<rect width="1233" height="283" fill="white" transform="translate(23 57)"/>
</clipPath>
</defs>
</svg>
