<svg width="1280" height="397" viewBox="0 0 1280 397" fill="none" xmlns="http://www.w3.org/2000/svg">
<path d="M592.328 146.938V173.857C580.702 155.453 561.049 143.642 536.414 143.642C497.385 143.642 465 174.956 465 215.61C465 256.264 497.385 287.579 536.414 287.579C561.049 287.579 580.702 275.767 592.328 257.363V278.789C592.328 306.807 573.228 324.937 541.12 324.937C511.225 324.937 498.493 313.949 491.573 299.94L475.518 309.005C486.314 330.43 509.288 342.517 541.12 342.517C576.827 342.517 610.596 320.542 610.596 278.789V146.938H592.328ZM537.798 269.999C507.073 269.999 483.269 246.101 483.269 215.61C483.269 185.12 507.073 161.222 537.798 161.222C568.523 161.222 592.328 185.12 592.328 215.61C592.328 246.101 568.523 269.999 537.798 269.999ZM713.771 287.579C754.183 287.579 786.569 256.264 786.569 215.61C786.569 174.956 754.183 143.642 713.771 143.642C673.358 143.642 640.973 174.956 640.973 215.61C640.973 256.264 673.358 287.579 713.771 287.579ZM713.771 269.999C683.046 269.999 659.241 246.101 659.241 215.61C659.241 185.12 683.046 161.222 713.771 161.222C744.495 161.222 768.3 185.12 768.3 215.61C768.3 246.101 744.495 269.999 713.771 269.999ZM881.634 287.579C922.047 287.579 954.433 256.264 954.433 215.61C954.433 174.956 922.047 143.642 881.634 143.642C841.222 143.642 808.836 174.956 808.836 215.61C808.836 256.264 841.222 287.579 881.634 287.579ZM881.634 269.999C850.91 269.999 827.105 246.101 827.105 215.61C827.105 185.12 850.91 161.222 881.634 161.222C912.359 161.222 936.164 185.12 936.164 215.61C936.164 246.101 912.359 269.999 881.634 269.999ZM1104.03 92V173.857C1092.4 155.453 1072.75 143.642 1048.11 143.642C1009.08 143.642 976.7 174.956 976.7 215.61C976.7 256.264 1009.08 287.579 1048.11 287.579C1072.75 287.579 1092.4 275.767 1104.03 257.363V284.283H1122.29V92H1104.03ZM1049.5 269.999C1018.77 269.999 994.969 246.101 994.969 215.61C994.969 185.12 1018.77 161.222 1049.5 161.222C1080.22 161.222 1104.03 185.12 1104.03 215.61C1104.03 246.101 1080.22 269.999 1049.5 269.999ZM1260.62 146.938L1215.78 262.033L1163.74 146.938H1144.37L1206.37 285.107L1202.77 293.622C1195.3 311.477 1182.84 324.113 1164.85 322.19V339.22C1189.76 341.143 1210.25 323.289 1220.77 296.918L1280 146.938H1260.62Z" fill="#7D7D85"/>
<path d="M203.043 39.5428C203.043 34.8248 199.218 31 194.5 31C189.781 31 185.957 34.8248 185.957 39.5428V90.8C185.957 95.5173 189.781 99.3421 194.5 99.3421C199.218 99.3421 203.043 95.5173 203.043 90.8V39.5428Z" fill="white"/>
<path d="M203.043 39.5428C203.043 34.8248 199.218 31 194.5 31C189.781 31 185.957 34.8248 185.957 39.5428V90.8C185.957 95.5173 189.781 99.3421 194.5 99.3421C199.218 99.3421 203.043 95.5173 203.043 90.8V39.5428Z" fill="#888891"/>
<path d="M70.0798 185.379C72.4684 181.293 71.0508 176.068 66.9145 173.71L21.9744 148.083C17.8377 145.725 12.5484 147.125 10.1601 151.209C7.7719 155.296 9.18917 160.52 13.3257 162.879L58.2657 188.505C62.4021 190.864 67.6912 189.465 70.0798 185.379Z" fill="white"/>
<path d="M70.0798 185.379C72.4684 181.293 71.0508 176.068 66.9145 173.71L21.9744 148.083C17.8377 145.725 12.5484 147.125 10.1601 151.209C7.7719 155.296 9.18917 160.52 13.3257 162.879L58.2657 188.505C62.4021 190.864 67.6912 189.465 70.0798 185.379Z" fill="#94949D"/>
<path d="M308.072 70.8222C310.429 66.685 309.031 61.3969 304.943 59.0072C300.858 56.6198 295.634 58.037 293.275 62.1741L267.648 107.113C265.29 111.25 266.69 116.54 270.776 118.928C274.861 121.316 280.085 119.898 282.445 115.763L308.072 70.8222Z" fill="white"/>
<path d="M308.072 70.8222C310.429 66.685 309.031 61.3969 304.943 59.0072C300.858 56.6198 295.634 58.037 293.275 62.1741L267.648 107.113C265.29 111.25 266.69 116.54 270.776 118.928C274.861 121.316 280.085 119.898 282.445 115.763L308.072 70.8222Z" fill="#818189"/>
<path d="M118.223 118.928C122.31 116.54 123.709 111.25 121.351 107.113L95.7247 62.1742C93.3655 58.037 88.1414 56.6197 84.056 59.0073C79.9689 61.397 78.5705 66.6851 80.9279 70.8223L106.555 115.763C108.914 119.898 114.138 121.316 118.223 118.928Z" fill="white"/>
<path d="M118.223 118.928C122.31 116.54 123.709 111.25 121.351 107.113L95.7247 62.1742C93.3655 58.037 88.1414 56.6197 84.056 59.0073C79.9689 61.397 78.5705 66.6851 80.9279 70.8223L106.555 115.763C108.914 119.898 114.138 121.316 118.223 118.928Z" fill="#8F8F98"/>
<path d="M375.674 162.879C379.811 160.52 381.228 155.296 378.84 151.209C376.451 147.125 371.162 145.725 367.026 148.083L322.085 173.71C317.949 176.068 316.531 181.293 318.92 185.379C321.309 189.465 326.598 190.864 330.734 188.505L375.674 162.879Z" fill="white"/>
<path d="M375.674 162.879C379.811 160.52 381.228 155.296 378.84 151.209C376.451 147.125 371.162 145.725 367.026 148.083L322.085 173.71C317.949 176.068 316.531 181.293 318.92 185.379C321.309 189.465 326.598 190.864 330.734 188.505L375.674 162.879Z" fill="#7D7D85"/>
<path d="M274.381 287.228V357.788C274.381 363.081 270.831 366.609 265.504 366.609H123.495C118.169 366.609 114.619 363.081 114.619 357.788V287.228H185.624V366.609H203.376V287.228H274.381ZM185.624 225.487H105.744C100.418 225.487 96.8682 229.015 96.8682 234.308V260.767C96.8682 266.06 100.418 269.588 105.744 269.588H185.624V225.487ZM283.255 225.487H203.376V269.588H283.255C288.581 269.588 292.131 266.06 292.131 260.767V234.308C292.131 229.015 288.581 225.487 283.255 225.487ZM257.517 215.785L258.404 212.257C261.954 203.436 261.067 192.853 255.741 184.915C250.417 176.976 240.653 172.566 230.89 172.566C218.464 172.566 207.813 179.622 203.376 191.089L185.624 234.308H230.003C241.54 234.308 253.078 227.251 257.517 215.785ZM220.24 197.262C222.014 192.853 226.453 190.206 230.89 190.206C234.44 190.206 237.99 191.971 240.653 195.499C242.428 199.027 243.316 202.555 241.541 206.083L240.653 209.611C238.877 214.02 234.44 216.667 230.003 216.667H212.25L220.24 197.262ZM185.624 191.089C181.186 179.622 169.649 172.566 158.109 172.566C148.346 172.566 138.583 176.976 133.258 185.797C127.932 193.734 127.045 203.436 130.595 213.139L131.483 216.667C135.922 227.251 147.459 234.308 158.998 234.308H202.487L185.624 191.089ZM168.76 197.262L176.749 216.667H158.998C154.559 216.667 150.122 214.02 148.346 209.611L146.572 206.083C145.685 202.555 145.685 198.145 148.346 195.499C150.122 191.971 153.672 190.206 158.109 190.206C162.548 190.206 166.986 192.853 168.76 197.262Z" fill="url(#paint0_linear_4024_152)"/>
<path d="M274.381 287.228V357.788C274.381 363.081 270.831 366.609 265.504 366.609H123.495C118.169 366.609 114.619 363.081 114.619 357.788V287.228H185.624V366.609H203.376V287.228H274.381ZM185.624 225.487H105.744C100.418 225.487 96.8682 229.015 96.8682 234.308V260.767C96.8682 266.06 100.418 269.588 105.744 269.588H185.624V225.487ZM283.255 225.487H203.376V269.588H283.255C288.581 269.588 292.131 266.06 292.131 260.767V234.308C292.131 229.015 288.581 225.487 283.255 225.487ZM257.517 215.785L258.404 212.257C261.954 203.436 261.067 192.853 255.741 184.915C250.417 176.976 240.653 172.566 230.89 172.566C218.464 172.566 207.813 179.622 203.376 191.089L185.624 234.308H230.003C241.54 234.308 253.078 227.251 257.517 215.785ZM220.24 197.262C222.014 192.853 226.453 190.206 230.89 190.206C234.44 190.206 237.99 191.971 240.653 195.499C242.428 199.027 243.316 202.555 241.541 206.083L240.653 209.611C238.877 214.02 234.44 216.667 230.003 216.667H212.25L220.24 197.262ZM185.624 191.089C181.186 179.622 169.649 172.566 158.109 172.566C148.346 172.566 138.583 176.976 133.258 185.797C127.932 193.734 127.045 203.436 130.595 213.139L131.483 216.667C135.922 227.251 147.459 234.308 158.998 234.308H202.487L185.624 191.089ZM168.76 197.262L176.749 216.667H158.998C154.559 216.667 150.122 214.02 148.346 209.611L146.572 206.083C145.685 202.555 145.685 198.145 148.346 195.499C150.122 191.971 153.672 190.206 158.109 190.206C162.548 190.206 166.986 192.853 168.76 197.262Z" fill="url(#paint1_linear_4024_152)"/>
<path d="M274.381 287.228V357.788C274.381 363.081 270.831 366.609 265.504 366.609H123.495C118.169 366.609 114.619 363.081 114.619 357.788V287.228H185.624V366.609H203.376V287.228H274.381ZM185.624 225.487H105.744C100.418 225.487 96.8682 229.015 96.8682 234.308V260.767C96.8682 266.06 100.418 269.588 105.744 269.588H185.624V225.487ZM283.255 225.487H203.376V269.588H283.255C288.581 269.588 292.131 266.06 292.131 260.767V234.308C292.131 229.015 288.581 225.487 283.255 225.487ZM257.517 215.785L258.404 212.257C261.954 203.436 261.067 192.853 255.741 184.915C250.417 176.976 240.653 172.566 230.89 172.566C218.464 172.566 207.813 179.622 203.376 191.089L185.624 234.308H230.003C241.54 234.308 253.078 227.251 257.517 215.785ZM220.24 197.262C222.014 192.853 226.453 190.206 230.89 190.206C234.44 190.206 237.99 191.971 240.653 195.499C242.428 199.027 243.316 202.555 241.541 206.083L240.653 209.611C238.877 214.02 234.44 216.667 230.003 216.667H212.25L220.24 197.262ZM185.624 191.089C181.186 179.622 169.649 172.566 158.109 172.566C148.346 172.566 138.583 176.976 133.258 185.797C127.932 193.734 127.045 203.436 130.595 213.139L131.483 216.667C135.922 227.251 147.459 234.308 158.998 234.308H202.487L185.624 191.089ZM168.76 197.262L176.749 216.667H158.998C154.559 216.667 150.122 214.02 148.346 209.611L146.572 206.083C145.685 202.555 145.685 198.145 148.346 195.499C150.122 191.971 153.672 190.206 158.109 190.206C162.548 190.206 166.986 192.853 168.76 197.262Z" fill="url(#paint2_linear_4024_152)"/>
<defs>
<linearGradient id="paint0_linear_4024_152" x1="194.5" y1="172.566" x2="194.5" y2="544.665" gradientUnits="userSpaceOnUse">
<stop stop-color="white"/>
<stop offset="1" stop-color="white" stop-opacity="0"/>
</linearGradient>
<linearGradient id="paint1_linear_4024_152" x1="194.5" y1="172.566" x2="194.5" y2="366.609" gradientUnits="userSpaceOnUse">
<stop offset="0.504809" stop-color="white"/>
<stop offset="1" stop-color="white" stop-opacity="0"/>
</linearGradient>
<linearGradient id="paint2_linear_4024_152" x1="259.588" y1="159.631" x2="106.311" y2="382.063" gradientUnits="userSpaceOnUse">
<stop stop-color="#7D7D85"/>
<stop offset="1" stop-color="#9898A0"/>
</linearGradient>
</defs>
</svg>
