<svg width="1280" height="397" viewBox="0 0 1280 397" fill="none" xmlns="http://www.w3.org/2000/svg">
<path fill-rule="evenodd" clip-rule="evenodd" d="M1005.91 32H267.32C176.568 32 103 105.929 103 197.125C103 288.32 176.568 362.249 267.32 362.249H1005.91C1096.66 362.249 1170.23 288.32 1170.23 197.125C1170.23 105.929 1096.66 32 1005.91 32ZM361.708 287.082H424.141L317.129 190.972L415.909 113.726H351.659L278.098 173.243H277.17V108.95H232.419V287.082H277.17V209.875H278.037L361.708 287.082ZM427.189 266.396C444.014 282.818 467.544 291.862 493.429 291.862C521.15 291.862 544.545 281.601 559.426 262.938H560.314L563.094 287.086H604.521V113.73H563.082L560.303 137.883H559.414C544.567 119.226 521.15 108.965 493.429 108.965C467.544 108.965 444.014 118.014 427.189 134.437C410.174 151.032 400.808 174.47 400.808 200.416C400.808 226.362 410.174 249.795 427.189 266.396ZM446.255 200.416C446.255 166.935 467.671 146.949 503.541 146.949C538.125 146.949 560.476 167.935 560.476 200.416C560.476 232.898 538.125 253.883 503.541 253.883C467.671 253.883 446.255 233.897 446.255 200.416ZM778.012 287.082H823.108V191.905C823.108 165.093 815.582 144.213 800.729 129.902C786.305 115.999 765.722 108.95 739.553 108.95C712.388 108.95 688.787 119.602 674.591 138.209H673.74L671.306 113.715H629.845V287.082H674.596V200.379C674.596 184.263 679.827 170.796 689.727 161.429C699.532 152.151 713.506 147.252 730.136 147.252C747.557 147.252 759.708 151.285 767.284 159.541C774.504 167.394 778.012 179.683 778.012 196.999V287.082ZM867.844 266.396C884.672 282.818 908.197 291.862 934.084 291.862C961.8 291.862 985.199 281.601 1000.06 262.938H1000.96L1003.74 287.086H1045.18V113.73H1003.74L1000.96 137.883H1000.06C985.221 119.226 961.8 108.965 934.084 108.965C908.197 108.965 884.672 118.014 867.844 134.437C850.83 151.032 841.461 174.47 841.461 200.416C841.461 226.362 850.83 249.795 867.844 266.396ZM886.909 200.416C886.909 166.935 908.323 146.949 944.194 146.949C978.777 146.949 1001.13 167.935 1001.13 200.416C1001.13 232.898 978.777 253.883 944.194 253.883C908.323 253.883 886.909 233.897 886.909 200.416Z" fill="#71717A"/>
</svg>
