<svg width="1280" height="397" viewBox="0 0 1280 397" fill="none" xmlns="http://www.w3.org/2000/svg">
<path d="M251.778 199.234C255.651 229.401 259.244 257.725 262.975 286.018C263.418 289.407 262.71 290.603 258.886 290.793C235.859 291.929 235.873 292.019 227.549 271.204C224.083 262.543 220.706 253.848 217.014 245.272C216.202 243.863 215.902 242.227 216.164 240.63C216.426 239.032 217.234 237.569 218.455 236.477C229.348 224.665 239.957 212.532 251.778 199.234Z" fill="#A1A1AA"/>
<path d="M116.431 224.518C119.729 241.124 122.983 256.732 125.848 272.409C126.732 277.262 130.71 283.427 127.306 286.709C124.371 289.529 117.855 285.539 112.846 285.721C99.5401 286.212 93.3468 280.107 91.1851 267.288C89.9164 259.763 89.3549 254.551 95.7073 248.723C103.122 241.082 110.044 232.998 116.431 224.518Z" fill="#A1A1AA"/>
<path d="M154.004 254.806C154.004 245.48 153.858 236.154 154.074 226.832C154.159 223.171 153.116 221.936 149.132 221.807C121.96 220.928 94.7941 219.864 67.6337 218.612C63.3677 218.418 61.6834 219.601 60.7772 223.72C56.5865 242.794 51.8298 261.758 47.7363 280.855C46.5869 286.217 44.4916 288.194 38.7492 287.585C32.3776 286.94 25.9632 286.796 19.568 287.154C14.7494 287.391 13.8212 285.427 13.8918 281.33C14.3074 252.687 14.9219 224.043 14.639 195.409C14.5868 186.597 17.5996 178.03 23.1841 171.109C38.2143 150.708 52.6919 129.941 67.2534 109.225C68.0389 107.806 69.2749 106.675 70.7755 106.003C72.276 105.33 73.9597 105.151 75.573 105.494C129.868 111.168 184.182 116.664 238.518 121.983C241.916 122.381 245.162 123.593 247.965 125.511C280.297 146.032 312.572 166.628 345.068 186.899C349.931 189.921 350.064 191.648 345.391 194.381C344.385 194.912 343.487 195.617 342.738 196.462C333.381 208.271 322.403 207.74 309.142 202.507C293.112 196.199 276.208 192.015 259.773 186.653C258.208 186.033 256.512 185.799 254.833 185.97C253.154 186.141 251.544 186.712 250.144 187.633C235.025 196.803 219.838 205.862 204.581 214.808C203.207 215.527 202.033 216.563 201.162 217.825C200.29 219.087 199.748 220.539 199.581 222.053C196.234 241.741 192.406 261.343 189.329 281.083C188.445 286.739 186.381 288.531 180.625 288.138C173.316 287.716 165.987 287.704 158.676 288.103C154.34 288.293 153.23 286.808 153.372 282.772C153.655 273.45 153.46 264.115 153.46 254.789L154.004 254.806Z" fill="#A1A1AA"/>
<path d="M478.726 198.323C489.665 182.205 505.478 177.552 523.744 179.958C533.883 180.776 543.319 185.347 550.12 192.737C556.921 200.127 560.572 209.776 560.328 219.709C561.029 240.236 560.39 260.808 560.696 281.355C560.773 286.623 557.767 286.298 554.173 286.348C550.236 286.382 547.093 286.577 547.2 280.94C547.537 263.464 547.368 245.988 547.281 228.537C547.217 224.952 546.933 221.373 546.433 217.821C543.197 192.581 520.503 188.362 503.489 193.954C492.753 197.449 485.985 208.039 485.841 221.516C485.637 240.524 485.648 259.533 485.873 278.544C485.933 283.742 485.177 286.532 478.679 286.532C472.074 286.532 471.476 283.467 471.522 278.424C471.686 260.448 471.88 242.473 471.522 224.498C471.011 200.476 453.926 187.428 431.196 193.25C425.662 194.625 420.729 197.703 417.126 202.03C413.523 206.356 411.442 211.701 411.191 217.272C409.665 237.76 409.401 258.319 410.4 278.838C410.486 287.007 406.269 286.677 400.685 286.328C398.267 286.183 396.596 285.574 396.678 282.798C397.302 260.229 394.975 237.575 397.894 215.09C400.144 197.759 409.688 185.186 427.638 181.137C446.819 176.783 464.513 179.514 477.14 196.416C477.539 196.93 478.025 197.469 478.726 198.323Z" fill="#71717A"/>
<path d="M1176.2 197.799C1183 189.848 1192.08 184.06 1202.26 181.175C1212.44 178.29 1223.27 178.44 1233.37 181.606C1259.27 188.437 1272.42 210.138 1270.38 241.144C1269.82 251.344 1266.15 261.146 1259.84 269.29C1253.53 277.434 1244.86 283.547 1234.96 286.842C1224.67 290.288 1213.57 290.732 1203.02 288.121C1192.47 285.51 1182.93 279.956 1175.56 272.137C1166.9 262.297 1162.23 249.704 1162.42 236.731C1162.18 195.667 1162.36 154.598 1162.3 113.534C1162.3 108.94 1162.84 105.475 1168.91 105.34C1175.22 105.2 1176.29 108.446 1176.27 113.594C1176.13 141.047 1176.2 168.499 1176.2 197.799ZM1176.2 234.424C1175.43 268.183 1204.12 283.796 1232.9 273.8C1250.71 267.613 1260.41 247.126 1256.65 225.865C1253.85 210.027 1246.27 197.834 1229.4 193.41C1198.96 185.366 1176.15 203.092 1176.2 234.419V234.424Z" fill="#71717A"/>
<path d="M1113.86 198.059C1113.86 168.569 1113.9 140.902 1113.8 113.24C1113.8 108.531 1114.46 105.251 1120.56 105.325C1125.59 105.405 1127.56 107.098 1127.54 112.161C1127.37 154.049 1127.83 195.937 1127.23 237.814C1126.8 268.991 1103.65 289.813 1071.55 289.329C1041.24 288.875 1019.24 266.52 1019.09 236.007C1018.95 207.546 1032.51 187.328 1057.01 181.406C1078.12 176.288 1097.4 179.749 1113.86 198.059ZM1073.09 276.582C1097.98 276.616 1113.8 260.284 1113.86 234.469C1113.91 207.96 1098.31 191.623 1073.01 191.687C1048.16 191.752 1032.62 208.055 1032.55 234.175C1032.47 259.949 1048.32 276.541 1073.09 276.576V276.582Z" fill="#71717A"/>
<path d="M861.425 200.153C861.425 171.093 861.508 142.971 861.354 114.85C861.329 109.916 862.33 106.995 868.245 107.18C872.933 107.325 874.774 109.018 874.758 113.671C874.6 156.283 875.162 198.905 874.359 241.496C873.808 270.846 850.557 291.314 820.17 291.174C813.233 291.358 806.328 290.196 799.855 287.753C793.383 285.311 787.472 281.637 782.464 276.945C777.457 272.254 773.454 266.638 770.685 260.423C767.918 254.209 766.441 247.518 766.342 240.743C765.232 213.46 776.536 192.868 798.427 185.213C821.902 177.005 843.451 180.125 861.425 200.153ZM820.793 278.421C845.389 278.307 861.691 261.21 861.411 235.885C861.094 209.535 845.158 193.297 819.842 193.522C795.191 193.742 779.614 210.424 779.772 236.433C779.93 262.118 795.968 278.536 820.793 278.421Z" fill="#71717A"/>
<path d="M949.301 289.375C934.654 289.27 921.571 285.685 912.804 273.217C910.509 269.957 907.507 266.052 912.753 262.667C917.186 259.805 920.139 261.588 923.3 265.452C929.153 271.822 937.115 275.977 945.79 277.189C954.465 278.399 963.3 276.591 970.747 272.078C973.231 270.605 975.237 268.473 976.533 265.932C977.829 263.391 978.361 260.543 978.068 257.718C977.896 255 976.872 252.398 975.134 250.268C973.396 248.137 971.029 246.581 968.355 245.81C958.356 242.575 948.146 240.002 937.793 238.11C933.442 237.106 929.186 235.747 925.068 234.046C921.306 232.472 917.965 230.074 915.302 227.039C912.639 224.005 910.724 220.413 909.707 216.541C908.69 212.67 908.596 208.622 909.433 204.709C910.271 200.797 912.017 197.125 914.537 193.975C927.706 175.825 973.681 172.565 987.531 196.112C989.325 199.163 993.32 202.569 988.108 205.953C983.665 208.845 980.439 208.086 977.004 203.373C967.495 190.25 941.837 187.604 929.21 197.915C926.902 199.448 925.091 201.592 923.99 204.097C922.89 206.601 922.546 209.361 922.998 212.05C923.451 214.739 924.681 217.245 926.544 219.275C928.407 221.304 930.826 222.769 933.514 223.5C941.934 226.341 950.84 227.829 959.536 229.891C965.71 231.206 971.67 233.348 977.244 236.258C981.688 238.431 985.427 241.764 988.049 245.887C990.669 250.012 992.069 254.763 992.091 259.617C992.114 264.47 990.76 269.235 988.178 273.382C985.595 277.528 981.887 280.895 977.465 283.109C968.85 287.699 959.101 289.868 949.301 289.375Z" fill="#71717A"/>
<path d="M742.002 252.135C742.002 261.377 741.746 270.609 742.104 279.861C742.299 284.854 740.765 286.597 735.458 286.442C730.617 286.297 728.301 285.404 728.373 280.021C728.669 262.82 728.624 245.613 728.449 228.412C728.173 202.168 708.603 187.253 682.438 193.175C675.401 194.643 669.089 198.412 664.542 203.86C659.996 209.307 657.488 216.106 657.435 223.134C656.657 241.609 656.887 260.084 657.015 278.558C657.051 283.751 656.325 286.442 649.858 286.517C643.003 286.597 642.844 283.276 643.008 278.413C643.677 258.94 641.611 239.382 644.127 219.963C647.542 193.564 666.555 178.72 695.393 179.429C701.346 179.317 707.262 180.353 712.804 182.477C718.346 184.6 723.404 187.77 727.692 191.804C731.978 195.839 735.41 200.659 737.788 205.989C740.166 211.32 741.445 217.056 741.553 222.869C742.217 232.581 741.66 242.343 741.66 252.119L742.002 252.135Z" fill="#71717A"/>
<path d="M608.567 234.698C608.567 249.573 608.362 264.447 608.679 279.317C608.791 284.535 607.427 286.382 601.705 286.447C595.5 286.517 595.014 283.746 595.059 278.957C595.213 249.727 595.167 220.493 595.106 191.258C595.106 186.604 594.962 182.555 601.752 182.405C608.541 182.255 608.7 186.01 608.653 190.848C608.479 205.468 608.567 220.083 608.567 234.698Z" fill="#71717A"/>
<path d="M590.378 150.059C590.42 147.097 591.648 144.269 593.798 142.18C595.947 140.091 598.848 138.906 601.881 138.879C603.449 138.838 605.009 139.12 606.459 139.708C607.909 140.297 609.214 141.177 610.291 142.292C611.368 143.408 612.191 144.733 612.707 146.18C613.223 147.628 613.421 149.166 613.287 150.693C613.132 153.613 611.814 156.359 609.614 158.342C607.414 160.326 604.507 161.39 601.515 161.307C598.522 161.224 595.681 160.001 593.6 157.899C591.519 155.797 590.363 152.983 590.378 150.059Z" fill="#71717A"/>
</svg>
