<svg width="1320" height="397" viewBox="0 0 1320 397" fill="none" xmlns="http://www.w3.org/2000/svg">
<path fill-rule="evenodd" clip-rule="evenodd" d="M79 68.9606C79 62.9073 83.9061 58 89.958 58H244.654C282.676 58 313.5 88.8843 313.5 126.982C313.5 165.08 282.676 195.963 244.654 195.963H113.518L95.3422 129.09H231.031V140.378L256.851 120.591L231.031 100.804V111.016H90.4301L79 68.9606Z" fill="#71717A"/>
<path d="M193.243 169.457L247.359 185.724L313.5 260.428H193.243V169.457Z" fill="#71717A"/>
<path d="M79 68.8418L236.486 152.821C248.728 159.349 256.379 172.112 256.379 186.008V321.306C256.379 335.488 241.3 344.561 228.805 337.898L98.8928 268.624C86.6501 262.096 79 249.333 79 235.436V68.8418Z" fill="#A1A1AA"/>
<path d="M79 129.234V109.02L224.092 190.483V210.426L79 129.234Z" fill="white"/>
<path d="M202.864 279.707L224.51 291.756V313.444L202.864 301.395V279.707Z" fill="white"/>
<path d="M404.644 264.909C400.225 264.909 396.421 263.433 393.228 260.481C390.036 257.283 388.441 253.593 388.441 249.412V135.768C388.441 128.635 390.651 122.854 395.07 118.427C399.735 113.999 405.871 111.785 413.482 111.785H450.307C465.284 111.785 477.312 116.213 486.396 125.068C495.724 133.924 500.389 144.993 500.389 158.276C500.389 166.147 498.302 173.527 494.129 180.414C489.956 187.303 483.94 192.837 476.085 197.018C479.521 198.741 482.591 201.077 485.291 204.029C488.237 206.98 490.569 210.548 492.288 214.729L504.44 242.771C505.667 245.723 506.282 248.183 506.282 250.15C506.282 254.578 504.562 258.268 501.126 261.219C497.69 263.925 493.883 265.278 489.71 265.278C487.01 265.278 484.308 264.54 481.609 263.064C479.153 261.588 477.19 259.252 475.717 256.054L461.723 222.477C459.267 216.574 455.953 212.393 451.78 209.932C447.852 207.227 443.189 205.873 437.787 205.873H428.212C423.303 205.873 420.847 208.334 420.847 213.253V249.412C420.847 253.593 419.252 257.283 416.06 260.481C412.868 263.433 409.063 264.909 404.644 264.909ZM426.371 178.2H448.834C454.973 178.2 459.76 176.478 463.196 173.035C466.879 169.591 468.72 165.163 468.72 159.752C468.72 154.094 466.879 149.667 463.196 146.469C459.76 143.025 454.973 141.303 448.834 141.303H426.371C422.689 141.303 420.847 143.148 420.847 146.838V172.666C420.847 176.356 422.689 178.2 426.371 178.2ZM567.172 264.909C550.725 264.909 537.344 259.744 527.032 249.412C516.968 238.834 511.934 224.813 511.934 207.349C511.934 189.885 516.846 176.109 526.664 166.024C536.731 155.693 549.864 150.527 566.067 150.527C577.607 150.527 587.672 154.586 596.264 162.704C597.246 159.752 599.088 157.292 601.787 155.324C604.489 153.356 607.679 152.372 611.362 152.372C616.274 152.372 620.2 153.848 623.146 156.8C626.338 159.506 627.933 162.826 627.933 166.762V250.519C627.933 254.7 626.338 258.145 623.146 260.85C620.2 263.556 616.274 264.909 611.362 264.909C603.26 264.909 598.229 261.342 596.264 254.209C588.408 261.342 578.712 264.909 567.172 264.909ZM569.75 235.022C577.607 235.022 583.867 232.44 588.53 227.274C593.196 221.862 595.527 215.22 595.527 207.349C595.527 199.232 593.196 192.713 588.53 187.794C583.867 182.875 577.607 180.414 569.75 180.414C562.141 180.414 555.88 182.875 550.969 187.794C546.306 192.713 543.972 199.232 543.972 207.349C543.972 215.22 546.306 221.862 550.969 227.274C555.88 232.44 562.141 235.022 569.75 235.022ZM672.167 264.909C667.502 264.909 663.575 263.556 660.383 260.85C657.191 258.145 655.596 254.7 655.596 250.519V166.762C655.596 162.826 657.069 159.506 660.015 156.8C663.207 153.848 667.258 152.372 672.167 152.372C677.813 152.372 682.11 154.34 685.056 158.276C686.283 159.752 687.019 161.228 687.265 162.704C690.211 159.014 694.14 156.062 699.049 153.848C703.959 151.634 709.483 150.527 715.621 150.527C732.314 150.527 744.344 156.062 751.709 167.131C756.128 161.72 761.53 157.661 767.912 154.955C774.295 152.003 780.923 150.527 787.798 150.527C801.545 150.527 812.349 154.586 820.204 162.704C828.306 170.821 832.356 183.735 832.356 201.446V251.257C832.356 255.194 830.761 258.514 827.569 261.219C824.623 263.68 820.819 264.909 816.153 264.909C811.488 264.909 807.562 263.556 804.369 260.85C801.423 258.145 799.95 254.7 799.95 250.519V205.504C799.95 196.402 798.355 189.885 795.163 185.949C791.971 182.012 787.43 180.045 781.538 180.045C775.646 180.045 770.858 181.89 767.176 185.58C763.74 189.023 761.406 193.206 760.179 198.125V251.257C760.179 255.194 758.584 258.514 755.392 261.219C752.446 263.68 748.641 264.909 743.976 264.909C739.311 264.909 735.384 263.556 732.192 260.85C729.246 258.145 727.773 254.7 727.773 250.519V205.504C727.773 196.402 726.178 189.885 722.986 185.949C719.794 182.012 715.253 180.045 709.361 180.045C703.715 180.045 699.049 181.89 695.367 185.58C691.684 189.023 689.229 193.082 688.002 197.756V250.15C688.002 254.331 686.407 257.899 683.215 260.85C680.269 263.556 676.586 264.909 672.167 264.909ZM919.517 264.909C908.716 264.909 899.631 261.588 892.266 254.947V299.962C892.266 304.143 890.671 307.588 887.479 310.293C884.533 313.245 880.85 314.721 876.431 314.721C871.766 314.721 867.84 313.367 864.647 310.662C861.455 307.957 859.86 304.512 859.86 300.331V166.762C859.86 162.826 861.333 159.506 864.279 156.8C867.471 153.848 871.522 152.372 876.431 152.372C880.114 152.372 883.306 153.356 886.006 155.324C888.706 157.292 890.547 159.752 891.53 162.704C899.878 154.586 909.574 150.527 920.622 150.527C936.825 150.527 949.713 155.693 959.288 166.024C969.109 176.109 974.018 189.885 974.018 207.349C974.018 224.813 969.109 238.834 959.288 249.412C949.467 259.744 936.21 264.909 919.517 264.909ZM916.939 235.022C924.55 235.022 930.564 232.44 934.983 227.274C939.649 221.862 941.98 215.22 941.98 207.349C941.98 199.232 939.649 192.713 934.983 187.794C930.564 182.875 924.55 180.414 916.939 180.414C909.574 180.414 903.56 182.875 898.895 187.794C894.476 192.713 892.266 199.232 892.266 207.349C892.266 215.22 894.476 221.862 898.895 227.274C903.56 232.44 909.574 235.022 916.939 235.022ZM1047.62 264.909C1031.18 264.909 1017.8 259.744 1007.49 249.412C997.42 238.834 992.387 224.813 992.387 207.349C992.387 189.885 997.298 176.109 1007.12 166.024C1017.18 155.693 1030.32 150.527 1046.52 150.527C1058.06 150.527 1068.12 154.586 1076.72 162.704C1077.7 159.752 1079.54 157.292 1082.24 155.324C1084.94 153.356 1088.13 152.372 1091.81 152.372C1096.73 152.372 1100.65 153.848 1103.6 156.8C1106.79 159.506 1108.39 162.826 1108.39 166.762V250.519C1108.39 254.7 1106.79 258.145 1103.6 260.85C1100.65 263.556 1096.73 264.909 1091.81 264.909C1083.71 264.909 1078.68 261.342 1076.72 254.209C1068.86 261.342 1059.16 264.909 1047.62 264.909ZM1050.2 235.022C1058.06 235.022 1064.32 232.44 1068.98 227.274C1073.65 221.862 1075.98 215.22 1075.98 207.349C1075.98 199.232 1073.65 192.713 1068.98 187.794C1064.32 182.875 1058.06 180.414 1050.2 180.414C1042.59 180.414 1036.33 182.875 1031.42 187.794C1026.76 192.713 1024.42 199.232 1024.42 207.349C1024.42 215.22 1026.76 221.862 1031.42 227.274C1036.33 232.44 1042.59 235.022 1050.2 235.022ZM1125 165.286C1125 160.367 1126.72 156.677 1130.16 154.217C1133.59 151.757 1137.52 150.527 1141.94 150.527C1145.38 150.527 1148.32 151.511 1150.78 153.479C1153.48 155.201 1155.32 157.661 1156.3 160.859L1179.13 216.574C1180.36 219.772 1182.08 221.37 1184.29 221.37C1186.5 221.37 1188.09 219.772 1189.08 216.574L1208.96 160.859C1210.19 157.415 1212.15 154.832 1214.85 153.11C1217.8 151.388 1220.87 150.527 1224.06 150.527C1228.23 150.527 1232.04 151.88 1235.48 154.586C1239.16 157.292 1241 160.859 1241 165.286C1241 167.746 1240.51 170.083 1239.53 172.297L1182.08 305.127C1180.36 308.817 1178.15 311.4 1175.45 312.876C1173 314.598 1170.42 315.459 1167.72 315.459C1163.3 315.459 1159.25 313.86 1155.57 310.662C1152.13 307.71 1150.41 304.143 1150.41 299.962C1150.41 297.748 1150.9 295.781 1151.88 294.058L1171.77 258.637C1167.6 257.408 1164.28 254.331 1161.83 249.412L1126.11 171.928C1125.37 169.714 1125 167.5 1125 165.286Z" fill="#71717A"/>
</svg>
