<svg width="1370" height="397" viewBox="0 0 1370 397" fill="none" xmlns="http://www.w3.org/2000/svg">
<path d="M467.63 304.379H511.66V214.862C511.66 195.392 525.924 182.001 545.354 182.001C551.451 182.001 559.822 183.031 563.957 184.37V145.432C560.028 144.504 554.551 143.886 550.107 143.886C532.33 143.886 517.757 154.187 511.971 173.76H510.315V146.152H467.63V304.379ZM651.678 307.47C690.952 307.47 717.411 288.412 723.613 259.054L682.893 256.376C678.449 268.428 667.078 274.712 652.403 274.712C630.388 274.712 616.436 260.187 616.436 236.597V236.494H724.544V224.442C724.544 170.669 691.883 144.092 649.92 144.092C603.205 144.092 572.922 177.159 572.922 225.987C572.922 276.154 602.792 307.47 651.678 307.47ZM616.436 209.299C617.364 191.272 631.11 176.85 650.645 176.85C669.767 176.85 682.995 190.448 683.1 209.299H616.436ZM797.306 93.4102H753.276V304.379H797.306V93.4102ZM877.843 307.367C901.305 307.367 916.497 297.169 924.248 282.438H925.49V304.379H967.244V197.659C967.244 159.956 935.205 144.092 899.858 144.092C861.824 144.092 836.812 162.222 830.715 191.066L871.435 194.362C874.432 183.855 883.839 176.129 899.651 176.129C914.637 176.129 923.214 183.649 923.214 196.629V197.247C923.214 207.445 912.364 208.784 884.767 211.462C853.349 214.347 825.132 224.854 825.132 260.187C825.132 291.503 847.56 307.367 877.843 307.367ZM890.451 277.081C876.912 277.081 867.197 270.797 867.197 258.745C867.197 246.383 877.43 240.306 892.934 238.143C902.544 236.803 918.255 234.537 923.526 231.035V247.826C923.526 264.411 909.78 277.081 890.451 277.081ZM1085.84 146.152H1055.97V108.244H1011.95V146.152H990.239V179.117H1011.95V261.526C1011.74 292.533 1032.93 307.882 1064.86 306.543C1076.23 306.131 1084.29 303.864 1088.74 302.422L1081.81 269.767C1079.64 270.179 1074.99 271.209 1070.86 271.209C1062.07 271.209 1055.97 267.913 1055.97 255.758V179.117H1085.84V146.152ZM1185.17 307.47C1224.44 307.47 1250.9 288.412 1257.1 259.054L1216.38 256.376C1211.93 268.428 1200.57 274.712 1185.89 274.712C1163.88 274.712 1149.92 260.187 1149.92 236.597V236.494H1258.03V224.442C1258.03 170.669 1225.37 144.092 1183.41 144.092C1136.69 144.092 1106.41 177.159 1106.41 225.987C1106.41 276.154 1136.28 307.47 1185.17 307.47ZM1149.92 209.299C1150.85 191.272 1164.6 176.85 1184.13 176.85C1203.25 176.85 1216.48 190.448 1216.58 209.299H1149.92Z" fill="#71717A"/>
<path fill-rule="evenodd" clip-rule="evenodd" d="M245.522 344.991C325.892 344.991 391.045 280.054 391.045 199.95C391.045 119.845 325.892 54.9082 245.522 54.9082C165.153 54.9082 100 119.845 100 199.95C100 280.054 165.153 344.991 245.522 344.991ZM221.054 166.332C224.371 160.395 228.195 155.707 232.527 152.266C236.859 148.826 241.935 147.105 247.756 147.105C252.494 147.105 256.352 148.219 259.33 150.445L257.503 171.088C257.164 172.437 256.623 173.381 255.878 173.921C255.201 174.393 254.254 174.629 253.035 174.629C251.952 174.629 250.395 174.494 248.365 174.225C246.335 173.887 244.439 173.719 242.68 173.719C240.108 173.719 237.806 174.09 235.776 174.832C233.813 175.574 232.053 176.62 230.496 177.969C228.94 179.318 227.518 180.971 226.232 182.927C225.014 184.884 223.863 187.11 222.78 189.606V253.458H194.759V149.129H211.308C214.151 149.129 216.113 149.635 217.196 150.647C218.279 151.659 219.058 153.413 219.531 155.909L221.054 166.332ZM260.628 232.512C259.816 234.469 259.41 236.56 259.41 238.786C259.41 241.08 259.816 243.205 260.628 245.162C261.508 247.118 262.692 248.838 264.181 250.322C265.67 251.739 267.396 252.852 269.359 253.662C271.39 254.471 273.59 254.876 275.958 254.876C278.26 254.876 280.426 254.471 282.456 253.662C284.487 252.852 286.247 251.739 287.736 250.322C289.225 248.838 290.375 247.118 291.188 245.162C292.068 243.205 292.508 241.08 292.508 238.786C292.508 236.56 292.068 234.469 291.188 232.512C290.375 230.489 289.225 228.768 287.736 227.352C286.247 225.868 284.487 224.721 282.456 223.911C280.426 223.034 278.26 222.596 275.958 222.596C273.59 222.596 271.39 223.034 269.359 223.911C267.396 224.721 265.67 225.868 264.181 227.352C262.692 228.768 261.508 230.489 260.628 232.512Z" fill="#71717A"/>
</svg>
