<svg width="1280" height="397" viewBox="0 0 1280 397" fill="none" xmlns="http://www.w3.org/2000/svg">
<path d="M158.453 304.812V92.1875H252.597C265.757 92.1875 277.702 95.225 288.433 101.3C299.163 107.173 307.566 115.171 313.64 125.296C319.916 135.421 323.054 146.964 323.054 159.924C323.054 172.681 319.916 184.325 313.64 194.855C307.566 205.183 299.163 213.384 288.433 219.459C277.702 225.534 265.757 228.571 252.597 228.571H202.488V304.812H158.453ZM279.019 304.812L224.961 208.828L271.73 201.234L331.861 305.116L279.019 304.812ZM202.488 191.514H250.471C255.938 191.514 260.696 190.299 264.745 187.869C268.997 185.236 272.236 181.692 274.463 177.238C276.69 172.58 277.804 167.416 277.804 161.746C277.804 155.671 276.488 150.406 273.856 145.951C271.224 141.496 267.377 138.054 262.315 135.624C257.254 132.991 251.383 131.675 244.701 131.675H202.488V191.514Z" fill="#7F7F87"/>
<path d="M420.134 307.85C402.722 307.85 387.435 304.307 374.275 297.219C361.318 290.131 351.196 280.411 343.906 268.059C336.82 255.707 333.276 241.531 333.276 225.534C333.276 212.979 335.302 201.538 339.35 191.211C343.4 180.883 349.068 171.973 356.357 164.481C363.646 156.786 372.251 150.913 382.172 146.863C392.294 142.611 403.227 140.484 414.971 140.484C425.904 140.484 436.026 142.509 445.34 146.559C454.653 150.609 462.651 156.279 469.332 163.569C476.215 170.657 481.48 179.162 485.124 189.084C488.768 198.804 490.387 209.334 489.983 220.674L489.679 234.039H360.61L353.624 207.613H454.147L449.288 213.081V206.398C448.883 200.931 447.061 196.071 443.82 191.818C440.785 187.363 436.837 183.921 431.978 181.491C427.119 178.858 421.651 177.542 415.577 177.542C406.67 177.542 399.077 179.263 392.8 182.706C386.726 186.148 382.071 191.211 378.83 197.893C375.591 204.576 373.971 212.676 373.971 222.193C373.971 231.913 375.997 240.316 380.047 247.404C384.298 254.492 390.169 260.06 397.661 264.11C405.353 267.957 414.362 269.882 424.688 269.882C431.774 269.882 438.254 268.768 444.126 266.54C449.996 264.312 456.272 260.465 462.955 254.998L483.606 283.854C477.734 289.12 471.254 293.574 464.169 297.219C457.083 300.662 449.794 303.294 442.302 305.117C434.811 306.939 427.423 307.85 420.134 307.85Z" fill="#7F7F87"/>
<path d="M560.724 307.849C545.741 307.849 532.379 305.419 520.636 300.559C509.096 295.497 499.783 288.611 492.697 279.904L519.725 256.819C525.799 263.502 532.682 268.362 540.376 271.399C548.071 274.235 555.763 275.652 563.457 275.652C566.494 275.652 569.227 275.348 571.657 274.741C574.288 273.931 576.516 272.918 578.338 271.703C580.16 270.286 581.477 268.666 582.286 266.843C583.299 264.819 583.804 262.692 583.804 260.464C583.804 256.01 581.982 252.567 578.338 250.137C576.314 248.922 573.175 247.605 568.924 246.188C564.672 244.568 559.205 242.847 552.524 241.024C542.199 238.392 533.392 235.355 526.103 231.912C519.016 228.267 513.348 224.217 509.096 219.762C505.452 215.51 502.617 210.953 500.593 206.093C498.771 201.031 497.86 195.462 497.86 189.387C497.86 182.097 499.48 175.516 502.719 169.643C505.958 163.568 510.413 158.405 516.081 154.152C521.953 149.9 528.634 146.66 536.125 144.432C543.615 142.002 551.511 140.787 559.813 140.787C568.114 140.787 576.212 141.8 584.108 143.825C592.004 145.85 599.293 148.786 605.974 152.633C612.857 156.278 618.831 160.632 623.892 165.695L600.811 191.21C597.167 187.767 593.017 184.628 588.36 181.793C583.906 178.958 579.249 176.731 574.39 175.111C569.531 173.491 565.178 172.681 561.331 172.681C557.889 172.681 554.752 172.985 551.917 173.592C549.285 174.2 547.058 175.212 545.236 176.63C543.413 177.845 541.997 179.363 540.984 181.186C540.175 183.008 539.769 185.033 539.769 187.261C539.769 189.488 540.275 191.615 541.288 193.64C542.502 195.665 544.123 197.386 546.147 198.803C548.374 200.018 551.613 201.436 555.865 203.056C560.318 204.676 566.292 206.498 573.783 208.523C583.501 211.156 591.7 214.092 598.382 217.332C605.265 220.572 610.731 224.318 614.781 228.571C618.223 232.216 620.753 236.366 622.373 241.024C623.994 245.682 624.803 250.846 624.803 256.516C624.803 266.438 621.968 275.246 616.3 282.942C610.833 290.637 603.241 296.712 593.523 301.167C583.804 305.621 572.872 307.849 560.724 307.849Z" fill="#7F7F87"/>
<path d="M716.589 307.85C699.177 307.85 683.892 304.307 670.732 297.219C657.775 290.131 647.651 280.411 640.363 268.059C633.276 255.707 629.733 241.531 629.733 225.534C629.733 212.979 631.758 201.538 635.807 191.211C639.857 180.883 645.525 171.973 652.814 164.481C660.103 156.786 668.708 150.913 678.628 146.863C688.751 142.611 699.684 140.484 711.427 140.484C722.36 140.484 732.483 142.509 741.796 146.559C751.109 150.609 759.106 156.279 765.788 163.569C772.671 170.657 777.935 179.162 781.58 189.084C785.224 198.804 786.844 209.334 786.439 220.674L786.135 234.039H657.066L650.081 207.613H750.603L745.744 213.081V206.398C745.338 200.931 743.516 196.071 740.277 191.818C737.24 187.363 733.292 183.921 728.433 181.491C723.574 178.858 718.108 177.542 712.034 177.542C703.125 177.542 695.533 179.263 689.257 182.706C683.183 186.148 678.526 191.211 675.287 197.893C672.048 204.576 670.428 212.676 670.428 222.193C670.428 231.913 672.452 240.316 676.502 247.404C680.754 254.492 686.626 260.06 694.116 264.11C701.81 267.957 710.819 269.882 721.145 269.882C728.231 269.882 734.709 268.768 740.581 266.54C746.453 264.312 752.729 260.465 759.41 254.998L780.061 283.854C774.189 289.12 767.711 293.574 760.625 297.219C753.538 300.662 746.25 303.294 738.759 305.117C731.268 306.939 723.878 307.85 716.589 307.85Z" fill="#7F7F87"/>
<path d="M803.122 304.812V144.128H844.424L845.639 176.933L837.136 180.578C839.363 173.288 843.311 166.707 848.98 160.835C854.852 154.76 861.836 149.9 869.934 146.255C878.034 142.61 886.537 140.787 895.445 140.787C907.592 140.787 917.716 143.217 925.814 148.077C934.115 152.937 940.291 160.328 944.339 170.251C948.591 179.971 950.716 192.02 950.716 206.397V304.812H907.592V209.738C907.592 202.448 906.581 196.373 904.555 191.513C902.531 186.653 899.392 183.11 895.141 180.882C891.093 178.655 886.03 177.642 879.956 177.845C875.097 177.845 870.542 178.655 866.29 180.275C862.242 181.692 858.698 183.818 855.661 186.653C852.827 189.488 850.498 192.728 848.676 196.373C847.057 200.018 846.246 203.967 846.246 208.22V304.812H824.988C820.332 304.812 816.181 304.812 812.537 304.812C808.892 304.812 805.755 304.812 803.122 304.812Z" fill="#7F7F87"/>
<path d="M1039.72 307.849C1025.55 307.849 1012.89 304.306 1001.76 297.218C990.825 289.928 982.12 280.106 975.641 267.754C969.365 255.199 966.226 240.721 966.226 224.318C966.226 208.321 969.365 194.045 975.641 181.49C982.12 168.732 990.825 158.81 1001.76 151.722C1012.89 144.432 1025.55 140.787 1039.72 140.787C1047.21 140.787 1054.4 142.002 1061.28 144.432C1068.37 146.66 1074.64 149.798 1080.11 153.848C1085.78 157.898 1090.34 162.455 1093.78 167.517C1097.22 172.377 1099.14 177.44 1099.55 182.705L1088.61 184.831V80.0371H1132.04V304.812H1091.04L1089.22 267.754L1097.72 268.666C1097.32 273.728 1095.5 278.588 1092.26 283.246C1089.02 287.904 1084.67 292.156 1079.2 296.003C1073.94 299.648 1067.86 302.584 1060.98 304.812C1054.3 306.836 1047.21 307.849 1039.72 307.849ZM1049.44 272.007C1057.54 272.007 1064.62 269.982 1070.7 265.932C1076.77 261.881 1081.53 256.314 1084.97 249.226C1088.41 242.138 1090.13 233.836 1090.13 224.318C1090.13 215.003 1088.41 206.802 1084.97 199.715C1081.53 192.627 1076.77 187.058 1070.7 183.008C1064.62 178.958 1057.54 176.933 1049.44 176.933C1041.34 176.933 1034.25 178.958 1028.18 183.008C1022.31 187.058 1017.65 192.627 1014.21 199.715C1010.97 206.802 1009.35 215.003 1009.35 224.318C1009.35 233.836 1010.97 242.138 1014.21 249.226C1017.65 256.314 1022.31 261.881 1028.18 265.932C1034.25 269.982 1041.34 272.007 1049.44 272.007Z" fill="#7F7F87"/>
</svg>
