<svg width="1280" height="397" viewBox="0 0 1280 397" fill="none" xmlns="http://www.w3.org/2000/svg">
<path d="M150.943 296.645C173.482 296.645 191.304 291.653 204.146 281.666C216.988 271.681 223.54 258.015 223.54 240.672C223.54 226.218 218.822 214.656 209.387 205.984C199.952 197.575 184.751 191.005 163.523 186.275L147.273 182.858C131.548 179.705 121.065 175.5 115.299 170.77C109.533 166.565 106.651 159.996 106.651 151.324C106.651 142.914 109.796 136.607 116.348 131.877C122.638 127.41 132.073 125.045 144.391 125.045C160.116 125.045 171.385 127.935 178.461 133.717C185.538 139.498 189.469 148.17 190.517 160.258H218.298C217.774 141.863 211.484 127.41 199.166 116.898C186.848 106.387 168.502 101.131 144.128 101.131C123.686 101.131 107.699 105.861 95.905 115.059C83.8492 124.256 78.0833 136.607 78.0833 151.849C78.0833 167.354 82.8009 179.442 92.76 188.114C102.457 197.049 116.872 203.356 136.266 207.035L152.253 210.451C167.978 214.13 178.986 218.072 185.276 222.54C191.304 227.007 194.449 233.314 194.449 241.46C194.449 251.708 190.517 259.594 183.179 264.848C175.841 270.104 165.095 272.732 151.467 272.732C117.92 272.732 101.147 258.804 100.623 230.686H72.5796C72.5796 252.235 79.6558 268.791 93.2842 279.827C106.913 291.128 126.307 296.645 150.943 296.645Z" fill="#71717A"/>
<path d="M365.022 225.693C365.022 204.67 359.255 187.589 347.985 173.924C336.454 160.522 320.729 153.689 300.81 153.689C281.679 153.689 266.216 160.259 254.422 173.136C242.365 186.275 236.6 203.357 236.6 224.643C236.6 246.192 242.365 263.272 254.422 276.15C266.216 289.288 281.941 295.595 301.334 295.595C316.797 295.595 329.902 291.654 340.385 283.77C350.869 275.887 358.207 264.849 361.876 250.921H335.406C330.164 266.162 318.895 273.521 301.858 273.521C290.328 273.521 281.417 270.368 274.865 263.535C268.05 256.702 264.118 246.717 263.07 233.314H365.022V225.693ZM300.81 175.764C311.295 175.764 319.681 179.18 326.233 186.012C332.784 192.845 336.716 201.517 338.026 212.554H263.332C264.904 200.729 268.836 191.531 275.389 185.224C281.941 178.917 290.328 175.764 300.81 175.764Z" fill="#71717A"/>
<path d="M483.205 176.815C472.985 161.573 458.046 153.689 438.389 153.689C419.52 153.689 404.319 160.259 393.311 172.873C382.042 185.75 376.538 203.094 376.538 224.643C376.538 246.454 382.042 263.798 393.311 276.412C404.319 289.288 419.52 295.595 438.389 295.595C457.26 295.595 471.937 288.5 482.157 274.046V343.949H508.367V156.843H483.205V176.815ZM414.54 260.645C407.201 252.499 403.795 240.935 403.795 225.693C403.795 210.452 407.201 198.364 414.54 189.429C421.616 180.757 431.313 176.289 443.369 176.289C455.688 176.289 465.384 180.494 472.461 188.903C479.275 197.575 482.943 209.401 482.943 224.643C482.943 240.147 479.275 251.973 472.461 260.12C465.384 268.791 455.688 272.995 443.369 272.995C431.313 272.995 421.616 269.054 414.54 260.645Z" fill="#71717A"/>
<path d="M621.338 233.313C621.338 245.665 617.93 255.388 611.378 262.22C604.825 269.053 596.701 272.469 587.266 272.469C568.135 272.469 558.699 263.009 558.699 244.087V156.842H532.491V247.767C532.491 263.009 536.685 274.572 545.072 282.981C553.458 291.39 564.989 295.594 579.928 295.594C597.751 295.594 611.902 287.973 622.386 272.206V292.441H647.546V156.842H621.338V233.313Z" fill="#71717A"/>
<path d="M793.793 225.693C793.793 204.67 788.027 187.589 776.756 173.924C765.226 160.522 749.501 153.689 729.582 153.689C710.449 153.689 694.986 160.259 683.193 173.136C671.137 186.275 665.372 203.357 665.372 224.643C665.372 246.192 671.137 263.272 683.193 276.15C694.986 289.288 710.713 295.595 730.106 295.595C745.569 295.595 758.673 291.654 769.156 283.77C779.64 275.887 786.979 264.849 790.647 250.921H764.177C758.935 266.162 747.665 273.521 730.63 273.521C719.099 273.521 710.187 270.368 703.636 263.535C696.822 256.702 692.89 246.717 691.842 233.314H793.793V225.693ZM729.582 175.764C740.064 175.764 748.453 179.18 755.003 186.012C761.556 192.845 765.488 201.517 766.798 212.554H692.104C693.676 200.729 697.608 191.531 704.16 185.224C710.713 178.917 719.099 175.764 729.582 175.764Z" fill="#71717A"/>
<path d="M879.217 153.689C861.132 153.689 846.979 161.573 836.759 177.078V156.843H811.599V292.442H837.807V215.97C837.807 203.356 841.215 193.633 848.291 186.801C855.105 180.231 862.968 176.815 871.878 176.815C890.748 176.815 900.446 186.275 900.446 205.196V292.442H926.654V201.517C926.654 186.275 922.459 174.712 914.073 166.303C905.686 157.894 893.894 153.689 879.217 153.689Z" fill="#71717A"/>
<path d="M1008.95 295.595C1025.2 295.595 1038.83 291.129 1049.84 281.667C1060.84 272.47 1067.4 259.857 1069.49 244.088H1042.76C1041.19 253.55 1037.26 260.645 1031.23 265.374C1024.94 270.368 1017.6 272.732 1008.95 272.732C997.419 272.732 988.508 268.791 981.694 260.382C974.88 251.973 971.735 240.147 971.735 224.643C971.735 209.401 974.88 197.575 981.694 189.166C988.508 180.757 997.419 176.552 1008.95 176.552C1017.34 176.552 1024.68 178.917 1030.7 183.647C1036.73 188.377 1040.66 195.21 1042.5 204.145H1069.23C1067.13 188.903 1060.58 176.552 1049.84 167.354C1039.09 158.42 1025.46 153.689 1008.95 153.689C989.556 153.689 973.832 160.259 962.301 172.873C950.244 186.012 944.478 203.094 944.478 224.643C944.478 246.192 950.244 263.272 962.301 276.15C974.094 289.288 989.556 295.595 1008.95 295.595Z" fill="#71717A"/>
<path d="M1206.95 225.693C1206.95 204.67 1201.18 187.589 1189.92 173.924C1178.38 160.522 1162.66 153.689 1142.74 153.689C1123.61 153.689 1108.14 160.259 1096.35 173.136C1084.3 186.275 1078.53 203.357 1078.53 224.643C1078.53 246.192 1084.3 263.272 1096.35 276.15C1108.14 289.288 1123.87 295.595 1143.26 295.595C1158.73 295.595 1171.83 291.654 1182.31 283.77C1192.8 275.887 1200.14 264.849 1203.81 250.921H1177.33C1172.09 266.162 1160.82 273.521 1143.79 273.521C1132.26 273.521 1123.35 270.368 1116.79 263.535C1109.98 256.702 1106.05 246.717 1105 233.314H1206.95V225.693ZM1142.74 175.764C1153.22 175.764 1161.61 179.18 1168.16 186.012C1174.71 192.845 1178.64 201.517 1179.96 212.554H1105.26C1106.83 200.729 1110.77 191.531 1117.32 185.224C1123.87 178.917 1132.26 175.764 1142.74 175.764Z" fill="#71717A"/>
</svg>
