<svg width="1280" height="397" viewBox="0 0 1280 397" fill="none" xmlns="http://www.w3.org/2000/svg">
<g clip-path="url(#clip0_3537_33)">
<path d="M623.915 204.609L621.693 204.114C602.687 200.396 583.186 199.157 563.686 200.148C535.299 201.883 516.293 212.045 500.495 227.907C475.811 253.436 467.913 290.862 480.007 324.074C484.451 334.98 495.065 347.373 506.173 350.595C530.116 357.782 549.369 353.569 565.168 338.202L568.623 334.98L569.364 338.202C570.35 342.911 572.078 347.373 574.053 351.586H612.807C611.327 347.868 610.092 344.151 609.352 340.433C608.117 330.766 608.117 321.1 609.599 311.682L623.915 204.609ZM563.44 293.589C559.737 304.99 547.148 316.391 532.584 313.417C521.97 311.186 520.983 297.802 520.983 297.802C519.749 285.162 522.217 272.273 528.141 260.872C532.831 250.71 541.471 243.027 552.084 239.309C558.996 237.078 566.154 236.087 573.313 237.078C570.35 261.368 567.636 281.195 563.44 293.589Z" fill="#7F7F87"/>
<path d="M910.249 202.131L884.824 238.566L866.064 202.131H813.488L855.944 273.016L793.987 351.338H850.514L879.147 313.417L899.388 351.338H953.693L907.287 277.23L968.256 202.131H910.249Z" fill="#7F7F87"/>
<path d="M795.222 247.486C795.469 234.102 790.285 220.47 780.658 211.795C771.031 203.12 759.43 199.898 743.385 199.65C727.588 199.403 712.531 205.847 701.916 217.743C701.176 210.556 698.707 203.616 694.758 197.668L647.611 206.095C648.846 208.821 650.574 212.539 651.561 215.017C655.016 223.196 656.251 231.872 655.264 240.794L639.466 351.584H689.821L703.644 253.682C710.309 245.999 719.689 241.538 729.809 241.29C736.227 241.29 740.917 243.768 743.138 247.982C745.359 252.195 744.866 258.144 744.126 262.605L731.537 351.832H781.645L793.987 263.596C794.728 258.144 795.222 252.691 795.222 247.486Z" fill="#7F7F87"/>
<path d="M404.969 199.651C392.874 199.404 381.272 202.626 370.905 209.07L381.519 133.227H188.491C125.547 133.227 116.414 177.096 115.92 180.814C114.439 188.745 112.711 209.813 128.509 238.564L169.731 223.693C163.313 212.54 157.883 197.173 163.807 187.754C168.743 180.07 176.149 176.105 194.909 176.105H217.371L192.934 351.337H243.289L267.727 176.105H325.24L300.555 351.337H350.911L364.734 253.435C371.399 245.752 380.779 241.29 390.899 241.042C397.317 241.042 402.006 243.52 404.229 247.487C406.45 251.453 405.957 257.649 405.216 262.11L392.627 351.337H442.736L455.077 263.101C455.818 257.897 456.065 252.692 456.312 247.487C456.558 234.102 451.374 220.471 441.748 211.796C432.121 203.121 421.014 199.651 404.969 199.651Z" fill="#7F7F87"/>
<path d="M1081.56 98.2791L1044.04 115.877C1042.06 116.868 1039.59 116.868 1037.62 115.877L1005.53 98.0312L1018.36 132.731C1019.1 134.961 1018.86 137.44 1017.38 139.175L994.668 174.37L1031.94 156.276C1033.92 155.285 1036.38 155.285 1038.36 156.276L1070.45 174.37L1057.86 139.423C1057.12 137.192 1057.37 134.713 1058.85 132.978L1081.56 98.2791Z" fill="#7F7F87"/>
<path d="M1148.45 199.65L1120.55 213.035C1119.08 213.779 1117.1 213.779 1115.62 213.035L1091.68 199.65L1101.3 225.676C1101.8 227.41 1101.55 229.145 1100.56 230.632L1083.53 256.904L1111.42 243.521C1112.9 242.777 1114.88 242.777 1116.36 243.521L1140.3 256.904L1130.68 230.632C1130.18 228.898 1130.43 227.163 1131.41 225.676L1148.45 199.65Z" fill="#7F7F87"/>
<path d="M938.141 86.1341L914.198 72.75L923.825 98.7745C924.319 100.51 924.072 102.244 923.084 103.732L906.053 130.004L933.945 116.62C935.427 115.876 937.401 115.876 938.883 116.62L962.826 130.252L953.199 103.979C952.705 102.244 952.952 100.51 953.94 99.0224L970.725 72.9979L943.079 86.1341C941.351 86.8776 939.623 86.8776 938.141 86.1341Z" fill="#7F7F87"/>
<path d="M1154.12 59.3669L1164 44L1147.46 51.9313C1146.48 52.427 1145.49 52.427 1144.5 51.9313L1130.67 44L1136.36 59.3669C1136.6 60.3583 1136.6 61.3496 1135.86 62.3411L1125.74 77.7079L1142.28 69.7767C1143.26 69.281 1144.25 69.281 1145.24 69.7767L1159.31 77.7079L1153.64 62.3411C1153.38 61.1018 1153.38 60.1104 1154.12 59.3669Z" fill="#7F7F87"/>
<path d="M1015.9 238.068L999.358 246C998.371 246.496 997.383 246.496 996.396 246L982.326 238.068L988.003 253.435C988.251 254.427 988.251 255.418 987.51 256.41L977.39 271.776L993.928 263.845C994.915 263.349 995.903 263.349 996.889 263.845L1010.96 271.776L1005.28 256.41C1005.04 255.418 1005.04 254.427 1005.78 253.435L1015.9 238.068Z" fill="#7F7F87"/>
</g>
<defs>
<clipPath id="clip0_3537_33">
<rect width="1049" height="310" fill="white" transform="translate(115 44)"/>
</clipPath>
</defs>
</svg>
