<svg width="1280" height="397" viewBox="0 0 1280 397" fill="none" xmlns="http://www.w3.org/2000/svg">
<path fill-rule="evenodd" clip-rule="evenodd" d="M716.747 83H749.154V265.816H716.747V83ZM518.438 265.816H483.313V120.513H435.325V89.4582H567.166V120.513H518.438V265.816ZM122.213 140.684H122.07V126.326V103.602C86.1065 114.941 59.7759 144.84 52.2121 180.812C50.7671 186.536 50 192.528 50 198.7V213.193V213.354V213.515V217.841H50.1338C52.444 255.882 83.8944 286.024 122.364 286.024C162.333 286.024 194.729 253.491 194.729 213.354C194.729 173.217 162.324 140.684 122.364 140.684H122.213ZM292.309 248.941H292.604V286.024C328.567 274.684 354.889 244.785 362.453 208.804C363.898 203.089 364.674 197.096 364.674 190.925V171.784H364.54C362.23 133.742 330.771 103.602 292.309 103.602C252.341 103.602 219.945 136.134 219.945 176.271C219.945 216.399 252.341 248.941 292.309 248.941ZM625.786 142.619C587.2 142.619 561.475 168.953 561.475 205.212C561.475 241.479 587.2 268.055 625.786 268.055C663.38 268.055 689.844 242.223 689.844 205.212C689.855 167.95 663.38 142.619 625.786 142.619ZM625.786 238.747C607.233 238.747 594.371 224.094 594.371 205.212C594.371 186.088 606.983 171.676 625.786 171.676C643.598 171.676 656.951 185.336 656.951 205.212C656.951 225.088 643.096 238.747 625.786 238.747ZM821.979 268.055C853.647 268.055 868.727 251.664 868.727 230.301C868.727 206.206 853.393 200.491 827.171 190.809C815.302 186.339 809.359 182.855 809.359 177.893C809.359 171.434 815.788 168.953 820.743 168.953C829.643 168.953 840.531 172.93 849.685 181.869L865.516 157.775C851.666 147.098 838.064 142.619 821.488 142.619C796.509 142.619 777.715 156.78 777.715 178.636C777.715 202.229 795.024 211.67 815.066 218.379C830.648 223.592 836.834 226.324 836.834 231.546C836.834 237.511 831.642 241.479 822.239 241.479C808.88 241.479 798.495 236.759 788.596 227.569L773.013 250.177C786.112 261.597 802.688 268.055 821.979 268.055ZM930.4 268.055C946.722 268.055 954.634 264.571 962.304 260.352L954.143 234.278C948.703 237.01 942.771 238.497 938.809 238.497C931.139 238.497 928.419 233.534 928.419 222.848V171.434H961.074V144.356H928.419V101.38L896.011 104.856V144.356H881.671V171.425H896.011V227.569C896.011 254.888 909.625 268.055 930.4 268.055ZM1035.95 142.619C997.368 142.619 971.644 168.953 971.644 205.212C971.644 241.479 997.368 268.055 1035.95 268.055C1073.55 268.055 1100.01 242.223 1100.01 205.212C1100.01 167.95 1073.55 142.619 1035.95 142.619ZM1035.95 238.747C1017.4 238.747 1004.54 224.094 1004.54 205.212C1004.54 186.088 1017.15 171.676 1035.95 171.676C1053.77 171.676 1067.12 185.336 1067.12 205.212C1067.12 225.088 1053.27 238.747 1035.95 238.747ZM1132.04 315H1164.94L1230 144.356H1197.1L1169.64 218.871H1169.15L1139.71 144.356H1105.08L1153.57 258.364L1132.04 315Z" fill="#71717A"/>
</svg>
