<svg width="1320" height="397" viewBox="0 0 1320 397" fill="none" xmlns="http://www.w3.org/2000/svg">
<path d="M484.379 120.676C487.854 120.676 490.291 124.091 489.175 127.36L413.747 346.505C412.834 349.158 411.112 351.461 408.822 353.091C406.532 354.722 403.788 355.598 400.974 355.599H334.345C331.53 355.598 328.785 354.72 326.495 353.087C324.205 351.455 322.483 349.15 321.572 346.495L246.3 127.36C246.038 126.6 245.962 125.789 246.078 124.994C246.194 124.199 246.499 123.443 246.967 122.789C247.435 122.135 248.053 121.603 248.77 121.235C249.486 120.867 250.281 120.676 251.086 120.676H317.832C319.319 120.677 320.764 121.167 321.942 122.071C323.121 122.974 323.968 124.24 324.351 125.672L366.431 282.486H368.878L411.114 125.662C411.501 124.234 412.35 122.972 413.528 122.073C414.706 121.173 416.149 120.686 417.633 120.685H484.379V120.676ZM508.351 355.599C506.559 355.599 504.842 354.89 503.575 353.627C502.308 352.364 501.597 350.652 501.597 348.866V127.408C501.597 123.7 504.631 120.676 508.351 120.676H569.87C573.599 120.676 576.624 123.7 576.624 127.408V348.866C576.624 350.652 575.912 352.364 574.645 353.627C573.379 354.89 571.661 355.599 569.87 355.599H508.351ZM732.012 120.676C735.731 120.676 738.766 123.7 738.766 127.408V169.005C738.766 170.791 738.054 172.503 736.787 173.766C735.521 175.028 733.803 175.738 732.012 175.738H596.846C595.055 175.738 593.337 175.028 592.07 173.766C590.804 172.503 590.092 170.791 590.092 169.005V127.408C590.092 123.7 593.127 120.676 596.846 120.676H732.012ZM621.238 71.1267C621.238 67.4188 624.273 64.3939 627.992 64.3939H689.511C693.241 64.3939 696.265 67.4188 696.265 71.1267V281.724C696.265 286.311 696.98 290.038 698.419 292.887C699.946 295.639 702.138 297.629 705.006 298.849C707.874 299.981 711.3 300.537 715.284 300.537C719.073 300.515 722.85 300.116 726.56 299.347C727.92 299.073 729.333 299.342 730.497 300.096C731.661 300.849 732.482 302.027 732.785 303.376L741.771 346.105C742.131 347.761 741.833 349.492 740.941 350.935C740.049 352.377 738.631 353.42 736.984 353.843C734.361 354.516 731.317 355.248 727.871 356.058C721.421 357.58 713.708 358.556 704.703 358.956C687.113 359.775 672.02 357.736 659.442 352.838C646.962 347.842 637.399 340.094 630.762 329.595C624.204 319.096 621.033 305.884 621.238 289.979V71.1364V71.1267ZM837.725 358.956C820.341 358.956 804.543 354.467 790.32 345.5C776.098 336.523 764.753 323.067 756.257 305.123C747.771 287.179 743.533 264.902 743.533 238.284C743.533 210.66 747.927 187.925 756.717 170.078C765.517 152.232 777.028 139.03 791.24 130.462C805.15 122.014 821.134 117.57 837.421 117.622C849.794 117.622 860.384 119.768 869.174 124.042C877.974 128.228 885.227 133.624 890.963 140.259C896.689 146.884 901.045 153.764 904.001 160.906H905.538V127.408C905.538 123.7 908.562 120.676 912.292 120.676H973.811C977.53 120.676 980.564 123.7 980.564 127.408V348.866C980.564 350.652 979.853 352.364 978.586 353.627C977.32 354.89 975.602 355.599 973.811 355.599H913.055C911.264 355.599 909.546 354.89 908.279 353.627C907.013 352.364 906.301 350.652 906.301 348.866V317.515H904.001C900.669 324.996 896.107 331.869 890.503 337.85C884.669 344.173 877.357 349.266 868.567 353.15C859.866 357.024 849.588 358.956 837.735 358.956H837.725ZM863.81 300.693C872.913 300.693 880.685 298.137 887.126 293.043C893.576 287.842 898.529 280.554 902.004 271.176C905.489 261.79 907.221 250.783 907.221 238.137C907.221 225.287 905.489 214.231 902.014 204.952C898.637 195.672 893.674 188.53 887.136 183.534C880.676 178.538 872.913 176.04 863.81 176.04C854.502 176.04 846.622 178.597 840.182 183.69C833.741 188.793 828.827 195.985 825.45 205.254C822.181 214.534 820.546 225.492 820.546 238.137C820.546 250.783 822.23 261.79 825.607 271.176C828.984 280.544 833.839 287.842 840.182 293.033C846.622 298.137 854.502 300.693 863.81 300.693ZM1064.15 42.3711C1067.87 42.3711 1070.9 45.3862 1070.9 49.1038V348.857C1070.9 350.642 1070.19 352.355 1068.92 353.617C1067.66 354.88 1065.94 355.589 1064.15 355.589H1002.63C1000.84 355.589 999.118 354.88 997.851 353.617C996.585 352.355 995.873 350.642 995.873 348.857V49.1136C995.873 45.4057 998.898 42.3809 1002.63 42.3809H1064.15V42.3711Z" fill="#71717A"/>
</svg>
