<svg width="1280" height="397" viewBox="0 0 1280 397" fill="none" xmlns="http://www.w3.org/2000/svg">
<g clip-path="url(#clip0_1784_320)">
<path d="M301.888 249.098C300.046 249.088 298.248 248.531 296.72 247.495C295.192 246.459 294.004 244.991 293.304 243.277L264.004 155.212C263.039 152.21 263.105 148.97 264.19 146.011C265.124 143.758 267.363 142.443 270.722 142.443C272.748 142.403 274.725 143.066 276.321 144.321C278.118 145.885 279.363 147.993 279.867 150.329L305.061 229.382H299.014L323.088 149.391C323.525 147.478 324.574 145.763 326.075 144.509C327.755 143.141 329.891 142.469 332.046 142.631C333.057 142.551 334.073 142.676 335.035 142.999C335.997 143.321 336.884 143.835 337.645 144.509C339.145 145.763 340.194 147.478 340.631 149.391L361.159 225.438H358.174L382.248 150.329C383.928 145.072 387.1 142.443 391.392 142.443C394.752 142.443 396.991 143.57 398.111 146.011C398.681 147.449 398.958 148.988 398.926 150.536C398.894 152.085 398.553 153.61 397.924 155.024L368.811 243.277C368.216 244.959 367.185 246.45 365.825 247.595C364.333 248.739 362.467 249.275 360.6 249.098C358.698 249.068 356.836 248.55 355.188 247.595C353.588 246.609 352.396 245.076 351.828 243.277L330.553 166.478H332.42L310.212 243.277C309.617 244.959 308.586 246.45 307.226 247.595C305.6 248.538 303.764 249.055 301.888 249.098Z" fill="#71717A"/>
<path d="M464.99 249.847C455.185 249.999 445.495 247.675 436.813 243.088C428.749 238.573 422.045 231.957 417.403 223.935C412.561 215.429 410.11 205.757 410.312 195.957C410.118 186.167 412.364 176.484 416.843 167.791C421.006 159.787 427.349 153.143 435.132 148.638C443.324 143.993 452.608 141.658 462.007 141.878C471.112 141.637 480.102 143.98 487.944 148.638C495.189 153.098 501.018 159.548 504.742 167.228C508.791 175.713 510.775 185.045 510.528 194.455C510.553 196.557 509.747 198.582 508.288 200.088C506.645 201.563 504.516 202.367 502.315 202.341H423.002V187.883H502.69L494.664 193.516C494.771 187.162 493.431 180.867 490.748 175.114C488.311 169.711 484.326 165.164 479.304 162.053C474.287 158.942 468.459 157.409 462.566 157.651C455.833 157.46 449.177 159.149 443.345 162.533C438.054 165.809 433.835 170.575 431.215 176.241C428.403 182.431 426.94 189.152 426.923 195.957C426.752 202.907 428.424 209.778 431.774 215.861C435.021 221.569 439.723 226.301 445.397 229.568C451.435 232.957 458.27 234.644 465.177 234.45C469.568 234.467 473.928 233.704 478.054 232.197C481.809 230.904 485.38 229.137 488.691 226.939C490.342 225.627 492.377 224.9 494.477 224.873C496.448 224.834 498.364 225.5 499.891 226.752C501.734 228.246 502.937 230.397 503.249 232.76C503.262 233.85 502.993 234.924 502.468 235.879C501.948 236.833 501.188 237.635 500.262 238.205C495.364 242.018 489.881 244.999 484.028 247.031C477.815 248.729 471.424 249.674 464.99 249.847Z" fill="#71717A"/>
<path d="M589.286 249.847C579.75 250 570.347 247.603 562.039 242.9C554.069 238.324 547.443 231.719 542.814 223.747C538.086 215.255 535.582 205.692 535.539 195.957V106.014C535.548 103.718 536.422 101.511 537.988 99.8404C539.554 98.17 541.692 97.1609 543.97 97.0176C546.248 96.8744 548.497 97.6077 550.255 99.069C552.017 100.53 553.16 102.61 553.455 104.888V160.28C557.999 154.406 563.836 149.67 570.504 146.445C577.177 143.22 584.499 141.593 591.897 141.691C600.994 141.469 609.95 143.951 617.651 148.826C625.263 153.568 631.505 160.237 635.755 168.167C640.286 176.644 642.598 186.144 642.47 195.769C642.645 205.247 640.32 214.603 635.729 222.882C631.142 231.161 624.452 238.069 616.345 242.9C608.111 247.623 598.763 250.023 589.286 249.847ZM589.286 233.699C595.78 233.89 602.197 232.195 607.761 228.817C613.128 225.489 617.561 220.835 620.638 215.297C623.808 209.35 625.476 202.707 625.489 195.957C625.681 189.183 624 182.488 620.638 176.617C617.604 171.095 613.158 166.492 607.761 163.285C602.167 160.055 595.827 158.355 589.376 158.355C582.929 158.355 576.589 160.055 570.995 163.285C565.692 166.55 561.318 171.143 558.306 176.617C555.106 182.545 553.497 189.212 553.638 195.957C553.587 202.692 555.191 209.336 558.306 215.297C561.254 220.918 565.632 225.649 570.995 229.005C576.546 232.238 582.873 233.863 589.286 233.699Z" fill="#71717A"/>
<path d="M716.928 249.85C707.938 249.994 699.089 247.61 691.371 242.965C683.657 238.321 677.385 231.601 673.259 223.562C668.762 215.011 666.513 205.444 666.726 195.772C666.5 186.087 668.958 176.531 673.818 168.169C678.618 160.078 685.427 153.379 693.572 148.727C701.717 144.075 710.921 141.629 720.286 141.629C729.651 141.629 738.859 144.075 747.004 148.727C755.149 153.379 761.954 160.078 766.754 168.169C771.571 176.549 774.025 186.093 773.85 195.772L766.942 197.462C767.134 206.773 764.881 215.97 760.41 224.125C756.284 231.872 750.161 238.358 742.682 242.903C734.874 247.503 725.978 249.903 716.928 249.85ZM720.102 233.702C726.656 233.893 733.129 232.199 738.765 228.82C744.034 225.431 748.39 220.787 751.454 215.3C754.645 209.361 756.314 202.712 756.305 195.96C756.476 189.128 754.799 182.379 751.454 176.431C748.39 170.944 744.034 166.3 738.765 162.912C733.167 159.682 726.831 157.982 720.38 157.982C713.929 157.982 707.593 159.682 701.999 162.912C696.58 166.236 692.083 170.887 688.934 176.431C685.76 182.446 684.096 189.149 684.083 195.96C683.913 202.648 685.525 209.26 688.747 215.112C691.844 220.696 696.35 225.36 701.811 228.632C707.337 231.962 713.66 233.715 720.102 233.702ZM764.518 249.287C762.168 249.348 759.893 248.475 758.182 246.858C756.467 245.241 755.46 243.01 755.371 240.649V209.104L758.916 190.138L773.474 195.772V240.086C773.525 242.507 772.655 244.857 771.051 246.658C769.276 248.329 766.946 249.267 764.518 249.287Z" fill="#71717A"/>
<path d="M812.117 294.78C810.918 294.87 809.715 294.698 808.589 294.277C807.462 293.856 806.438 293.195 805.585 292.339C804.736 291.484 804.079 290.454 803.661 289.32C803.243 288.186 803.072 286.974 803.162 285.767V195.637C803.14 185.894 805.649 176.314 810.441 167.846C814.959 159.793 821.615 153.162 829.662 148.694C837.837 143.994 847.121 141.594 856.533 141.746C866.214 141.544 875.768 144.012 884.156 148.881C892.117 153.481 898.697 160.164 903.189 168.222C907.87 176.709 910.37 186.236 910.468 195.941C910.566 205.645 908.258 215.222 903.748 223.802C899.546 231.716 893.291 238.335 885.649 242.955C877.875 247.645 868.954 250.052 859.895 249.903C852.326 250.099 844.83 248.423 838.059 245.021C831.625 241.76 825.963 237.15 821.449 231.501V285.767C821.534 286.973 821.359 288.183 820.941 289.317C820.523 290.45 819.87 291.481 819.025 292.339C817.062 293.916 814.63 294.776 812.117 294.78ZM856.533 233.755C863.032 233.945 869.444 232.25 875.012 228.872C880.375 225.544 884.809 220.89 887.889 215.352C891.081 209.413 892.749 202.765 892.74 196.012C892.907 189.181 891.23 182.432 887.889 176.484C884.864 170.908 880.418 166.242 875.012 162.964C869.414 159.734 863.078 158.034 856.627 158.034C850.176 158.034 843.84 159.734 838.246 162.964C832.892 166.249 828.51 170.918 825.557 176.484C822.52 182.507 820.937 189.165 820.937 195.918C820.937 202.672 822.52 209.33 825.557 215.352C828.454 220.957 832.849 225.638 838.246 228.872C843.806 232.102 850.116 233.787 856.533 233.755Z" fill="#71717A"/>
<path d="M948.723 294.782C947.605 294.855 946.488 294.704 945.429 294.336C944.367 293.968 943.394 293.391 942.558 292.639C941.726 291.887 941.047 290.975 940.57 289.956C940.087 288.938 939.819 287.833 939.767 286.708V195.45C939.746 185.707 942.255 176.127 947.046 167.66C951.565 159.607 958.221 152.975 966.268 148.507C974.443 143.808 983.727 141.408 993.139 141.56C1000.27 141.401 1007.35 142.696 1013.96 145.367C1020.58 148.037 1026.59 152.029 1031.63 157.1C1036.67 162.171 1040.64 168.217 1043.29 174.873C1045.95 181.528 1047.23 188.656 1047.07 195.826C1047.27 205.519 1044.95 215.096 1040.35 223.616C1036.16 231.529 1029.9 238.148 1022.25 242.769C1014.48 247.459 1005.56 249.866 996.501 249.716C988.932 249.913 981.436 248.236 974.665 244.834C968.256 241.622 962.641 237.002 958.242 231.315V285.581C958.327 286.787 958.153 287.998 957.734 289.131C957.316 290.264 956.663 291.295 955.814 292.153C953.801 293.782 951.309 294.705 948.723 294.782ZM992.956 233.756C999.45 233.947 1005.87 232.252 1011.43 228.874C1016.8 225.545 1021.23 220.891 1024.31 215.354C1027.5 209.415 1029.17 202.767 1029.16 196.013C1029.33 189.182 1027.65 182.433 1024.31 176.485C1022 172.242 1018.87 168.51 1015.1 165.517C1011.33 162.523 1006.99 160.328 1002.36 159.065C997.717 157.802 992.87 157.496 988.113 158.167C983.356 158.837 978.782 160.469 974.665 162.966C969.31 166.251 964.928 170.919 961.975 176.485C958.938 182.508 957.355 189.166 957.355 195.92C957.355 202.673 958.938 209.331 961.975 215.354C964.877 220.958 969.271 225.639 974.665 228.874C980.25 232.035 986.547 233.697 992.956 233.699V233.756Z" fill="#71717A"/>
<path d="M1080.84 252.099C1079.21 252.119 1077.58 251.796 1076.07 251.149C1074.56 250.502 1073.2 249.547 1072.08 248.343C1070.89 247.201 1069.96 245.831 1069.31 244.314C1068.67 242.798 1068.34 241.166 1068.34 239.518C1068.32 237.783 1068.63 236.06 1069.28 234.448C1069.92 232.837 1070.87 231.369 1072.08 230.13C1073.2 228.926 1074.56 227.97 1076.07 227.324C1077.58 226.677 1079.21 226.354 1080.84 226.374C1084.27 226.373 1087.55 227.722 1089.99 230.13C1091.2 231.355 1092.15 232.825 1092.76 234.443C1093.37 236.061 1093.64 237.79 1093.54 239.518C1093.55 241.189 1093.23 242.845 1092.59 244.388C1091.95 245.932 1091.02 247.331 1089.83 248.504C1088.65 249.677 1087.24 250.599 1085.7 251.216C1084.16 251.834 1082.51 252.134 1080.84 252.099Z" fill="#71717A"/>
<path d="M1132.17 124.04C1130.61 124.032 1129.06 123.712 1127.62 123.1C1126.18 122.488 1124.87 121.595 1123.78 120.473C1122.59 119.422 1121.66 118.117 1121.05 116.654C1120.43 115.191 1120.15 113.609 1120.23 112.023C1120.2 110.454 1120.49 108.895 1121.07 107.438C1121.65 105.981 1122.51 104.655 1123.61 103.536C1124.7 102.418 1126 101.53 1127.45 100.924C1128.88 100.317 1130.43 100.005 1131.98 100.005H1132.36C1133.91 99.98 1135.45 100.266 1136.9 100.846C1138.34 101.426 1139.65 102.289 1140.76 103.385C1141.96 104.5 1142.9 105.87 1143.52 107.396C1144.13 108.923 1144.4 110.567 1144.3 112.211C1144.29 113.785 1143.98 115.342 1143.37 116.792C1142.76 118.242 1141.87 119.557 1140.76 120.66C1139.64 121.795 1138.3 122.682 1136.82 123.264C1135.34 123.846 1133.76 124.11 1132.17 124.04ZM1132.17 249.097C1130.97 249.186 1129.77 249.014 1128.64 248.593C1127.51 248.172 1126.49 247.511 1125.64 246.656C1124.79 245.8 1124.13 244.77 1123.72 243.636C1123.3 242.502 1123.13 241.29 1123.22 240.084V151.643C1123.13 150.436 1123.3 149.224 1123.72 148.09C1124.13 146.956 1124.79 145.926 1125.64 145.071C1126.49 144.215 1127.51 143.554 1128.64 143.133C1129.77 142.711 1130.97 142.54 1132.17 142.63C1134.58 142.546 1136.93 143.423 1138.71 145.071C1139.55 145.929 1140.21 146.96 1140.63 148.093C1141.04 149.226 1141.21 150.437 1141.13 151.643V239.896C1141.21 241.102 1141.04 242.312 1140.63 243.445C1140.21 244.579 1139.55 245.609 1138.71 246.468C1137.86 247.345 1136.84 248.033 1135.72 248.486C1134.59 248.939 1133.38 249.148 1132.17 249.097Z" fill="#71717A"/>
<path d="M1226.42 249.848C1216.79 249.999 1207.28 247.672 1198.8 243.089C1190.81 238.612 1184.21 231.979 1179.76 223.936C1175.06 215.39 1172.74 205.723 1173.04 195.958C1172.83 186.142 1175.14 176.438 1179.76 167.792C1184.21 159.749 1190.81 153.115 1198.8 148.639C1207.26 143.99 1216.78 141.659 1226.42 141.88C1236.07 141.748 1245.58 144.142 1254.04 148.827C1261.99 153.356 1268.57 159.976 1273.08 167.98C1277.84 176.577 1280.22 186.304 1279.98 196.146C1280.13 205.916 1277.75 215.558 1273.08 224.123C1268.59 232.076 1262.08 238.686 1254.22 243.276C1245.63 247.716 1236.08 249.972 1226.42 249.848ZM1226.42 233.7C1232.91 233.891 1239.33 232.196 1244.89 228.818C1250.24 225.604 1254.62 220.998 1257.58 215.486C1260.62 209.396 1262.2 202.677 1262.2 195.864C1262.2 189.05 1260.62 182.331 1257.58 176.242C1254.68 170.691 1250.28 166.073 1244.89 162.91C1239.2 159.769 1232.81 158.122 1226.33 158.122C1219.83 158.122 1213.45 159.769 1207.76 162.91C1202.37 166.07 1197.97 170.689 1195.06 176.242C1191.93 182.329 1190.33 189.1 1190.4 195.958C1190.25 202.763 1191.86 209.491 1195.06 215.486C1198.08 220.957 1202.45 225.55 1207.76 228.818C1213.44 232.068 1219.88 233.752 1226.42 233.7Z" fill="#71717A"/>
<path d="M102.177 116.36C102.134 119.286 101.233 122.134 99.5861 124.545C97.9392 126.957 95.6207 128.826 92.9216 129.916C90.2225 131.006 87.2636 131.269 84.4164 130.672C81.5693 130.075 78.961 128.644 76.9199 126.56C74.8783 124.476 73.495 121.831 72.9429 118.958C72.3912 116.085 72.6959 113.112 73.8184 110.412C74.941 107.713 76.8315 105.407 79.2525 103.786C81.6734 102.164 84.5167 101.299 87.4252 101.299C91.3591 101.351 95.1142 102.961 97.876 105.78C100.637 108.6 102.183 112.401 102.177 116.36Z" fill="#71717A"/>
<path d="M172.553 169.402C171.095 161.356 168.152 153.657 163.875 146.701C157.961 137.546 149.903 129.992 140.409 124.702C130.915 119.412 120.275 116.548 109.424 116.361C101.379 116.416 93.4209 118.047 85.9951 121.163C70.7375 127.147 57.1777 136.818 46.5127 149.321C48.6819 159.361 51.0682 169.183 53.2378 179.442L142.182 228.772L170.601 218.295C175.36 202.427 176.032 185.603 172.553 169.402Z" fill="#71717A"/>
<path d="M60.9583 177.042C60.9583 177.042 63.7786 196.686 40.7832 206.072C17.7879 215.458 10.9327 202.427 2.38536 219.889C-6.16196 237.351 10.629 221.417 15.6185 222.508C20.608 223.6 47.942 223.818 55.101 220.762C65.731 216.178 73.9746 207.666 78.3134 190.64C82.6522 173.615 60.9583 177.042 60.9583 177.042Z" fill="#71717A"/>
<path d="M110.849 206.946C110.849 206.946 90.6739 205.855 90.6739 230.956C90.6739 256.057 73.3189 254.748 59.869 268.281C41.6462 286.834 48.3712 259.768 52.4933 256.712C77.2237 238.377 72.8854 236.631 73.1021 228.773C73.1021 216.987 77.8748 206.073 91.7585 195.595C105.643 185.118 110.849 206.946 110.849 206.946Z" fill="#71717A"/>
<path d="M138.059 223.75C138.059 223.75 119.186 228.771 119.186 253.654C119.186 278.537 134.155 280.719 121.138 294.907C113.112 303.638 113.546 290.542 113.762 283.339C113.98 278.319 100.312 253.436 100.312 245.578C100.312 233.791 105.085 222.877 118.969 212.4C132.853 201.923 138.059 223.75 138.059 223.75Z" fill="#71717A"/>
<path d="M195.457 167.217C195.436 170.175 194.543 173.059 192.893 175.505C191.242 177.952 188.908 179.851 186.184 180.963C183.46 182.075 180.471 182.349 177.592 181.751C174.714 181.153 172.076 179.709 170.014 177.603C167.951 175.497 166.555 172.822 166.002 169.918C165.45 167.013 165.766 164.009 166.91 161.286C168.055 158.562 169.976 156.241 172.432 154.616C174.888 152.991 177.767 152.135 180.706 152.157C182.659 152.165 184.591 152.562 186.391 153.325C188.191 154.087 189.824 155.201 191.195 156.6C192.566 158 193.648 159.658 194.38 161.481C195.111 163.303 195.477 165.252 195.457 167.217Z" fill="#71717A"/>
</g>
<defs>
<clipPath id="clip0_1784_320">
<rect width="1280" height="204" fill="white" transform="translate(0 97)"/>
</clipPath>
</defs>
</svg>
