<svg width="1280" height="397" viewBox="0 0 1280 397" fill="none" xmlns="http://www.w3.org/2000/svg">
<path d="M646.401 273.51H679.936L717.936 170.41H718.357L756.142 273.51H790.108L827.467 123.779H794.354L769.09 227.307H768.669L732.578 123.779H703.926L667.84 227.307H667.414L642.366 123.779H609.037L646.401 273.51Z" fill="#7F7F87"/>
<path d="M836.98 273.509H868.395V212.975C868.395 196.505 880.711 185.168 898.961 185.168C917.217 185.168 928.255 195.649 928.255 212.975V273.509H959.674V208.697C959.674 178.109 938.02 156.933 905.754 156.933C890.896 156.933 878.159 161.853 868.821 170.837H868.395V117.361H836.98V273.509Z" fill="#7F7F87"/>
<path d="M1034.37 276.718C1071.51 276.718 1097.83 250.622 1097.83 216.826C1097.83 183.03 1071.51 156.934 1034.37 156.934C997.429 156.934 970.897 183.03 970.897 216.826C970.897 250.622 997.429 276.718 1034.37 276.718ZM1034.37 248.911C1014.84 248.911 1002.31 235.221 1002.31 216.826C1002.31 198.43 1014.84 184.741 1034.37 184.741C1053.9 184.741 1066.42 198.43 1066.42 216.826C1066.42 235.221 1053.9 248.911 1034.37 248.911Z" fill="#7F7F87"/>
<path d="M1109.56 321.637H1140.97V264.74H1141.4C1148.61 271.798 1162.63 276.718 1176.64 276.718C1209.96 276.718 1234.8 251.05 1234.8 216.826C1234.8 182.816 1209.75 156.934 1176.42 156.934C1161.99 156.934 1148.83 161.211 1140.12 170.195H1139.7V160.142H1109.56V321.637ZM1171.75 248.911C1154.34 248.911 1140.97 237.574 1140.97 223.885V209.553C1140.97 196.291 1154.98 184.955 1171.54 184.955C1190.43 184.955 1203.38 197.789 1203.38 216.826C1203.38 235.863 1190.22 248.911 1171.75 248.911Z" fill="#7F7F87"/>
<path fill-rule="evenodd" clip-rule="evenodd" d="M546.775 113.493C504.336 70.8698 435.697 70.9241 393.323 113.657L221.713 285.954C268.262 327.046 338.788 325.381 382.651 281.148L547.768 114.636L546.775 113.493ZM216.574 114.442C259.002 71.6553 327.762 71.6553 370.189 114.442L371.479 115.742L212.405 276.16L134.308 197.403L216.574 114.442ZM124.425 187.478L46.5063 109.597C89.1773 71.7213 154.241 73.3363 195.002 114.442L196.268 115.719L124.425 187.478Z" fill="#7A7A80"/>
</svg>
