<svg width="1280" height="397" viewBox="0 0 1280 397" fill="none" xmlns="http://www.w3.org/2000/svg">
<g clip-path="url(#clip0_1784_259)">
<path fill-rule="evenodd" clip-rule="evenodd" d="M5 68H267.552V329H5V68ZM82.0151 131.51L127.524 215.9V270.71H145.027V216.77L190.536 131.51H171.283L145.027 184.58C143.277 187.19 141.527 189.8 140.652 192.41C140.148 194.413 139.354 195.84 138.604 197.187C138.051 198.181 137.522 199.132 137.151 200.24C136.713 199.805 136.495 199.152 136.276 198.5C136.057 197.848 135.838 197.195 135.401 196.76C134.963 195.89 134.744 195.238 134.525 194.585C134.307 193.933 134.088 193.28 133.65 192.41V191.54L132.775 190.67C132.441 190.005 132.234 189.468 132.058 189.008C131.772 188.265 131.566 187.728 131.025 187.19C130.15 186.32 129.274 185.45 129.274 184.58L103.019 131.51H82.0151Z" fill="#71717A"/>
<path d="M387.45 118.461C400.578 118.461 411.955 121.941 420.707 128.901L411.955 139.341C404.078 134.121 396.202 130.641 386.575 130.641C371.697 130.641 360.32 138.471 354.194 153.261C350.693 161.961 348.943 173.271 348.943 188.061C348.943 199.371 350.693 208.941 353.318 215.901C360.32 232.431 371.697 240.261 389.2 240.261C398.827 240.261 407.579 237.651 415.456 231.561L424.207 242.871C412.83 249.831 400.578 253.311 387.45 253.311C371.697 253.311 358.569 247.221 348.067 234.171C337.565 221.991 333.189 205.461 333.189 185.451C333.189 165.441 338.44 149.781 348.943 136.731C358.569 125.421 371.697 118.461 387.45 118.461Z" fill="#71717A"/>
<path d="M437.335 204.591C437.335 188.931 440.836 176.751 448.712 168.051C456.589 159.351 466.216 154.131 478.468 154.131C492.471 154.131 503.848 159.351 511.725 170.661C517.851 179.361 520.476 191.541 520.476 206.331C520.476 223.731 515.225 237.651 505.598 246.351C498.597 252.441 489.845 255.921 479.343 255.921C466.216 255.921 456.589 251.571 448.712 242.001C440.836 233.301 437.335 220.251 437.335 204.591ZM498.597 179.361C494.221 171.531 488.095 167.181 478.468 167.181C468.841 167.181 462.715 170.661 458.339 177.621C454.838 182.841 453.963 191.541 453.963 202.851C453.963 217.641 455.714 228.081 460.089 234.171C464.465 240.261 470.592 243.741 479.343 243.741C489.845 243.741 496.847 238.521 500.347 228.951C502.098 223.731 502.973 216.771 502.973 208.071C503.848 195.021 502.098 185.451 498.597 179.361Z" fill="#71717A"/>
<path d="M548.482 181.101C548.482 171.531 547.606 163.701 544.981 157.611L559.859 154.131C562.484 158.481 563.36 163.701 563.36 168.051V168.921C566.86 165.441 570.361 161.961 575.612 159.351C581.738 155.871 586.989 154.131 592.24 154.131C600.117 154.131 607.118 157.611 611.494 163.701C612.369 165.441 614.12 168.051 614.995 169.791C625.497 159.351 635.124 154.131 645.626 154.131C652.627 154.131 658.753 156.741 663.129 161.091C667.505 166.311 670.131 172.401 670.131 179.361V251.571H654.377V180.231C654.377 170.661 650.002 166.311 642.125 166.311C637.749 166.311 632.498 168.051 628.122 171.531C626.372 173.271 622.871 175.881 618.495 179.361L616.745 181.101V251.571H600.117V183.711C600.117 177.621 599.242 173.271 597.491 171.531C594.866 168.921 592.24 168.051 587.864 168.051C580.863 168.051 572.986 172.401 563.36 181.101V252.441H548.482V181.101V181.101Z" fill="#71717A"/>
<path d="M697.261 114.98L713.014 111.5C714.765 118.46 715.64 126.29 715.64 135.86V157.61C715.64 162.83 715.64 166.31 715.64 168.05C724.392 159.35 734.019 155 743.645 155C755.023 155 764.65 159.35 770.776 168.05C777.777 176.75 781.278 188.93 781.278 203.72C781.278 219.38 777.777 231.56 770.776 241.13C763.774 250.7 754.148 255.05 742.77 255.05C737.519 255.05 733.143 254.18 727.892 251.57C722.641 248.96 719.141 246.35 716.515 242.87C715.64 247.22 714.765 250.7 713.89 253.31H699.012C700.762 248.96 701.637 241.13 701.637 228.95V137.6C700.762 127.16 699.887 119.33 697.261 114.98ZM722.641 174.14C720.016 175.88 717.39 178.49 715.64 181.1V230.69C721.766 238.52 729.643 242 739.27 242C747.146 242 753.272 239.39 756.773 233.3C761.149 226.34 763.774 216.77 763.774 202.85C763.774 190.67 762.024 181.97 757.648 176.75C754.147 171.53 748.021 168.92 739.27 168.92C734.019 168.05 727.892 169.79 722.641 174.14Z" fill="#71717A"/>
<path d="M804.032 127.16C804.032 123.68 804.907 121.07 807.533 118.46C810.158 115.85 812.784 114.98 816.285 114.98C819.785 114.98 822.411 115.85 825.036 118.46C827.662 121.07 828.537 123.68 828.537 127.16C828.537 130.64 827.662 133.25 825.036 135.86C822.411 138.47 819.785 139.34 816.285 139.34C812.784 139.34 810.158 138.47 807.533 135.86C804.907 133.25 804.032 130.64 804.032 127.16ZM807.533 252.44V156.74L823.286 154.13V252.44H807.533Z" fill="#71717A"/>
<path d="M857.418 181.101C857.418 174.141 857.418 169.791 856.543 168.051C856.543 165.441 854.792 162.831 853.042 158.481L867.92 154.131C870.545 159.351 871.421 163.701 871.421 168.921C881.047 159.351 891.55 154.131 902.052 154.131C907.303 154.131 911.678 155.001 916.054 157.611C920.43 160.221 923.931 163.701 925.681 168.051C927.432 171.531 928.307 175.011 928.307 179.361V252.441H913.429V187.191C913.429 179.361 912.554 174.141 909.928 171.531C907.303 168.921 903.802 167.181 899.426 167.181C895.925 167.181 890.674 168.921 885.423 171.531C880.172 174.141 875.796 177.621 872.296 181.101V252.441H857.418V181.101V181.101Z" fill="#71717A"/>
<path d="M963.313 177.621L955.437 167.181C968.564 158.481 981.692 154.131 995.695 154.131C1009.7 154.131 1018.45 159.351 1022.83 168.921C1024.58 172.401 1024.58 177.621 1024.58 185.451V190.671L1023.7 221.991C1023.7 222.861 1023.7 224.601 1023.7 226.341C1023.7 231.561 1023.7 235.041 1024.58 237.651C1025.45 241.131 1028.08 243.741 1031.58 245.481L1023.7 255.921C1016.7 253.311 1012.32 248.961 1010.57 242.001C1001.82 250.701 992.194 255.051 982.567 255.051C972.94 255.051 965.064 252.441 958.938 247.221C953.687 242.871 951.061 235.911 951.061 227.211C951.061 215.901 955.437 208.071 964.189 201.981C972.94 195.891 986.068 193.281 1001.82 193.281C1004.45 193.281 1006.2 193.281 1008.82 193.281V186.321C1008.82 178.491 1007.95 173.271 1005.32 171.531C1001.82 168.051 998.32 166.311 992.194 166.311C986.943 166.311 980.817 168.051 973.816 170.661C971.19 172.401 967.689 175.011 963.313 177.621ZM1009.7 228.951L1010.57 203.721C1006.2 203.721 1003.57 203.721 1002.7 203.721C988.693 203.721 979.942 206.331 974.691 211.551C971.19 215.031 969.44 220.251 969.44 227.211C969.44 238.521 974.691 244.611 986.068 244.611C996.57 243.741 1004.45 238.521 1009.7 228.951Z" fill="#71717A"/>
<path d="M1074.46 156.74H1098.97L1094.59 168.92H1074.46V230.69C1074.46 235.91 1075.34 239.39 1077.09 242C1078.84 243.74 1082.34 245.48 1086.71 245.48C1090.21 245.48 1093.71 244.61 1096.34 243.74L1098.09 253.31C1092.84 255.92 1087.59 256.79 1081.46 256.79C1066.58 256.79 1059.58 249.83 1059.58 235.04V168.92H1046.46V156.74H1058.71V155C1058.71 153.26 1059.58 146.3 1060.46 134.99V132.38L1076.21 128.9C1074.46 139.34 1074.46 148.91 1074.46 156.74Z" fill="#71717A"/>
<path d="M1114.72 204.591C1114.72 188.931 1118.22 176.751 1126.1 168.051C1133.1 159.351 1143.6 154.131 1155.85 154.131C1169.85 154.131 1181.23 159.351 1189.11 170.661C1195.23 179.361 1197.86 191.541 1197.86 206.331C1197.86 223.731 1192.61 237.651 1182.98 246.351C1175.98 252.441 1167.23 255.921 1156.73 255.921C1143.6 255.921 1133.97 251.571 1126.1 242.001C1119.09 233.301 1114.72 220.251 1114.72 204.591ZM1176.86 179.361C1172.48 171.531 1166.35 167.181 1156.73 167.181C1147.1 167.181 1140.97 170.661 1136.6 177.621C1133.1 182.841 1132.22 191.541 1132.22 202.851C1132.22 217.641 1133.97 228.081 1138.35 234.171C1142.72 240.261 1148.85 243.741 1157.6 243.741C1168.1 243.741 1175.11 238.521 1178.61 228.951C1180.36 223.731 1181.23 216.771 1181.23 208.071C1181.23 195.021 1179.48 185.451 1176.86 179.361Z" fill="#71717A"/>
<path d="M1226.74 179.361C1226.74 170.661 1225.87 163.701 1223.24 158.481L1238.12 154.131C1240.74 159.351 1241.62 163.701 1241.62 168.921V170.661C1249.49 160.221 1258.25 155.001 1268.75 155.001C1270.5 155.001 1272.25 155.001 1274 155.871L1267.87 172.401C1266.12 171.531 1264.37 171.531 1263.5 171.531C1260 171.531 1255.62 172.401 1252.12 175.011C1248.62 177.621 1245.12 180.231 1243.37 183.711C1242.49 186.321 1241.62 189.801 1241.62 194.151V254.181H1226.74V179.361Z" fill="#71717A"/>
</g>
<defs>
<clipPath id="clip0_1784_259">
<rect width="1269" height="261" fill="white" transform="translate(5 68)"/>
</clipPath>
</defs>
</svg>
